/* XPM */
static char *0_visible_icon[] = {
/* columns rows colors chars-per-pixel */
"13 13 67 1",
"  c #4E4C49",
". c #4E4D4A",
"X c #504F4C",
"o c #514F4C",
"O c #53514E",
"+ c #53524E",
"@ c #54524F",
"# c #575652",
"$ c #7B7974",
"% c #84817C",
"& c #86847F",
"* c #888580",
"= c #898681",
"- c #908D88",
"; c #908E88",
": c #928F8A",
"> c #9C9893",
", c #9D9A96",
"< c #9E9B97",
"1 c #CECBC3",
"2 c #CFCBC2",
"3 c #CFCBC3",
"4 c #D0CBC3",
"5 c #D1CDC5",
"6 c #D1CDC6",
"7 c #D2CDC5",
"8 c #D2CEC5",
"9 c #D2CEC6",
"0 c #D3CFC7",
"q c #D4CFC7",
"w c #D4D0C8",
"e c #D4D0CA",
"r c #D8D4CC",
"t c #D9D5CD",
"y c #DAD6CD",
"u c #DCD7CF",
"i c #DCD8CF",
"p c #DBD8D2",
"a c #DBD9D2",
"s c #DCD8D0",
"d c #DDD8D0",
"f c #DDD9D0",
"g c #DDD9D1",
"h c #DCD9D2",
"j c #DED9D1",
"k c #DEDAD1",
"l c #DFDAD1",
"z c #DFDBD2",
"x c #DEDBD5",
"c c #DEDCD6",
"v c #DFDCD6",
"b c #E0DCD4",
"n c #E1DCD4",
"m c #E1DDD4",
"M c #E0DDD7",
"N c #E0DDD8",
"B c #E2DFD9",
"V c #E4E2DC",
"C c #E4E2DD",
"Z c #E5E3DE",
"A c #E7E5E0",
"S c #E8E6E2",
"D c #EAE7E0",
"F c #E9E8E4",
"G c #EAE8E4",
"H c #ECE9E3",
"J c #EEEAE1",
/* pixels */
"0tuuzuzuuuz00",
"t$o@@@@@@@X,t",
"u.#-&====&<p0",
"uo-JunnnnuHD5",
"uX*u355555aZ0",
"uX=n500005vZ5",
"uo=n900000vZ5",
"uo=n500000vC0",
"uo=n500005vZ5",
"uo&n555505nZ9",
"u.,DaxxxxaGG5",
"0:0BxvvvvxCS0",
"0y09099999590"
};
