/* XPM */
static char *visible_on_icon[] = {
/* columns rows colors chars-per-pixel */
"13 13 101 2",
"   c #000000",
".  c #020202",
"X  c #090808",
"o  c #0A0A09",
"O  c #141413",
"+  c #151414",
"@  c #191817",
"#  c #201F1E",
"$  c #292927",
"%  c #2A2928",
"&  c #343331",
"*  c #363633",
"=  c #383634",
"-  c #383734",
";  c #41403E",
":  c #43423F",
">  c #4A4846",
",  c #4D4B48",
"<  c #4E4C49",
"1  c #504E4B",
"2  c #5A5855",
"3  c #5E5D59",
"4  c #615F5B",
"5  c #62615D",
"6  c #64625F",
"7  c #65635F",
"8  c #666460",
"9  c #676561",
"0  c #686662",
"q  c #696864",
"w  c #6B6965",
"e  c #6B6A66",
"r  c #706E6A",
"t  c #72716C",
"y  c #73716C",
"u  c #73716D",
"i  c #75736F",
"p  c #76746F",
"a  c #777570",
"s  c #787671",
"d  c #797772",
"f  c #7A7873",
"g  c #7B7974",
"h  c #7C7974",
"j  c #7C7A75",
"k  c #7E7B77",
"l  c #807F79",
"z  c #817E79",
"x  c #83807B",
"c  c #87847F",
"v  c #858480",
"b  c #8A8782",
"n  c #8C8983",
"m  c #8C8984",
"M  c #8E8B86",
"N  c #8F8D87",
"B  c #908D88",
"V  c #918E89",
"C  c #928F89",
"Z  c #94928C",
"A  c #97948F",
"S  c #98958F",
"D  c #9C9A96",
"F  c #9F9C96",
"G  c #A09C97",
"H  c #A3A09A",
"J  c #A4A19B",
"K  c #A5A29C",
"L  c #A9A59F",
"P  c #B2AFA8",
"I  c #B9B5AE",
"U  c #BAB6B0",
"Y  c #BAB7B0",
"T  c #BDB9B2",
"R  c #BEBAB3",
"E  c #BEBBB3",
"W  c #C2BFB7",
"Q  c #C3BFB8",
"!  c #C6C2BB",
"~  c #C7C3BC",
"^  c #C9C5BE",
"/  c #CDC9C1",
"(  c #CDC9C2",
")  c #CECBC3",
"_  c #D0CCC5",
"`  c #D2CEC6",
"'  c #D3CFC7",
"]  c #D4D0C8",
"[  c #D5D1C9",
"{  c #D6D1C9",
"}  c #D6D2C9",
"|  c #D6D2CA",
" . c #D7D3CA",
".. c #D7D3CB",
"X. c #D8D4CB",
"o. c #D9D5CC",
"O. c #D9D5CD",
"+. c #DAD6CD",
"@. c #DAD6CE",
"#. c #DBD6CE",
"$. c #DCD8D0",
/* pixels */
"] ] ]  .o.o.o.o.o.] ` ] ] ",
"] ] ] ^ W U Y E ! _ ] ] ] ",
"] / L x d e q r k S W ..] ",
"] Z 6 j i d p g d q j I ] ",
" .b 3 < @ o o @ : 7 4 c ) ",
"] S >   - q     & = < D ) ",
"] Z B O - 2     1 N $ K $.",
"] ! E b +     % G i ; T #.",
"] _ q B n j z D t : G ] ` ",
"] ] S i 5 7 0 i z P ..] ] ",
"] ] #.W A M n J ] #.` ` ] ",
"] ] ] ] ]  .] ..] ` ] ] ` ",
"] ] ] ` ] ] ] ` ] ] ] ] ] "
};
