/* XPM */
static char *3dPaint_icon[] = {
/* columns rows colors chars-per-pixel */
"22 22 203 2",
"   c #000201",
".  c #030809",
"X  c #0C0303",
"o  c #0B0D0F",
"O  c #081316",
"+  c #17090A",
"@  c #1C0A09",
"#  c #161516",
"$  c #0B093A",
"%  c #0B1D2D",
"&  c #1D1721",
"*  c #043204",
"=  c #033E02",
"-  c #0C3D0E",
";  c #002227",
":  c #0A202C",
">  c #0F2837",
",  c #250A0C",
"<  c #2F0000",
"1  c #2E1212",
"2  c #360000",
"3  c #3B0000",
"4  c #282728",
"5  c #2A3238",
"6  c #393839",
"7  c #000057",
"8  c #00005B",
"9  c #120D40",
"0  c #010063",
"q  c #0D0868",
"w  c #1A096F",
"e  c #160F70",
"r  c #120E78",
"t  c #37334F",
"y  c #283B67",
"u  c #3E3C70",
"i  c #015500",
"p  c #005E00",
"a  c #056200",
"s  c #117A0D",
"d  c #1E7B16",
"f  c #225422",
"g  c #144C75",
"h  c #124C7A",
"j  c #15527E",
"k  c #3F4D4F",
"l  c #22446D",
"z  c #374175",
"x  c #305479",
"c  c #450303",
"v  c #42060A",
"b  c #490000",
"n  c #4A0709",
"m  c #4B0A0E",
"M  c #550005",
"N  c #580000",
"B  c #461F2E",
"V  c #5F1D2A",
"C  c #4B212C",
"Z  c #620003",
"A  c #6E0001",
"S  c #7C0E13",
"D  c #621B20",
"F  c #413E40",
"G  c #5A2849",
"H  c #51344B",
"J  c #5A365C",
"K  c #463A69",
"L  c #413F78",
"P  c #6E3254",
"I  c #524E5D",
"U  c #535D56",
"Y  c #515E58",
"T  c #484277",
"R  c #564D66",
"E  c #5D5965",
"W  c #506953",
"Q  c #625F64",
"!  c #6D5860",
"~  c #616668",
"^  c #777879",
"/  c #110C83",
"(  c #130D8A",
")  c #1A0C83",
"_  c #191585",
"`  c #1A118C",
"'  c #1D1884",
"]  c #1F1A98",
"[  c #211181",
"{  c #20128B",
"}  c #251D89",
"|  c #2A2381",
" . c #272193",
".. c #312B8C",
"X. c #342D98",
"o. c #3F378D",
"O. c #36309C",
"+. c #3E3795",
"@. c #3B359C",
"#. c #004B86",
"$. c #004F8D",
"%. c #005492",
"&. c #005498",
"*. c #125690",
"=. c #005DA2",
"-. c #005FAA",
";. c #0061A6",
":. c #0063AB",
">. c #0A65AB",
",. c #0066B3",
"<. c #026BB5",
"1. c #056FB8",
"2. c #0973BC",
"3. c #1F67A9",
"4. c #224D84",
"5. c #22538C",
"6. c #2D5687",
"7. c #22608A",
"8. c #30698E",
"9. c #006FC2",
"0. c #0070C4",
"q. c #0073C9",
"w. c #0978C3",
"e. c #47409C",
"r. c #4A439E",
"t. c #465783",
"y. c #574F96",
"u. c #5C67A0",
"i. c #6562AC",
"p. c #6864AC",
"a. c #7F7CB0",
"s. c #388A36",
"d. c #0C8AD9",
"f. c #1880CB",
"g. c #278FDC",
"h. c #2195E3",
"j. c #2CA2EC",
"k. c #5385AF",
"l. c #5E8EAF",
"z. c #5D8EB3",
"x. c #5B8BBD",
"c. c #658AA4",
"v. c #6298B8",
"b. c #55C8FF",
"n. c #6CCBE8",
"m. c #8C0000",
"M. c #860F15",
"N. c #821112",
"B. c #8F171B",
"V. c #930103",
"C. c #9A1108",
"Z. c #921E1F",
"A. c #841223",
"S. c #9B1424",
"D. c #8F2536",
"F. c #962631",
"G. c #A10706",
"H. c #A60A0C",
"J. c #A90A13",
"K. c #A01518",
"L. c #B3050B",
"P. c #BA0200",
"I. c #BA0709",
"U. c #BB1317",
"Y. c #CE0000",
"T. c #D50404",
"R. c #DA0100",
"E. c #DB0C0C",
"W. c #DD1314",
"Q. c #D41B21",
"!. c #CF2323",
"~. c #E11A19",
"^. c #F61D1C",
"/. c #E01D23",
"(. c #DD4C4B",
"). c #A26982",
"_. c #86898B",
"`. c #8281AF",
"'. c #8783B0",
"]. c #839EB2",
"[. c #93A1A9",
"{. c #A4BB9D",
"}. c #AEABB0",
"|. c #AAAABB",
" X c #ADB0BD",
".X c #B3B3A9",
"XX c #B6B4B4",
"oX c #B6B7B8",
"OX c #B7B9B8",
"+X c #BEBEB4",
"@X c #BEBEBE",
"#X c #BFBFC1",
"$X c #BFC0BF",
"%X c #BFC0C1",
"&X c #C0BEBF",
"*X c #C1BCC3",
"=X c #C2C1BD",
"-X c #C1C1C1",
";X c #C5C9C3",
":X c #CBC6C3",
">X c #CCC9C3",
",X c #CACAC8",
"<X c #D0D0C9",
/* pixels */
"-X-X-X;X-X;X-X-X-X;X-X;X-X-X;X-X%X%Xx.X.X.y.",
"-X-X*X-X-X@X-X-X-X*X*X-X=X-X@X*X%Xi.( ( 8 E ",
"-X-X-X-X-X-X-X@X-X-X-X-X=X*X-X>X).( ( 7 Q <X",
"#X-X-X=X@X-X-X-X@X@X@X-X-X-X;X'.' ( 8 ~ ,X-X",
"-X-X-X-X-X@X-X-X@X*X-X|. X-X`._ ( 8 E ,X-X-X",
"-X#X@X-X-X-X-X*X*X{.u.` ..r. .] 7 E ,X-X-X-X",
"-X-X-X-X-X-X@X-XOXs.; w | O.e.r T -X-X-X-X-X",
"@X-X-X#X#X@X-X;XU = a : ` @.+.q u +X-X-X-X-X",
"*X#X@X=X=X=X@X~ .   - d % ) | e $ .X,X-X#X-X",
";X>X>X>X=Xc.I , @ o o f s % [ ` $ .X;X#X*X;X",
"].l.z.v.! N 3 S + . 4 # = i > 0 I =X@X-X-X-X",
">.-.,.G b b H.B.m c O F & * p U -X%X-X-X*X-X",
",.9.5.P.Q.M.Z M K.n 1 . #   W ;X@X@X-X@X-X-X",
"<.q.T R.U./.T.V.N I.v X   6 }.%X@X-X*X=X-X-X",
"9.*.J.G.B J.Y.R.m.S H.3 5 oX-X@X-X-X-X-X-X-X",
">.D.W.H t.T.D F.E.A H.< ^ ,X@X-X-X-X-X-X-X-X",
"u E.I.k.).~.6.J ^.V.N.C [.;X@X-X-X-X-X-X%X;X",
"5.V R n.(.S.2.P R.L.y %.c.-X@X-X-X-X@X-X-X-X",
"<.w.j.b.x.x 3.S.!.K <.&.8.*X-X@X@X-X@X-X*X;X",
",.1.w.h.h.d.>.A.C.l :.%.7.#X-X-X-X-X-X-X-X-X",
";.;.<.1.1.:.<.4.t h =.$.j OX-X=X-X@X-X-X@X;X",
"=.;.;.:.:.:.;.;.:.=.%.#.g OX-X=X-X-X-X*X-X-X"
};
