/* XPM */
static char *az_convertImages2[] = {
/* width height num_colors chars_per_pixel */
"    32    32      256            2",
/* colors */
"`` c #040304",
"`. c #747e7c",
"`# c #fc0204",
"`a c #44443c",
"`b c #a4bcc4",
"`c c #5c6264",
"`d c #1c2224",
"`e c #dc7e7c",
"`f c #644214",
"`g c #44260c",
"`h c #949ea3",
"`i c #4c5250",
"`j c #d4e6ec",
"`k c #b4cad2",
"`l c #6c6254",
"`m c #2c1204",
"`n c #34342c",
"`o c #7c8e8c",
"`p c #141211",
"`q c #5c422c",
"`r c #6c7270",
"`s c #bcbab9",
"`t c #9caeb2",
"`u c #84765c",
"`v c #4c3a2c",
"`w c #342214",
"`x c #7c5214",
"`y c #aca2a4",
"`z c #443734",
"`A c #1c0a04",
"`B c #94a8ac",
"`C c #8c867c",
"`D c #c4cbcc",
"`E c #f42224",
"`F c #444444",
"`G c #acc2c9",
"`H c #4c5a5c",
"`I c #343a3c",
"`J c #949292",
"`K c #6c6a64",
"`L c #645240",
"`M c #acb2b4",
"`N c #0c0a0b",
"`O c #748a8c",
"`P c #5c6a74",
"`Q c #1c1a1c",
"`R c #54464c",
"`S c #7c7a6c",
"`T c #645a50",
"`U c #342a2c",
"`V c #3c4a4c",
"`W c #6c7a88",
"`X c #bcc2c4",
"`Y c #543e34",
"`Z c #b4bac4",
"`0 c #2c2a34",
"`1 c #5c5254",
"`2 c #bcd2d6",
"`3 c #3c1a04",
"`4 c #343237",
"`5 c #8c989c",
"`6 c #e45254",
"`7 c #443e37",
"`8 c #646262",
".` c #a49e9c",
".. c #241209",
".# c #6c7a7c",
".a c #9cb6b4",
".b c #a4a6a4",
".c c #7c6a64",
".d c #c4b6b4",
".e c #745a40",
".f c #fc1214",
".g c #2c2217",
".h c #8c8e8e",
".i c #5c360f",
".j c #342c24",
".k c #f43234",
".l c #544e48",
".m c #e46264",
".n c #140404",
".o c #847e6c",
".p c #543210",
".q c #9c9e9c",
".r c #bccace",
".s c #1c1214",
".t c #c4d2d4",
".u c #6c6b6c",
".v c #acb6ba",
".w c #140a09",
".x c #848681",
".y c #6c5a50",
".z c #4c4a4c",
".A c #acbac4",
".B c #54666c",
".C c #644e38",
".D c #545250",
".E c #746354",
".F c #2c1a0c",
".G c #5c4a3c",
".H c #74726c",
".I c #c4bdbc",
".J c #cc9e9c",
".K c #b4c2c4",
".L c #5c5a5f",
".M c #3c3a37",
".N c #949a9c",
".O c #443e48",
".P c #0c0204",
".Q c #7c7e7e",
".R c #d49294",
".S c #3c3228",
".T c #544234",
".U c #a4b2b7",
".V c #9ca6ac",
".W c #f42b2c",
".X c #4c424c",
".Y c #9c9690",
".Z c #6c5244",
".0 c #646a64",
".1 c #241a1e",
".2 c #c4c3c4",
".3 c #3c3534",
".4 c #e45c5c",
".5 c #2c2425",
".6 c #8c929c",
".7 c #544e5c",
".8 c #4c4c54",
"#` c #3c3d44",
"#. c #4c321a",
"## c #e4f2fc",
"#a c #f41d1c",
"#b c #ec3b3c",
"#c c #dc6b6c",
"#d c #cca8a8",
"#e c #543e1c",
"#f c #7c7a8c",
"#g c #644624",
"#h c #8492a4",
"#i c #d48684",
"#j c #e45654",
"#k c #cc9a9c",
"#l c #44322c",
"#m c #847a74",
"#n c #5c5264",
"#o c #a4aabc",
"#p c #848284",
"#q c #4c4230",
"#r c #54361c",
"#s c #3c2624",
"#t c #4c3a34",
"#u c #948a84",
"#v c #fc0a0c",
"#w c #acaaab",
"#x c #5c3e10",
"#y c #a4b6b9",
"#z c #b4b6b4",
"#A c #6c460c",
"#B c #240c08",
"#C c #746d62",
"#D c #b4b1b2",
"#E c #7c878a",
"#F c #444e54",
"#G c #441e06",
"#H c #ec4e4c",
"#I c #3c2a1f",
"#J c #746e6e",
"#K c #341e10",
"#L c #5c4637",
"#M c #242424",
"#N c #94a2ac",
"#O c #6c6664",
"#P c #341604",
"#Q c #14161c",
"#R c #bcbec4",
"#S c #9cb2bc",
"#T c #342624",
"#U c #443a44",
"#V c #8c8a8c",
"#W c #cccbcc",
"#X c #94969c",
"#Y c #0c0e14",
"#Z c #645e5c",
"#0 c #342e3c",
"#1 c #b4becc",
"#2 c #9ca0ac",
"#3 c #c4d6e4",
"#4 c #848a8c",
"#5 c #acbecc",
"#6 c #54565c",
"#7 c #b4c6d4",
"#8 c #646d74",
"a` c #fc1a1c",
"a. c #545a58",
"a# c #4c3e38",
"aa c #747a7a",
"ab c #5c4e49",
"ac c #5c320c",
"ad c #5c6670",
"ae c #848e8c",
"af c #7c7a7c",
"ag c #ccb6b4",
"ah c #acb6c4",
"ai c #644e44",
"aj c #d49a9c",
"ak c #54362c",
"al c #a4b6c4",
"am c #748284",
"an c #fc0608",
"ao c #5c6660",
"ap c #b4ced4",
"aq c #6c6658",
"ar c #141614",
"as c #5c4624",
"at c #6c7674",
"au c #bcbebc",
"av c #34261c",
"aw c #1c0e0c",
"ax c #f42627",
"ay c #645640",
"az c #0c0e0c",
"aA c #544a48",
"aB c #342e2e",
"aC c #bcc6c6",
"aD c #b4bec0",
"aE c #2c2e2c",
"aF c #5c5652",
"aG c #bcd6dc",
"aH c #3c1e0c",
"aI c #343634",
"aJ c #646664",
"aK c #a4a2a4",
"aL c #a4aaa8",
"aM c #7c6e5c",
"aN c #8c9291",
"aO c #9ca2a4",
"aP c #bccecd",
"aQ c #1c161a",
"aR c #c4d6dc",
"aS c #140e0c",
"aT c #6c5e51",
"aU c #4c4e4a",
"aV c #acbec2",
"aW c #545654",
"aX c #2c1e14",
"aY c #747672",
"aZ c #b4c6c9",
"a0 c #5c5e5c",
"a1 c #3c3e3c",
"a2 c #0c0607",
"a3 c #7c8284",
"a4 c #3c362c",
"a5 c #9caaad",
"a6 c #4c4647",
"a7 c #646e6c",
"a8 c #241e1f",
/* pixels */
".2.2`X.2.2.2.2#W#W#W#W#W#W.2au#D#w.q#V#D.2.2`X.2.2`X.2.2`X.2.2`X",
".2#W#W.2.2#z#w.q.h.QaJaWa6`I.5ar`N````aN#Wau.2au.2.I`X.I.2au.2.I",
"`JaWa6`I#M`Qaza2``````````````#Y#Y````#V#W.2.I.2au.2.2`X.2.I`X.2",
".H``````````a2`N``aQ#`aSa2`Na2a1.8a2``.x#Wau.2`X.2au.2.I.2`D.2.2",
"`J`````N`N.waSaS.P#M#O.M.s.P.1aW.3`4``.Q#W.2.2#W#W#W#W`X#zaK.q.2",
"#waz```Na2`N`N.n#`.6`ra5#7.LaU.5``aI`p#p#W#z.b`JaY.L`aaEaQ``aI.2",
"au#M```pa8aQa2.7.t`5#q.O#E#ya6`Q.5#Ma8aI`4`Qaz``````````````a1#W",
"#W`F``.3.y#LaAa5#E.5#B.saQar#Y`N`N```````````N`N```N`N```N``.z#W",
"#W#O.w`U.laT.E`haX`````````````N``az`N`Na2`N`N`N`N``.8`0````aW#W",
".2.baa.h.N`8#faO`w`````N```N`N`N`N`Na2aB#naQ.waSaSaSa0.z````a0#W",
".2#RaV`k`2#N.z`M`n`````N`N`Naz.waSaSa2aWaq`Q.n.wa2`F.za6`0``aJ#W",
".2`X.r`2apaV`c.Q.z`````N`NaSaS.waw.waw`i`8`WadaQ`paJaSar`F``.u#W",
".2.I`G`b.A`k#E.G#F```N`N`N`N`N`Na2`0#hal#8aR###2#6`n.Pa2aEaQ#p#W",
"`X.2`Ma5.V.K#4.G.ja2```N`N`N.w.w.5`Z#3.#.S.M`O.t.L.1`U`Fa6a..b.2",
".2.2`M`5`5.V`5at.Saz`N`p.X#UaB.1#f`j`H#K#K#sa##6aa.8.Q.6#4aa#R.2",
".2.2#Da3.Q.u`1aoa7`d``#MaT.C.G#Jal.H`Rak.p#.aH.1a3`Pa5#y`Ba3`X.2",
"`X.2#z#J`K#Z`w`A..aS.w..`z#C.e.C.V#I`g`f`x#r.p#G`7.B.V.K.V`..2.2",
".r`D`X#CaT`l.Z.E#V`l.3aA`8aA`T#V.N#e.i#x#A.i#G#G#q`V.UaZa5a3`D.2",
".m#b#kaL.`#z.2.2#W`M.x`h`t.VaU#X.N`q#x#.#g#raH#G.Z`n.U`G.U`h#R.2",
"`#`#a`ag`D.2.2.2.2`Z#y`G`k`2#8`8aZ.T#.`L`S.E`Lac#.`7`taV.V.V`s`X",
".4`#`#.kauaC.2au.2au`k.t`2`kam#`.q`1.LaM#C.o`s.e`3`zaVa5`haOau.2",
".2.W`#`##HaC.2`X.2`X`k`k#7#7#SaJ#C`WaO#E`u.H#E`T#B.l`t`haN#4au.2",
".r.J#v`#`##caP.I.2.2`G#5`b`G#y`la#`P`h.6.hat#Z#I`w.0aJaa#Z#O`s.2",
".2aP#c`#`#`##i`2.r.I.v`ta5aC`t`S`v.Xa3#8.DaA#l.jaU`aaXab`YaT.I.2",
".2.2.2#b`#`#.f`e#j#b#w#N`h.A`B`.as#K`z#lavaX.j`a.M.n.j.G`qaM`X.2",
"`X.I`2#k#vanan`#`#.f`y`5aN`5a5#Eaoa1`z.3.j`n`7#M```A`q.o.Y`s.2.2",
".2`X#ja`anananan`#`E`y#E#E`S`T`8`..#ao`i.M#Ma2`Q.l#u`s.2#W.2au.2",
".2`X.W`#anan#van`#ax#waY#J#O#Uaw.1.5a8`p#M.z#V#z#W`D.2.2#R.2.I`X",
".2`X#d#H.f`#`#an`#ax#D`K#O`8`Y#P`mavaF.h`s#W#W.2.2.I`X.2.I`X.2.2",
".2.IaC.r#d.ma``#`#.W#DaqaTaTaT.c.Yau#W#W.2`X.2`X.2`X.I`X.2.2au.2",
"`X.2.2`XaCaP.d#ca`ax`X`C#u#w.I`D#W.2au.2au.2au.2au.2.2.I`X.2au.2",
".2au.2.2.I.2`XaP.d.R.I.2.2.2.2.2au.2.2au.2.I.2au.2au.2`X.I.2`X.2"
};
