/* XPM */
static char *bw_icon[] = {
/* columns rows colors chars-per-pixel */
"16 16 112 2",
"   c #000000",
".  c #010101",
"X  c #010102",
"o  c #020202",
"O  c #030303",
"+  c #040404",
"@  c #060606",
"#  c #060607",
"$  c #1B1B1C",
"%  c #333434",
"&  c #3C3C3D",
"*  c #414142",
"=  c #6F6D6A",
"-  c #6D6D6D",
";  c #6E6D6D",
":  c #706F6B",
">  c #716F6D",
",  c #74726E",
"<  c #737372",
"1  c #757472",
"2  c #787876",
"3  c #7C7975",
"4  c #7D7A76",
"5  c #7B7A79",
"6  c #808080",
"7  c #818181",
"8  c #828281",
"9  c #848482",
"0  c #878786",
"q  c #8D8A85",
"w  c #8A8A89",
"e  c #8C8C8B",
"r  c #8C8C8D",
"t  c #8D8C8C",
"y  c #908D88",
"u  c #949494",
"i  c #A6A29B",
"p  c #A6A39C",
"a  c #A1A1A0",
"s  c #A3A3A1",
"d  c #A7A6A4",
"f  c #A6A6A7",
"g  c #A8A7A5",
"h  c #AAAAA8",
"j  c #B1ADA6",
"k  c #B3AFA8",
"l  c #B3B0A8",
"z  c #B5B4B3",
"x  c #B6B5B3",
"c  c #BCB9B1",
"v  c #BFBBB3",
"b  c #BCBCBC",
"n  c #BDBDBD",
"m  c #BEBEBE",
"M  c #C0BCB5",
"N  c #C3BFB7",
"B  c #C2C1BE",
"V  c #C8C4BC",
"C  c #C0C1C1",
"Z  c #C7C6C3",
"A  c #C9C7C4",
"S  c #CECAC2",
"D  c #CFCBC2",
"F  c #CFCBC3",
"G  c #CECECF",
"H  c #D0CBC3",
"J  c #D0CCC3",
"K  c #D0CCC4",
"L  c #D1CCC4",
"P  c #D1CDC4",
"I  c #D1CDC5",
"U  c #D1CDC6",
"Y  c #D2CEC6",
"T  c #D3CFC6",
"R  c #D3CFC7",
"E  c #D4CFC7",
"W  c #D3CFC8",
"Q  c #D4D0C8",
"!  c #DAD6CD",
"~  c #DAD6CE",
"^  c #DCD7CF",
"/  c #DCD8CF",
"(  c #DCD8D0",
")  c #DED9D1",
"_  c #DFDAD2",
"`  c #DFDBD2",
"'  c #D9DADA",
"]  c #DFDDD9",
"[  c #DFDFE0",
"{  c #E0DBD3",
"}  c #E0DCD4",
"|  c #E1DCD4",
" . c #E2DED6",
".. c #E3DED6",
"X. c #E3DFD7",
"o. c #E4E0D8",
"O. c #E6E3DB",
"+. c #E5E2DE",
"@. c #E8E5DE",
"#. c #E9E5DE",
"$. c #E7E5E0",
"%. c #E9E6E1",
"&. c #E9E7E1",
"*. c #EAE7E1",
"=. c #ECE8E1",
"-. c #F9F9F9",
";. c #FAFAFA",
":. c #FBFBFB",
">. c #FCFCFC",
",. c #FDFDFD",
"<. c #FEFEFE",
"1. c gray100",
/* pixels */
"Q Q Q Q K K ! o.D K ..! K Q Q Q ",
"Q Q Q S } =.Z d 9 , 3 c } K Q Q ",
"Q Q F @.x & #   m <.C - y } K Q ",
"Q F @.t         m <.<.<.t q } K ",
"K } x     # #   b <.-.<.<.< l ( ",
"K $.*   O       b <.;.;.<.G , } ",
"! A #           b <.<.<.<.<.< V ",
"} g         O   b <.;.<.<.<.w l ",
"o.s         #   b <.;.<.<.<.w j ",
"^ Z             b <.;.<.<.<.2 N ",
"K +.%           b <.<.<.<.' = ( ",
"F o.a   + #     C <.;.;.<.6 i } ",
"Q F *.-     #   b <.<.<.f 3 { K ",
"Q Q K $.u $     b <.] 6 3 ( Q Q ",
"T Q Q K O.] h 6 9 5 = i } K T Q ",
"Q Q Q Q D Q o.*.v N { } K Q Q Q "
};
