/* XPM */
static char *camera_icon[] = {
/* columns rows colors chars-per-pixel */
"26 26 118 2",
"   c #000000",
".  c #000408",
"X  c #080708",
"o  c #090A0C",
"O  c #0B0F11",
"+  c #0F1316",
"@  c #111212",
"#  c #101518",
"$  c #161A1D",
"%  c #0B1924",
"&  c #121D25",
"*  c #191E22",
"=  c #13242F",
"-  c #1C2124",
";  c #1C242A",
":  c #102230",
">  c #172834",
",  c #192A35",
"<  c #1C2E3B",
"1  c #1F303D",
"2  c #232426",
"3  c #22262A",
"4  c #20282F",
"5  c #2B2C2C",
"6  c #252C32",
"7  c #22323D",
"8  c #2D3235",
"9  c #2C343A",
"0  c #323539",
"q  c #363B3F",
"w  c #3D3D3C",
"e  c #253542",
"r  c #2A3944",
"t  c #293D4A",
"y  c #333D44",
"u  c #343F48",
"i  c #34414A",
"p  c #39444D",
"a  c #324451",
"s  c #394751",
"d  c #3D4A53",
"f  c #3E4E59",
"g  c #3E515E",
"h  c #464645",
"j  c #44494D",
"k  c #4A4A4A",
"l  c #434B50",
"z  c #404E59",
"x  c #44525D",
"c  c #4D5256",
"v  c #4F585F",
"b  c #514F4C",
"n  c #515151",
"m  c #505158",
"M  c #55595B",
"N  c #5A5C5C",
"B  c #475660",
"V  c #485761",
"C  c #4A5964",
"Z  c #4E5D68",
"A  c #515D66",
"S  c #525F68",
"D  c #4F606D",
"F  c #54636D",
"G  c #5F6D77",
"H  c #5F6E78",
"J  c #605F5F",
"K  c #6C6D6C",
"L  c #646F76",
"P  c #606E78",
"I  c #696D70",
"U  c #667077",
"Y  c #6E7172",
"T  c #68737B",
"R  c #767674",
"E  c #787774",
"W  c #677581",
"Q  c #6C7983",
"!  c #74818B",
"~  c #7C858B",
"^  c #7B8A95",
"/  c #84827E",
"(  c #838284",
")  c #848989",
"_  c #8D8F8D",
"`  c #868D92",
"'  c #87959F",
"]  c #88919A",
"[  c #949594",
"{  c #979896",
"}  c #959898",
"|  c #999794",
" . c #9C9A95",
".. c #9D9D9A",
"X. c #9DA1A2",
"o. c #A8A59F",
"O. c #A4A6A4",
"+. c #ADAAA5",
"@. c #B6B3AE",
"#. c #B4B5B1",
"$. c #BAB6B0",
"%. c #BDBAB6",
"&. c #BEBFBB",
"*. c #C0BEB8",
"=. c #C4C2BC",
"-. c #C3C3C3",
";. c #C9C7C2",
":. c #CECAC3",
">. c #D3CFC7",
",. c #D3CFC8",
"<. c #D4D0C7",
"1. c #D4D0C8",
"2. c #DAD5CD",
"3. c #DCD8CF",
"4. c #DAD7D1",
"5. c #DEDAD1",
"6. c #DEDCD9",
"7. c #E1DCD3",
/* pixels */
"<.<.<.<.<.<.<.<.<.<.,.<.<.<.<.<.<.<.<.<.<.<.<.<.<.<.",
"<.<.<.<.<.<.<.<.<.<.,.>.,.<.<.<.<.<.<.<.<.<.<.<.<.<.",
"<.<.<.<.<.<.<.<.<.,.>.>.<.<.>.>.<.<.<.<.<.<.<.<.<.<.",
"<.<.<.<.<.<.<.,.,.>.2.3.3.1.1.<.<.<.<.<.<.<.<.<.<.<.",
"<.<.,.>.>.>.,.,.>.2.=.E M *.;.:.1.1.1.<.,.,.,.,.<.<.",
"<.<.>.2.7.>.,.>.3.[ 2 * L ' ^ X.<.1.>.>.,.,.,.,.<.<.",
"<.>.3.O.R >.>.2. .o # V W B V F #.2.2.2.,.>.>.>.<.<.",
">.<.:.h   J 5.7.h   ; B B C Z B ` 1.| [ -.2.7.1.>.<.",
">.2.=.k X m -.=.w   9 Z V x x V ~ =.5   5 M / %.1.>.",
">.1.1.=.{ %.( c 5   u Z V 3 $ Z A T -         N 4.>.",
",.,.>.>.3.3.| j 6 # d C V r y f t 1 . 2 0 X   b 7.>.",
",.1.>.2.@.A p F ! ! V V x F d & 1 r y @ ] 3   J 7.:.",
"1.>.2.*.q ; T Q P P V V C V y % 1 e 4 X c -   Y 6.:.",
",.,.1.b O l Q f x x x C p 7 g F i 1 j 2       I 5.>.",
">.3.+.o O L Z x V C V V ; i G z r 7 =.$.K 5   I 5.>.",
">.5...  - T x V d 5 x u * F , = , 7 $.7.7.2./ _ 2.>.",
">.3. .  2 S x C 6 o x 4 2 d : 1 , 7 =.1.>.>.5.2.>.1.",
">.2.@.o @ f V x p s Z # 8 x > , : ) 2.>.>.>.>.>.1.1.",
">.>.3./ O i C V V C p   - e % i } 2.>.>.1.1.>.>.1.1.",
",.,.>.7...j s x f V o. .R ~ ..=.5.1.>.1.1.1.1.1.1.1.",
",.,.,.>.3.=...+...=.2.3.7.3.5.1.>.1.1.1.1.1.1.1.>.1.",
",.,.,.,.>.1.3.2.2.2.1.>.=.>.1.1.>.1.>.1.>.1.1.1.1.1.",
",.,.,.,.,.>.>.>.1.1.1.1.2.1.1.1.>.1.1.1.1.1.>.1.1.1.",
",.1.,.,.,.,.>.>.1.1.1.1.1.1.1.1.1.1.1.>.1.1.1.1.1.1.",
"1.1.1.,.1.,.1.1.1.1.,.1.1.1.1.1.1.>.1.1.1.>.1.1.1.1.",
"1.,.1.1.1.,.1.,.,.1.,.1.1.1.1.1.1.1.1.1.1.1.1.1.1.>."
};
