/* XPM */
static char *clear_all_icon[] = {
/* columns rows colors chars-per-pixel */
"32 32 256 2",
"   c #020202",
".  c #070708",
"X  c #0B0B0B",
"o  c #00091C",
"O  c #100F0F",
"+  c #111110",
"@  c #1C1C1C",
"#  c #02002E",
"$  c #000032",
"%  c #0F0B37",
"&  c #001326",
"*  c #001B38",
"=  c #001B33",
"-  c #100A22",
";  c #120C3E",
":  c #141D2A",
">  c #01253F",
",  c #211E3B",
"<  c #21201F",
"1  c #242424",
"2  c #272728",
"3  c #2B2B2B",
"4  c #2F3031",
"5  c #323232",
"6  c #3C3C3C",
"7  c #1F196E",
"8  c #022844",
"9  c #002C4B",
"0  c #082841",
"q  c #002342",
"w  c #002F50",
"e  c #003154",
"r  c #00365C",
"t  c #03385E",
"y  c #1B3C53",
"u  c #003462",
"i  c #003962",
"p  c #003E6A",
"a  c #241C6F",
"s  c #261968",
"d  c #271F71",
"f  c #2D264D",
"g  c #243E51",
"h  c #342C5E",
"j  c #353149",
"k  c #3B365E",
"l  c #3A3454",
"z  c #2D256C",
"x  c #2C2671",
"c  c #2E2972",
"v  c #332668",
"b  c #342E73",
"n  c #372675",
"m  c #393473",
"M  c #3E3A75",
"N  c #02406D",
"B  c #004475",
"V  c #004579",
"C  c #01497C",
"Z  c #394A56",
"A  c #27465C",
"S  c #2F546D",
"D  c #28587A",
"F  c #40366E",
"G  c #453D6F",
"H  c #413D76",
"J  c #463A77",
"K  c #4C4D03",
"L  c #5A5A02",
"P  c #47453C",
"I  c #56553D",
"U  c #6A6A0D",
"Y  c #6E6E10",
"T  c #767400",
"R  c #71700F",
"E  c #434242",
"W  c #4D4D4C",
"Q  c #494758",
"!  c #4F4E52",
"~  c #4C4959",
"^  c #414150",
"/  c #524E59",
"(  c #52514E",
")  c #5E5D44",
"_  c #535352",
"`  c #54535D",
"'  c #5B5B5B",
"]  c #5D5D53",
"[  c #454178",
"{  c #4C4272",
"}  c #4B4579",
"|  c #4E4877",
" . c #4D4A7A",
".. c #454176",
"X. c #524C7B",
"o. c #5A4F76",
"O. c #534A78",
"+. c #5C5A6B",
"@. c #55527C",
"#. c #5B5376",
"$. c #59547E",
"%. c #485C68",
"&. c #615D7D",
"*. c #645D77",
"=. c #65635C",
"-. c #646463",
";. c #6B6B6B",
":. c #696763",
">. c #69687D",
",. c #716F6C",
"<. c #746F7D",
"1. c #75736F",
"2. c #757574",
"3. c #7C7A75",
"4. c #7D7D7C",
"5. c #014D84",
"6. c #004F89",
"7. c #025188",
"8. c #005593",
"9. c #00579B",
"0. c #035D9D",
"q. c #065A97",
"w. c #08609C",
"e. c #11649D",
"r. c #0061AB",
"t. c #0561A2",
"y. c #096CB1",
"u. c #0E71B6",
"i. c #0972BC",
"p. c #295F85",
"a. c #376B8E",
"s. c #0074C5",
"d. c #0E7AC3",
"f. c #137FCA",
"g. c #494480",
"h. c #504483",
"j. c #564891",
"k. c #4E6E83",
"l. c #557A91",
"z. c #615C80",
"x. c #675E93",
"c. c #666282",
"v. c #6D6B83",
"b. c #69648A",
"n. c #726B86",
"m. c #737284",
"M. c #787786",
"N. c #7B7B86",
"B. c #7D7A89",
"V. c #797490",
"C. c #746998",
"Z. c #188EDD",
"A. c #148BDA",
"S. c #058DE9",
"D. c #0A94F2",
"F. c #0797F6",
"G. c #1393EA",
"H. c #1F96E8",
"J. c #3292D4",
"K. c #5E8EAE",
"L. c #5286A9",
"P. c #7E8A8F",
"I. c #798D97",
"U. c #46A0DD",
"Y. c #72A8CC",
"T. c #807E7B",
"R. c #8D8E00",
"E. c #949400",
"W. c #9A9B00",
"Q. c #85837E",
"!. c #88877E",
"~. c #BFC000",
"^. c #C9C700",
"/. c #DFDF00",
"(. c #E6E700",
"). c #E9EA00",
"_. c #F7F700",
"`. c #FEFE00",
"'. c #858585",
"]. c #85828A",
"[. c #8A8681",
"{. c #8C8A84",
"}. c #888989",
"|. c #8F918C",
" X c #928C84",
".X c #94948D",
"XX c #97988E",
"oX c #99968F",
"OX c #999A8E",
"+X c #949494",
"@X c #9A9998",
"#X c #969897",
"$X c #8980A2",
"%X c #968DA9",
"&X c #84A9BF",
"*X c #A09C95",
"=X c #A09E9A",
"-X c #A29CAF",
";X c #A9A59E",
":X c #ACAA9C",
">X c #A2A395",
",X c #B3AC9F",
"<X c #AEAAA3",
"1X c #ACACAC",
"2X c #A8A5A7",
"3X c #AAA2B3",
"4X c #A8B0B3",
"5X c #B1ADA6",
"6X c #B1AEA8",
"7X c #B2ACB8",
"8X c #B4B2A4",
"9X c #B5B2AB",
"0X c #BCB4A9",
"qX c #BCB9AB",
"wX c #B4B4B4",
"eX c #B5B1BB",
"rX c #BAB5BC",
"tX c #BDBAB3",
"yX c #BBBCBC",
"uX c #BAB7B0",
"iX c #96B7CA",
"pX c #95BBD2",
"aX c #B8B0C2",
"sX c #B6C1C6",
"dX c #C1B8AD",
"fX c #C2BEB6",
"gX c #C7C0B6",
"hX c #C3C1BB",
"jX c #C9C5BE",
"kX c #CECBBE",
"lX c #D1C8BC",
"zX c #C7C7C7",
"xX c #CBC7C0",
"cX c #CECAC3",
"vX c #CDCDCD",
"bX c #D2CEC6",
"nX c #D3CFC8",
"mX c #D4D0C7",
"MX c #D4D0C8",
"NX c #DAD6CC",
"BX c #DEDACC",
"VX c #DDD2C6",
"CX c #D2D2D2",
"ZX c #DAD6D2",
"AX c #DDDAD2",
"SX c #DBDBDB",
"DX c #E0DDCD",
"FX c #E2DED5",
"GX c #E0DED9",
"HX c #E4E0D7",
"JX c #E6E2DA",
"KX c #E8E4DB",
"LX c #E6E5E3",
"PX c #EBEAEA",
"IX c #FDFDFD",
"UX c #F4F4F4",
/* pixels */
"mXmXmXNXNXNXNXBXNXNXBXBXNXNXNXBXNXNXbXbXNXNXsXiXpXsXbXVXmXbXnXnX",
"mXmXbXeXeXeXeXeXeXeXeXeXeXeXeXeXeXrXmXNXhXl.e.s.S.H.U.iXmXbXnXnX",
"bXZX=.L U U U U U U U Y U U U U Y K [.hXy u t.u.S.F.D.G.Y.gXnXnX",
"bXZXI ).`.`.`.`.`.`.`.`.`.`.`.`.`.~.! Z * t w.u.A.D.F.D.G.iXlXmX",
"bXGX) (.`._._._._._._._._._._._.`.^.: 0 8 w 5.y.A.Z.G.F.D.J.6XcX",
"mXaXP ).`.`.`.`.`.`.`.`.`.`.`.`.`.^.o 9 e 9 i 5.q.u.d.d.s.i.#XfX",
"DXj.- R.E.W.W.W.W.E.R.E.E.E.E.E.W.T & e r e e t p V 5.6.8.8.I.0X",
"DXx.+.^ % $ $ ; j / ` ` Q Q ~ ~ Q ~ y i N p r e w e i p p p N.5X",
"DXC.O.{.;.k +.k h h #.].:X,X;X;X;X8Xk.V 5.V p i e 9 9 9 q > T.5X",
"NX$Xz ..M M  XOX>.z { z n -XkXjXjXlX4Xq.8.5.V p t e 9 q = Z !.0X",
"BX%X$.}.X.7 H c.$.@.>XXXm V.cXbXmXnXbXK.r.9.5.V p r w q g 2.oXfX",
"DX%X#.>XB.H M. .b x v.XXO.&.qXcXnXmXnXgXL.r.9.5.B r w A 1.Q.5XcX",
"BX-Xx z.v.[ OXXXv.b ..H a #.8XbXnXmXnXbXdXI.a.p.D S %.3.[.;XjXbX",
"BX3XH z.c x N.+Xm. .OXP.b #.8XcXnXnXmXbXbXdX0X;X*X!. XoX6XjXbXbX",
"BX7X@.OXM.x M [  . .XXXXO.o.8XcXbXbXbXcXbXZX=.E E 9XtXfXxXbXmXmX",
"NXrXX.OXN.[ .Xv.m a $..XO.G 8XcXmXVXFXKXJXT.2.T.4.,.NXKXGXNXbXmX",
"nXbXh.| c.[ .X.XM.m @.M x { ,XcXMX9X:._ ! . -.P.1.X ( :.:.2XbXnX",
"bXnXfXn.d d M.XXm...OX].M { :XxXNX! 5 _ 4.|.2.! W W 1     6 jXnX",
"bXnXcXqXoX*.z J b.g.#XoX&.F :XxXMX1 4 ' 2.4.2.-.' E 5 @ + X gXNX",
"nXbXZXLXGXAXcXf # , E {.z.F :XxXMX[.X < ' 3 < X X X . .   ;.cXmX",
"nXbXGXIXIXIXIX4       l { H ;XxXmXGX1 4.UXCXyX1X'.}.' E + bXNXbX",
"nXbXGXIXIXIXIX5   .   j s F >XlXmXmX< }.PXCXSX2X1X2.2.6 X fXNXbX",
"mXbXGXIXIXIXIX5   .   ] Q.<.;XxXmXMX< ].PX9XvX' +X3 -.1 . fXMXbX",
"bXmXcXyXyXyXyX' 6 E 6 1.2X8XuXcXmXNX< }.PXrXCX;.+X6 ;.3 . fXNXbX",
"bXFXQ.        zXIXIXIX=X<XbXbXbXnXnX< P.PXwXCX;.#X5 :.2 X fXNXbX",
"bXFX[.  .     vXIXIXIX=X<XbXMXmXnXmX< }.PXwXCX;.#X6 ;.3 . fXNXbX",
"cXFX[.        vXIXIXIX=X<XbXmXbXmXnX< }.PXwXvX' +X3 -.2 . fXNXvX",
"bXAX{.  . .   zXIXUXIX@X<XbXbXmXnXNX1 }.PXZXSXwX1X'.2.E + tXNXbX",
"mXmXxX*X3.1.1.Q.!.[.[. X0XnXnXnXnXVX1 2.LXIXMXCX].'.,.6 X fXNXbX",
"mXmXmXgX5X<X<X2X;X;X2X5XhXnXnXnXnXnX.X1 4 6 3 2 X . X   T.bXmXbX",
"mXmXnXbXxXbXbXkXbXbXbXbXbXnXnXnXbXbXFX|.3.3.T.T.Q.[.Q.{.ZXNXbXbX",
"mXmXnXnXnXnXnXnXnXnXbXnXnXnXnXbXbXbXbXFXKXHXHXJXHXGXGXFXbXbXmXMX"
};
