/* XPM */
static char *color_icon[] = {
/* columns rows colors chars-per-pixel */
"32 32 242 2",
"   c #0000FF",
".  c #0001FF",
"X  c #0100FF",
"o  c #0002FF",
"O  c #0003FF",
"+  c #0200FF",
"@  c #0300FF",
"#  c #0004FF",
"$  c #0005FF",
"%  c #0400FF",
"&  c #000AFF",
"*  c #000BFF",
"=  c #0C01FF",
"-  c #0E00FF",
";  c #0F00FE",
":  c #0012FF",
">  c #0311FF",
",  c #001CFF",
"<  c #0034FF",
"1  c #2600FF",
"2  c #2B00FF",
"3  c #3300FF",
"4  c #3600FF",
"5  c #0055FF",
"6  c #0083FF",
"7  c #0099FF",
"8  c #1B9EFF",
"9  c #00A4FF",
"0  c #00ADFF",
"q  c #01B1FF",
"w  c #00D5FF",
"e  c #00E1FF",
"r  c #00E2FF",
"t  c #00E7FF",
"y  c #01EAFF",
"u  c #00FAFF",
"i  c #00FBFF",
"p  c #01FBFF",
"a  c #00FCFF",
"s  c #00FDFF",
"d  c #00FEFF",
"f  c #00FFFF",
"g  c #01FFFF",
"h  c #03FDFF",
"j  c #02FFFF",
"k  c #03FEFF",
"l  c #03FFFF",
"z  c #04FFFF",
"x  c #05FFFF",
"c  c #0EFFFF",
"v  c #0FFFFF",
"b  c #19EAFF",
"n  c #16FFFF",
"m  c #1BFFFF",
"M  c #45FFFF",
"N  c #49FFFF",
"B  c #57FFFF",
"V  c #58FEFF",
"C  c #5CFFFF",
"Z  c #5DFFFF",
"A  c #5FFFFF",
"S  c #6FFFFF",
"D  c #70FFFF",
"F  c #71FFFF",
"G  c #FF0000",
"H  c #FF0001",
"J  c #FF0100",
"K  c #FF0002",
"L  c #FF0003",
"P  c #FF0300",
"I  c #FF0004",
"U  c #FF0400",
"Y  c #FF0500",
"T  c #FE000F",
"R  c #FF030C",
"E  c #FF040E",
"W  c #FF1900",
"Q  c #FF0026",
"!  c #FF002B",
"~  c #FF0033",
"^  c #FF0036",
"/  c #FF2400",
"(  c #FF2B00",
")  c #FF4203",
"_  c #FF5300",
"`  c #FF5A00",
"'  c #FF7C00",
"]  c #8D00FF",
"[  c #FF008D",
"{  c #C900FE",
"}  c #D400FF",
"|  c #D401FF",
" . c #D900FF",
".. c #D934FF",
"X. c #FE00C9",
"o. c #FF00D4",
"O. c #E400FF",
"+. c #E402FF",
"@. c #FF02E4",
"#. c #FF03E4",
"$. c #F100FE",
"%. c #F300FE",
"&. c #FE00F1",
"*. c #FE00F3",
"=. c #FB00FE",
"-. c #FE00FB",
";. c #FC00FC",
":. c #FC00FF",
">. c #FD00FE",
",. c #FD00FF",
"<. c #FE00FD",
"1. c #FF00FC",
"2. c #FF00FD",
"3. c #FE00FF",
"4. c #FF00FE",
"5. c #FF00FF",
"6. c #FF01FF",
"7. c #FE02FF",
"8. c #FF03FE",
"9. c #FF03FF",
"0. c #FD04FF",
"q. c #FF04FC",
"w. c #FF04FF",
"e. c #FF05FF",
"r. c #FF09FF",
"t. c #FC1AFF",
"y. c #FF1BFF",
"u. c #FF25FF",
"i. c #FF2DFF",
"p. c #FF53D9",
"a. c #FF53FC",
"s. c #FF5BFF",
"d. c #FD7FFF",
"f. c #FF8000",
"g. c #FF9703",
"h. c #FF9C00",
"j. c #FFBC00",
"k. c #FFCC00",
"l. c #FFD800",
"z. c #FFE500",
"x. c #FFF000",
"c. c #FFF100",
"v. c #FFFB00",
"b. c #FFFB03",
"n. c #FFFC00",
"m. c #FFFD00",
"M. c #FFFC03",
"N. c #FFFE00",
"B. c #FFFF00",
"V. c #FFFF01",
"C. c #FFFE03",
"Z. c #FFFF02",
"A. c #FFFF03",
"S. c #FFFF04",
"D. c #FFFF05",
"F. c #FFFF0E",
"G. c #FFFF0F",
"H. c #FFFF16",
"J. c #FFFF19",
"K. c #FFFF1B",
"L. c #FFFF45",
"P. c #FFFF49",
"I. c #FFFC57",
"U. c #FFFF57",
"Y. c #FFFA58",
"T. c #FFFF5C",
"R. c #FFFF5D",
"E. c #FFFF5F",
"W. c #FFFF6F",
"Q. c #FFFF70",
"!. c #FFFF71",
"~. c #84FFFF",
"^. c #86FFFF",
"/. c #91FFFF",
"(. c #92FFFF",
"). c #A6FFFF",
"_. c #A7FFFF",
"`. c #BAFFFF",
"'. c #FF81FE",
"]. c #FE82FF",
"[. c #FFAED9",
"{. c #FFA2FF",
"}. c #FFABFF",
"|. c #F1BFFF",
" X c #FFFF84",
".X c #FFFF86",
"XX c #FFFF91",
"oX c #FFFF92",
"OX c #FFFFA6",
"+X c #FFFFA7",
"@X c #FFFFBA",
"#X c #C1FBFF",
"$X c #C3FDFF",
"%X c #C9FFFF",
"&X c #CAFFFF",
"*X c #D3FFFF",
"=X c #D5FFFF",
"-X c #FFCDFD",
";X c #FFD3FF",
":X c #FFDAFF",
">X c #FFFFC1",
",X c #FFFEC3",
"<X c #FFFFC9",
"1X c #FFFFCA",
"2X c #FFFFD3",
"3X c #FFFFD5",
"4X c #EDFFFF",
"5X c #FFE0FF",
"6X c #FDE6FF",
"7X c #FFE6FF",
"8X c #FFFFED",
"9X c #F1FFFF",
"0X c #FFF1FF",
"qX c #FFF2FF",
"wX c #FFFEF1",
"eX c #FFFFF1",
"rX c #FAFFFF",
"tX c #FBFFFF",
"yX c #FCFBFF",
"uX c #FFFBFC",
"iX c #FEFBFF",
"pX c #FFFBFF",
"aX c #FFFFFA",
"sX c #FFFFFB",
"dX c #FCFEFF",
"fX c #FCFFFF",
"gX c #FDFFFF",
"hX c #FFFCFD",
"jX c #FFFDFC",
"kX c #FEFDFF",
"lX c #FFFCFE",
"zX c #FFFCFF",
"xX c #FFFDFF",
"cX c #FFFEFC",
"vX c #FFFFFC",
"bX c #FFFFFD",
"nX c #FEFEFF",
"mX c #FEFFFF",
"MX c #FFFEFE",
"NX c #FFFEFF",
"BX c #FFFFFE",
"VX c gray100",
/* pixels */
"VXVXVXVXVXrXVXVXrXrXVXVXVXrXVXVXVXVXVXVXVXVXVXVXVXVXVXVXVXVXVXVX",
"VXVXVXVXVXVX%X~.S V S ).4XVXrXVXVXVXVXVXVXVXVXVXVXVXVXVXVXVXVXVX",
"VXVXrXVX=XN f f f f f f n /.VXVXVXVXVXVXVXVXVXVXVXVXVXVXVXVXVXVX",
"VXVXVX`.c f f f x f x x f f Z VXVXVXVXVXVXVXVXVXVXVXVXVXVXVXVXVX",
"VXVX*Xn f x f f f f f f f x f F VXrXVXVXVXVXVXVXVXVXVXVXVXVXVXVX",
"VXVXN f x f f f f f f f f f f u #XyXVXVXVXVXVXVXVXVXVXVXVXVXVXVX",
"VX%Xf f f f f f f f f f u f x f V VXVXyXVXVXVXVXVXVXVXVXVXVXVXVX",
"VX~.f f f f f f f f u f f e q 7 8 |.0XVXyXVXVXVXVXVXVXVXVXVXVXVX",
"VXZ f f f f f f f f f w 5 *        .t.d.0XVXVXVXVXVXVXVXVXVXVXVX",
"VXB f x f f f f u f 9 &     $ $ $ | 4.4.i.:XVXVXVXVXVXVXVXVXVXVX",
"VXF f x f f f u f 0             ; O.4.q.4.u.7XVXVXVXVXVXVXVXVXVX",
"VX_.f f f f f f y ,             4 4.4.4.q.4.s.VXyXVXVXVXVXVXVXVX",
"VX4Xm f f f u f 6   $       %   ] 4.4.4.4.4.q.-XVXyXVXVXVXVXVXVX",
"VXVX/.f x f f f <         %   2 %.4.4.4.4.q.4.'.VXuXjXVXVXVXVXVX",
"VXVXVXV f x f y :       %   ; { 4.;.4.4.4.@.o.p.8XyXVXVXVXVXVXVX",
"VXVXVXrXF f f e $         2 { 4.;.4.&.[ ~ R G ) J.I.>XVXVXVXVXVX",
"VXVXVXVXVX%XB b :   ; 2 ] $.4.;.4.X.Q G G P G _ Z.Z.Z.W.jXVXVXVX",
"VXVXVXVXrXVXVX9X..| +.;.4.4.;.4.X.T G G G P G f.Z.b.Z.Z.T.VXVXVX",
"VXVXVXVXVXrXyXVX].4.q.4.;.;.4.&.! G I G G G G k.Z.b.Z.Z.Z.XXVXjX",
"VXVXVXVXVXVXVXVX6Xt.;.4.4.4.4.[ G I G G P G ` Z.Z.Z.Z.Z.Z.H.8XVX",
"VXVXVXVXVXVXVXyXVX}.4.4.4.4.4.^ G G G P G / z.Z.Z.Z.Z.Z.Z.Z.OXVX",
"VXVXVXVXVXVXVXVXVXVX{.r.4.4.@.E P G G G ( l.Z.Z.Z.Z.Z.Z.Z.Z.W.VX",
"VXVXVXVXVXVXVXVXVXyXVX;Xa.r.o.G G G W ' c.Z.Z.Z.Z.Z.Z.Z.Z.Z.I.VX",
"VXVXVXVXVXVXVXVXVXVXVXVXVX5X[.g.h.j.c.Z.Z.Z.Z.Z.Z.Z.Z.Z.Z.Z.E.VX",
"VXVXVXVXVXVXVXVXVXVXVXVXVXVXwXK.Z.Z.Z.Z.Z.Z.Z.Z.Z.Z.Z.Z.Z.Z. XVX",
"VXVXVXVXVXVXVXVXVXVXVXVXVXuXVXY.b.b.Z.Z.Z.Z.Z.Z.Z.Z.Z.Z.Z.Z.<XVX",
"VXVXVXVXVXVXVXVXVXVXVXVXVXjXVX@XZ.Z.Z.Z.Z.Z.Z.Z.Z.Z.Z.Z.Z.L.VXVX",
"VXVXVXVXVXVXVXVXVXVXVXVXVXVXjXVXW.Z.Z.Z.Z.Z.Z.Z.Z.Z.Z.Z.F.2XVXjX",
"VXVXVXVXVXVXVXVXVXVXVXVXVXVXjXVXjXT.Z.Z.Z.Z.Z.Z.Z.Z.Z.F.@XVXjXVX",
"VXVXVXVXVXVXVXVXVXVXVXVXVXVXVXVXVXVXXXH.Z.Z.Z.Z.Z.Z.L.2XVXVXVXVX",
"VXVXVXVXVXVXVXVXVXVXVXVXVXVXVXVXVXjXVX8XOXW.I.E. X<XVXVXVXVXVXVX",
"VXVXVXVXVXVXVXVXVXVXVXVXVXVXVXVXVXVXjXVXVXVXVXVXVXVXjXjXVXVXVXVX"
};
