/* XPM */
static char *createPlane_icon[] = {
/* columns rows colors chars-per-pixel */
"32 32 256 2",
"   c #030001",
".  c #080B0D",
"X  c #150506",
"o  c #150F0C",
"O  c #1D140B",
"+  c #092B17",
"@  c #20150F",
"#  c #201C18",
"$  c #3A1713",
"%  c #24102B",
"&  c #33292A",
"*  c #383B2F",
"=  c #1E004D",
"-  c #140369",
";  c #1A0C6C",
":  c #18066B",
">  c #1F106C",
",  c #1C346C",
"<  c #2C0F5B",
"1  c #240955",
"2  c #371558",
"3  c #200E6D",
"4  c #230B62",
"5  c #261062",
"6  c #24156E",
"7  c #26186E",
"8  c #281B6F",
"9  c #291467",
"0  c #2B1D70",
"q  c #2B216D",
"w  c #22286A",
"e  c #2E2271",
"r  c #29257A",
"t  c #233A6F",
"y  c #34286F",
"u  c #322572",
"i  c #352B73",
"p  c #392071",
"a  c #3A2C75",
"s  c #3B2B7D",
"d  c #322278",
"f  c #393064",
"g  c #3C3274",
"h  c #3D337C",
"j  c #077110",
"k  c #3F4338",
"l  c #236834",
"z  c #451D12",
"x  c #472F1A",
"c  c #462519",
"v  c #5F311C",
"b  c #5F3B25",
"n  c #67391E",
"m  c #673A2C",
"M  c #773820",
"N  c #411B47",
"B  c #583043",
"V  c #413675",
"C  c #423B75",
"Z  c #453C7B",
"A  c #483D78",
"S  c #42317A",
"D  c #6F4526",
"F  c #7D4A37",
"G  c #46427A",
"H  c #4C4677",
"J  c #4C437B",
"K  c #51477B",
"L  c #534B7B",
"P  c #56507C",
"I  c #5C547E",
"U  c #5D587F",
"Y  c #43687C",
"T  c #605A7F",
"R  c #696754",
"E  c #6A6B54",
"W  c #75705E",
"Q  c #65627E",
"!  c #6B677F",
"~  c #7C7D69",
"^  c #3F3180",
"/  c #423381",
"(  c #453981",
")  c #4B3B82",
"_  c #443588",
"`  c #4D4283",
"'  c #524B85",
"]  c #584E89",
"[  c #5D538F",
"{  c #645D80",
"}  c #60588B",
"|  c #665992",
" . c #676381",
".. c #6A6582",
"X. c #6E6A81",
"o. c #726D84",
"O. c #706683",
"+. c #757284",
"@. c #797685",
"#. c #7D7A86",
"$. c #7F7F89",
"%. c #138D21",
"&. c #168923",
"*. c #5FB467",
"=. c #53BC62",
"-. c #70966A",
";. c #7BBA7F",
":. c #4DDE68",
">. c #53DC6C",
",. c #4DE069",
"<. c #54E76B",
"1. c #59E371",
"2. c #51FA75",
"3. c #58FF7F",
"4. c #74E47F",
"5. c #7E8089",
"6. c #7DBF81",
"7. c #63F780",
"8. c #65FA83",
"9. c #67FF89",
"0. c #6BF483",
"q. c #6FF58A",
"w. c #69FF8A",
"e. c #6BF884",
"r. c #6AFF90",
"t. c #7CE585",
"y. c #72F58D",
"u. c #7BF28D",
"i. c #72FD88",
"p. c #974E27",
"a. c #9F4E20",
"s. c #9A4F2C",
"d. c #91572B",
"f. c #985C2F",
"g. c #915B2C",
"h. c #965A33",
"j. c #A75A27",
"k. c #AF5E2B",
"l. c #A5582A",
"z. c #B16730",
"x. c #834841",
"c. c #AD7A48",
"v. c #C57835",
"b. c #807D86",
"n. c #827F88",
"m. c #887EA4",
"M. c #819776",
"N. c #819877",
"B. c #839879",
"V. c #98997D",
"C. c #A68C69",
"Z. c #B5A17F",
"A. c #848487",
"S. c #858388",
"D. c #888789",
"F. c #8D8C8B",
"G. c #908F8C",
"H. c #94948D",
"J. c #97988E",
"K. c #98978D",
"L. c #999A8E",
"P. c #9D9E90",
"I. c #8D83A7",
"U. c #9187A7",
"Y. c #9086A8",
"T. c #958CAA",
"R. c #9B91AC",
"E. c #9B90A5",
"W. c #9FA090",
"Q. c #A29F84",
"!. c #A69EB2",
"~. c #ABAC86",
"^. c #A3A883",
"/. c #A3A491",
"(. c #A4A992",
"). c #AEB38B",
"_. c #B2AA86",
"`. c #B3AD8B",
"'. c #BBAC89",
"]. c #BFAD93",
"[. c #B2B48F",
"{. c #B8B18F",
"}. c #B5B591",
"|. c #BAB594",
" X c #BFB298",
".X c #BBB896",
"XX c #BDBC9A",
"oX c #AEA6B5",
"OX c #AFAAB6",
"+X c #ADBAA3",
"@X c #BEADBF",
"#X c #B4ACB9",
"$X c #BCBCAF",
"%X c #B5B7A9",
"&X c #B7B1B9",
"*X c #8ED58A",
"=X c #90D086",
"-X c #80EE8D",
";X c #8DED9E",
":X c #81FF99",
">X c #88F89A",
",X c #86F595",
"<X c #90FF9C",
"1X c #95F6A5",
"2X c #A8C08D",
"3X c #BEC09D",
"4X c #A7DFA1",
"5X c #ADDEAF",
"6X c #B7CEA4",
"7X c #B5D4A6",
"8X c #BED6A1",
"9X c #A7E0AD",
"0X c #A9E1AF",
"qX c #A3E5A0",
"wX c #ADE5B2",
"eX c #C4BEA4",
"rX c #C9BCA5",
"tX c #C3BEBE",
"yX c #D0B8A7",
"uX c #C4BFC0",
"iX c #C5C29D",
"pX c #C9C99F",
"aX c #CAC7A1",
"sX c #CBCEA3",
"dX c #CDCFB2",
"fX c #C6C6B7",
"gX c #C3D6BD",
"hX c #CED3B6",
"jX c #CADFBD",
"kX c #C3DAB4",
"lX c #D4CDB6",
"zX c #D2D4B5",
"xX c #D3D8B7",
"cX c #DAD3BC",
"vX c #D4C6A9",
"bX c #CDC9C5",
"nX c #CAC5C3",
"mX c #C6D5C0",
"MX c #CCD3C3",
"NX c #D2CEC7",
"BX c #D5CFC8",
"VX c #DBCFC0",
"CX c #DBCCCC",
"ZX c #D3D0C7",
"AX c #D4D0C8",
"SX c #DAD3CC",
"DX c #DEDFC0",
"FX c #DEDBCC",
"GX c #E3CBC0",
"HX c #E0D2C5",
"JX c #E1D4CE",
"KX c #E0DDCD",
"LX c #E2DBD3",
"PX c #E6E3C3",
"IX c #EBE1C6",
"UX c #FAEFDD",
/* pixels */
"AXAXNXAXAXNXAXAXNXbXMXCXCXCXCXNXNXZXZXNXAXNXAXAXAXAXAXAXAXAXAXAX",
"AXAXAXAXAXAXAXNXBX,X8.y.;XwXmXAXCXCXAXNXNXNXNXAXNXAXAXNXNXAXAXAX",
"NXAXAXAXAXAXAXZXCXy.0.4X-X0.8.y.;XwXmXNXCXCXCXNXNXNXZXZXAXAXNXAX",
"AXAXNXNXZXNXNXZXCXy.u.GXlXdX7XqXt.1.7.:X1X9XmXNXCXCXSXZXZXZXNXAX",
"bXbXFXFXSXZXNXNXCXy.u.cXhXzXcXrX& . + l =.i.7.y.;X0XmXAXCXCXNXZX",
"R.d [ m.#XNXFXFXJXy.u.cXhXzXzX* X c $ X   R 8X*Xt.7.8.q.;X0XSXSX",
"T.C X.g 0 h [ U.@Xq.,XIXzXDX~   h.k.l.p.v   W vX X.X).*Xt.8.*.%X",
"R.H /.H.D.A.C > g t Y E.$XPXE @ h.f.z.j.j.M o ^.iX|.|.].`.w.&.-.",
"oXG G.F.F.P...G L.O.a i 8 ) f % F m h.z.d.p.c k aX|.|.}.[.9.%.B.",
"oXL P.H.F.H.T i H.H.L.K.F.C ; h 9 1 2 d.m D n # }.XX}.{.[.9.&.-.",
"&Xd L @.F./.X.a H.F.F.F.L.U a L.5...h 8 4 2 B @ V.iX{.|.[.w.&.B.",
"fXZ K i e I I V /.H.F.F.K.L u H.H.J.K.F.S.r 5 x L.iX}.|.[.w.%.B.",
"uX` K.G.@.K 8 6 L @.F.L.L.I 8 H.F.F.F.F.W.G < l.'.XX|.|.[.w.%.B.",
"nX( b.G.H.W.@.0 J e 8 L F.T i L.F.F.F.F.K.g < a.Z.iX|.|.}.9.%.M.",
"AX' D.G.D.G.@.i L.F.o.A 8 6 6 n.K.L.J.F.H.h < c.'.XX.X|.[.w.%.M.",
"AX( X.L.L.K.o.8 F.F.H.K.F.L : 8 u H o.J./.C u sXXX.X.X.X[.9.%.M.",
"SX` q g I H.D.i F.F.F.F.P...q F.U g 6 q  .a i iX.X.X.X}.[.9.%.-.",
"ZX' @.o.g a H e H.L.F.F.H.{ 8 H.L.L.D.U i - S aX|..X}.{.[.9.&.B.",
"FX] X.P.H.S.J ; g o.K.H.J.{ 7 G.G.F.G.H./.C < _.XX}.}.{.[.w.&.B.",
"FX[ +.P.D.G.H.i P a e ' H.@.8 F.G.F.F.F.L.J = C..X{.{.{.~.w.%.B.",
"FX| C D.J.K.S.0 D.K.o.g e a 8 K.L.G.F.F.L.a p KXeX`.{.`.~.9.%.M.",
"ZXZXI.Z C @.J.d +.H.H.K.#.A - a ..F.L.G.L.y _ UXVXeX_._.~.9.%.M.",
"AXAXFXAXI.( H 8 S.L.F.D.K.S.q ] i 7 C n.(.J , <XjXHXrX_.~.9.%.M.",
"AXAXNXAXIXAXI.s C @.L.H.K.! > G.K.@.a 7 J i w <.2.>XkXyX~.9.%.M.",
"AXAXAXNXNXAXFXAXI.( u O./.#.> S.G.H.K.S.K - / dX6.:.2.;X6Xw.&.B.",
"AXAXAXAXNXNXNXAXFXAXI.h C Q q F.G.F.F.G./.C ^ LXCXtX6.:.2.r.&.N.",
"AXAXAXAXAXAXAXAXNXNXFXAXI./ - Q P.K.F.F.P.C ^ SXbXSXSX6X6.>.j B.",
"AXAXAXNXAXAXAXAXAXAXNXAXFXZXR.( a ..F.K.K.V s FXZXZXZXCXSX$X-.+X",
"AXAXAXAXNXAXAXAXAXAXAXAXNXZXFXSXT.^ 8 ..(.H s FXNXNXAXNXNXSXLXSX",
"AXAXNXAXAXAXAXNXAXAXNXAXNXZXNXNXFXZXR.^ a q ^ FXNXAXAXAXNXNXNXNX",
"AXNXAXAXAXAXAXAXAXNXAXNXNXNXNXNXNXZXFXSXR.s / FXNXNXNXAXAXAXNXNX",
"AXAXNXAXAXAXNXAXAXAXAXAXAXAXZXZXNXZXNXZXLXAXoXAXNXAXAXAXAXNXAXNX"
};
