/* XPM */
static char *daPanAndScan_icon[] = {
/* columns rows colors chars-per-pixel */
"32 32 256 2",
"   c #020101",
".  c #070A0B",
"X  c #090A0B",
"o  c #001D02",
"O  c #0E190F",
"+  c #031606",
"@  c #150506",
"#  c #150F0C",
"$  c #1A120D",
"%  c #151514",
"&  c #171A18",
"*  c #1C1C1B",
"=  c #1C1713",
"-  c #0A2A14",
";  c #142517",
":  c #211608",
">  c #221505",
",  c #211815",
"<  c #201B1B",
"1  c #3A1713",
"2  c #241D22",
"3  c #281E26",
"4  c #3A2718",
"5  c #242424",
"6  c #2C2B23",
"7  c #2C2C2C",
"8  c #2C2126",
"9  c #332929",
"0  c #312D30",
"q  c #383C2F",
"w  c #323232",
"e  c #3D3E35",
"r  c #3C3C3C",
"t  c #194220",
"y  c #087311",
"u  c #3F4338",
"i  c #324533",
"p  c #246935",
"a  c #461E11",
"s  c #5F311C",
"d  c #5F3413",
"f  c #462519",
"g  c #553424",
"h  c #77381F",
"j  c #783A1C",
"k  c #663924",
"l  c #47473B",
"z  c #674028",
"x  c #7E462B",
"c  c #7F4A2E",
"v  c #74432D",
"b  c #434142",
"n  c #5F5F5F",
"m  c #555555",
"M  c #75705E",
"N  c #696754",
"B  c #666666",
"V  c #6C6C6C",
"C  c #6B676B",
"Z  c #6F6F70",
"A  c #707362",
"S  c #7B7B7B",
"D  c #757575",
"F  c #148D21",
"G  c #1A8C26",
"H  c #389E4C",
"J  c #33BF50",
"K  c #4D965C",
"L  c #59AF65",
"P  c #54BD62",
"I  c #648E67",
"U  c #758D72",
"Y  c #739878",
"T  c #74B67D",
"R  c #72B97D",
"E  c #4CDE68",
"W  c #4ADB66",
"Q  c #55CF6B",
"!  c #52DB6C",
"~  c #57E470",
"^  c #53F675",
"/  c #52FB75",
"(  c #54FD78",
")  c #5AFF7F",
"_  c #65DC7A",
"`  c #75E47F",
"'  c #7DA082",
"]  c #78B580",
"[  c #5FFF80",
"{  c #71CA82",
"}  c #66EF84",
"|  c #6AEE88",
" . c #62F780",
".. c #64F983",
"X. c #67FF89",
"o. c #6DF583",
"O. c #6DF28A",
"+. c #69FF8A",
"@. c #6CF884",
"#. c #6AFF90",
"$. c #7DE685",
"%. c #7CEB93",
"&. c #71F48E",
"*. c #7CF38E",
"=. c #73FD88",
"-. c #7BFC98",
";. c #76FB94",
":. c #894527",
">. c #854C2E",
",. c #87532E",
"<. c #8C5632",
"1. c #954722",
"2. c #974E27",
"3. c #904B2B",
"4. c #93562E",
"5. c #995827",
"6. c #9A5D2F",
"7. c #9B502B",
"8. c #965935",
"9. c #9A632E",
"0. c #9B6131",
"q. c #AE493A",
"w. c #AC5729",
"e. c #AF5E2B",
"r. c #A55727",
"t. c #A65A34",
"y. c #AD5F38",
"u. c #A9632D",
"i. c #A56132",
"p. c #AB6235",
"a. c #A96A36",
"s. c #B3682F",
"d. c #B36636",
"f. c #B56C39",
"g. c #B56935",
"h. c #B57337",
"j. c #BC7238",
"k. c #886C4A",
"l. c #A67445",
"z. c #C37D3A",
"x. c #C87D3E",
"c. c #8D8E77",
"v. c #94897F",
"b. c #9C9A7D",
"n. c #989579",
"m. c #BA9665",
"M. c #B6A37F",
"N. c #C7813F",
"B. c #CB8341",
"V. c #8D8D8D",
"C. c #838383",
"Z. c #9A979A",
"A. c #9C9C9C",
"S. c #929292",
"D. c #9FA09F",
"F. c #9EAD9E",
"G. c #B09588",
"H. c #A59EA3",
"J. c #A3A283",
"K. c #A6A78F",
"L. c #ABAC86",
"P. c #AAAC86",
"I. c #AFAA9F",
"U. c #AEB38B",
"Y. c #A5B29C",
"T. c #B0A986",
"R. c #B4AE8C",
"E. c #BDAE89",
"W. c #BEAD93",
"Q. c #B2B48E",
"!. c #B5B591",
"~. c #BAB594",
"^. c #BFB298",
"/. c #BCB995",
"(. c #BDBD9A",
"). c #A3A3A4",
"_. c #A4AAA2",
"`. c #ADADAC",
"'. c #AAA2A8",
"]. c #ABAEB2",
"[. c #B0B3AF",
"{. c #B3B3B3",
"}. c #B7B7B8",
"|. c #BEBEBE",
" X c #BDBEC0",
".X c #8FD68A",
"XX c #91D186",
"oX c #9CC0A3",
"OX c #9CD6A9",
"+X c #9CD8A9",
"@X c #81EF8D",
"#X c #84E69B",
"$X c #8BE29D",
"%X c #80FF9B",
"&X c #89FA9B",
"*X c #8EF39A",
"=X c #8CEFA2",
"-X c #92FFAA",
";X c #A8C08D",
":X c #BEC09D",
">X c #A0D7AC",
",X c #B7CEA4",
"<X c #B5C7B9",
"1X c #B3C9B7",
"2X c #B7C8BB",
"3X c #BEC1BE",
"4X c #BECABF",
"5X c #B6D4A6",
"6X c #BED6A1",
"7X c #A6E3A1",
"8X c #BFC1C0",
"9X c #C9BCA5",
"0X c #C4BEA4",
"qX c #C0BEBF",
"wX c #D0B8A7",
"eX c #C5BDC3",
"rX c #C8BDC6",
"tX c #C4C19D",
"yX c #C8C49F",
"uX c #CAC7A1",
"iX c #C9CBAC",
"pX c #C9C0B0",
"aX c #CDCEB2",
"sX c #C3C3BA",
"dX c #CFD4AF",
"fX c #C7D6B4",
"gX c #D3C9AB",
"hX c #D4CDB6",
"jX c #D1D4B4",
"kX c #DBD2BD",
"lX c #D8DABC",
"zX c #CAE0BC",
"xX c #C1C1C1",
"cX c #C6C7C8",
"vX c #C8C6C7",
"bX c #CAC3C9",
"nX c #CACACA",
"mX c #C4C8C5",
"MX c #D0C7CE",
"NX c #D2CCD1",
"BX c #DADEC0",
"VX c #D3D4D4",
"CX c #D8D7D7",
"ZX c #DBDBDB",
"AX c #E3CBC0",
"SX c #E1D2C5",
"DX c #E3E0CA",
"FX c #EAE7D6",
"GX c #F0E4D1",
"HX c #E7E7E7",
"JX c #EBEAE5",
"KX c #EEEEEE",
"LX c #FDF0E3",
"PX c #F3F3F3",
"IX c #FFF9F5",
"UX c #FDFEFD",
/* pixels */
"xXxXxXxXxX|.xXxXxX3X3XxXrXrXxXxXxX|.xXxXxXxX|.xXxXxXxXxX8XxXxX X",
"xXxXxXxXxXxXxXxXxX%...&.#XOX2XxXrXeXeXxX8XxXxXxXxXxXxXxXxXxXxXxX",
"xXxXxXxX|.xXxX3XrXO.o.7X@Xo...O.#X>X<X|.eXeXeXxX8XxX XxXxXxXxX|.",
"xXxXxX|.xXxXxXxXrXO.@XAXhXaX5X7X@X~  .-.=XOX2X|.rXeXeXxX3XxXxXxX",
"xXxXxX|.xXxXxX3XeXO.@XkXaXaXkX9X9 X - p P =. .O.#XOX1XeXrXrX|.|.",
"xXxXxXxXxXxXxXxXeXO.*.kXlXlXjXq @ f 1 @   N 6X.X$.o.[ O.#XOXcXvX",
"xX|.xXxXxXxXxX3XeXO.*.GXA K.c.  6.e.r.2.s   M gX^.!.U..X$.[ L Y.",
"xXxXxXxXxX|.xXxXeX} &XV.. 6 l = <.6.s.r.w.h # J.uX~.~.W.L.O.F U ",
"xXxXxXxX|.xXxXxXeX-.H 3 UXvX  4 8.g ,.j.4.7.a l uX!.~.!.Q.X.F U ",
"xXxXxX|.xXxXxX|.vXK 5 PXUXUXcX# 0.c x d.z k g , R.(.!.~.Q.X.F U ",
"|.xXxXxXxXxX3XvX).* KXHXUXPXPX X: x.f.g.2.v >.= V.yX~.~.Q.+.F U ",
"xXxXxXxXxXxX|.cXA.7 `.5 UXvX7 ].$ N.d.f.g.f.i.f b.yX!.~.Q.+.F U ",
"xXxXxX|.3X|.|.vX`.; + 5 UXVX  * 4 z.p.r.p.B.h.4.E.(./.~.Q.+.F U ",
"xXxXxXxXnXnXvX3XeX-.Q 2 CX).; fXm.u.t.q.y.z.p.1.M.(.~./.Q.+.F U ",
"xXxXxXnXA.S.).|.eX&._ 8 * % g iXm.i.f.:.j 5.6.l.E.(./.~.Q.+.F U ",
"|.|.NXD * w & vXnX| %XIXFXDXHXiXa.B.,.. b $ k.dX/./.!./.Q.+.F U ",
"|.VXD 5 KX}.% V.H.$X/ { Y.I.sXJXl.9.d 5 HX X& b.yX!.~.~.Q.+.F U ",
"VXS 5 PXKX7 7 5 % vX'   7 * 5 UXG.  w 5 m UX}.* J.tX!.~.Q.+.F U ",
"B % KXUXUXUXUXZX* vXH.5 UXNX- -XoX0 UXUXUXIXUX}.  n./.R.Q.+.F U ",
"Z.5 ).UXPX}.cX).* cXD.= mXA.O ~ J 5 vX3XvXUXUXZ 6 T.~.Q.L.X.F U ",
"nX{.% _.PXg . 5 r vX`.5 ; * b }.Y & o   Z UXC e gXE.Q.R.P.X.F U ",
"|.cX{.* H.{.& 8XnX|.xXNXCXCXNXvXbX4XI 5 CXV i LXSX0XT.T.P.X.F U ",
"xX XcX{.5 ; r |.xX3X}.S.C.C.Z.3X|.nX'.5 * t [ &XzXSX9XL.P.X.F U ",
"xXxXxXxXnXnXnXxX8XNX[.. r 5 5 NXxX3X8XnXnX3X] W ( &XfXwXL.X.F U ",
"xXxXxX|.|.|.|.vX}.S.B 7 UXNX* C.{.vX|.|.|.vXrX[.R W / *X,X+.F U ",
"xXxXxXxXxXxX XcX`.X 5 5 UXNXX 5 w vXxXxX|.|.3XvXbX[.R W / +.G U ",
"xXxX|.xXxX|.|.nXA.7 ZXn UXVXV nX* vXxXxXxX|.xXxX3XvXrX`.R ! y U ",
"xX8XxXxXxXxX|.vX{.5 A.UXUXUXUXB b nX|.xXxXxXxXxXxX X3XvXrX`.I F.",
"xXxXxXxXxXxXxX|.cX`.* A.UXUXB w nXxXxXxXxXxXxX|.xXxX|.3X3XvXnXvX",
"|.xXxXxXxXxXxXxX|.nX{.* A.Z w NX8X XxXxXxXxXxXxXxXxXxXxXxXxX|.|.",
"xXxX|.xXxXxXxXxXxX|.nX{.# r nXxXxXxXxXxXxX|.xXxXxXxXxXxXxXxXxXxX",
"xXxXxXxXxXxXxX|.xX8X3XvXxXmXxX|.xX|.xXxXxXxXxXxXxX|.xX|.xXxXxXxX"
};
