/* XPM */
static char *daPanAndScanOptions_icon[] = {
/* columns rows colors chars-per-pixel */
"32 32 251 2",
"   c black",
".  c #000202",
"X  c #020000",
"o  c #020202",
"O  c #030303",
"+  c #030404",
"@  c #040000",
"#  c #060101",
"$  c #040404",
"%  c #050505",
"&  c #060606",
"*  c #090000",
"=  c #0D0606",
"-  c #080808",
";  c #0A0A0A",
":  c #0D0D0D",
">  c #0E0E0E",
",  c #001111",
"<  c #071717",
"1  c #0A1212",
"2  c #140808",
"3  c #101010",
"4  c #111111",
"5  c #131313",
"6  c #161616",
"7  c #171717",
"8  c #181818",
"9  c #191919",
"0  c #1A1A1A",
"q  c #1B1B1B",
"w  c #1C1C1C",
"e  c #1D1D1D",
"r  c #1E1E1E",
"t  c #1F1F1F",
"y  c #152323",
"u  c #360000",
"i  c #370000",
"p  c #202020",
"a  c #212121",
"s  c #222222",
"d  c #232323",
"f  c #242424",
"g  c #252525",
"h  c #262626",
"j  c #272727",
"k  c #252828",
"l  c #282828",
"z  c #292929",
"x  c #2B2B2B",
"c  c #2E2E2E",
"v  c #2F2F2F",
"b  c #303030",
"n  c #313131",
"m  c #333333",
"M  c #383838",
"N  c #3B3B3B",
"B  c #3D3D3D",
"V  c #3E3E3E",
"C  c #304040",
"Z  c #400101",
"A  c #520000",
"S  c #590F0F",
"D  c #5F1212",
"F  c #6F0202",
"G  c #710000",
"H  c #730202",
"J  c #780000",
"K  c #414141",
"L  c #424242",
"P  c #555555",
"I  c #5F5F5F",
"U  c #656565",
"Y  c #676767",
"T  c #686868",
"R  c #696969",
"E  c #6A6A6A",
"W  c #6C6C6C",
"Q  c #6D6D6D",
"!  c #6E6E6E",
"~  c #6F6F6F",
"^  c #717171",
"/  c #757575",
"(  c #767676",
")  c #787878",
"_  c #7B7979",
"`  c #7A7A7A",
"'  c #7C7C7C",
"]  c #7F7F7F",
"[  c #800202",
"{  c #8B0000",
"}  c #900000",
"|  c #A60000",
" . c #AD0202",
".. c #BB4848",
"X. c #C00202",
"o. c #C40000",
"O. c #C70000",
"+. c #CB0000",
"@. c #D40101",
"#. c #DB0101",
"$. c #DE3232",
"%. c #E90404",
"&. c #F30000",
"*. c #F50101",
"=. c #F90000",
"-. c #FB0000",
";. c #FC0000",
":. c #FD0101",
">. c #FE0000",
",. c #FF0000",
"<. c #FF0101",
"1. c #FF0404",
"2. c #FF0505",
"3. c #FD0B0B",
"4. c #F31313",
"5. c #F22222",
"6. c #F32323",
"7. c #818080",
"8. c #818181",
"9. c #828282",
"0. c #838383",
"q. c #8C8C8C",
"w. c #8E8E8E",
"e. c #8E9191",
"r. c #948181",
"t. c #909090",
"y. c #909191",
"u. c #919191",
"i. c #939393",
"p. c #969696",
"a. c #979797",
"s. c #9B9696",
"d. c #989898",
"f. c #9A9A9A",
"g. c #9B9B9B",
"h. c #9A9F9F",
"j. c #9E9B9B",
"k. c #9C9C9C",
"l. c #9D9D9D",
"z. c #9E9E9E",
"x. c #9F9F9F",
"c. c #96A3A3",
"v. c #AF9E9E",
"b. c #BF9C9C",
"n. c #A0A0A0",
"m. c #A1A1A1",
"M. c #A2A2A2",
"N. c #A3A3A3",
"B. c #A4A4A4",
"V. c #A5A5A5",
"C. c #A6A6A6",
"Z. c #A3ABAB",
"A. c #A8A8A8",
"S. c #A9AAAA",
"D. c #AAAAAA",
"F. c #ACABAB",
"G. c #ACACAC",
"H. c #ADADAD",
"J. c #AFAFAF",
"K. c #B1B1B1",
"L. c #B2B2B2",
"P. c #B3B3B3",
"I. c #B5B5B5",
"U. c #B6B6B6",
"Y. c #B7B7B7",
"T. c #B5BABA",
"R. c #BAB2B2",
"E. c #B8B8B8",
"W. c #B9B9B9",
"Q. c #BABABA",
"!. c #B8BCBC",
"~. c #BCB8B8",
"^. c #BDB9B9",
"/. c #BCBCBC",
"(. c #BDBDBD",
"). c #BFBDBD",
"_. c #BEBEBE",
"`. c #BFBEBE",
"'. c #BFBFBF",
"]. c #BFC2C2",
"[. c #BEC7C7",
"{. c #BFC7C7",
"}. c #BDCACA",
"|. c #BDCBCB",
" X c #BEC8C8",
".X c #BFCDCD",
"XX c #CD9A9A",
"oX c #D28787",
"OX c #D08F8F",
"+X c #D48C8C",
"@X c #C3A4A4",
"#X c #CAA3A3",
"$X c #C3B0B0",
"%X c #C1BCBC",
"&X c #C0BFBF",
"*X c #C1BEBE",
"=X c #C1BFBF",
"-X c #C7BBBB",
";X c #C0C0C0",
":X c #C0C1C1",
">X c #C1C0C0",
",X c #C1C1C1",
"<X c #C0C2C2",
"1X c #C2C2C2",
"2X c #C3C2C2",
"3X c #C3C3C3",
"4X c #C0C4C4",
"5X c #C0C7C7",
"6X c #C2C4C4",
"7X c #C4C4C4",
"8X c #C5C4C4",
"9X c #C5C5C5",
"0X c #C6C5C5",
"qX c #C6C6C6",
"wX c #C7C7C7",
"eX c #C8C3C3",
"rX c #C8C7C7",
"tX c #CAC7C7",
"yX c #C8C8C8",
"uX c #C9C8C8",
"iX c #C9C9C9",
"pX c #CACACA",
"aX c #CBCACA",
"sX c #CBCBCB",
"dX c #C9CCCC",
"fX c #CACECE",
"gX c #CCC9C9",
"hX c #CCCCCC",
"jX c #CDCDCD",
"kX c #CECECE",
"lX c #CFCFCF",
"zX c #D0D0D0",
"xX c #D1D1D1",
"cX c #D3D3D3",
"vX c #D4D4D4",
"bX c #D6D6D6",
"nX c #D7D7D7",
"mX c #DBDBDB",
"MX c #E7E7E7",
"NX c #E9E9E9",
"BX c #EDEDED",
"VX c #EEEEEE",
"CX c #F1F1F1",
"ZX c #F3F3F3",
"AX c #F4F4F4",
"SX c #F9F9F9",
"DX c #FBFBFB",
"FX c #FCFCFC",
"GX c #FDFDFD",
"HX c #FEFEFE",
"JX c gray100",
/* pixels */
",X,X,X,X,X,X,X,X,X,X,X,X,X,X,X,X,X,X,X,X,X,X,X'.%X%X,X,X,X,X,X,X",
",X,X,X,X,X,X,X,X,X,X,X,X'.,X,X,X,X,X,X,X,X'.,X X.X5X].,X,X,X,X,X",
",X,X,X,X,X,X,X,X,X,X,X,X,X,X,X,X,X,X,X,X,X X].XXoXOX$X.XqX].,X,X",
",X,X,X,X,X,X,X,X,X,X,X,X,X,X,X,X,X,X,X'. X#X6.,.,.,.3...Z.uX,X,X",
",X,X,X,X,X,X,X,X,X,X,X,X(.,X,X,X,X,X,X,X%X5.,.,.*.,.,.,.D c.wX].",
",X,X,X,X,X,X,X,X,X,X,X].uXqX,X,X,X,X'.|.+X,.2.O.* J ,.2.{ N uX(.",
",X,X,X,X,X,X,X,X,X,X,XlXE q.lX(.,X,X'.uXr.i F i O  .,.,.G < Q.].",
",X,X,X,X,X,X,X,X,X(.lX' : e N.sX(.,X'.rXg.y , 2 X.,.,.X.@ k 2X,X",
",X,X,X,X,X,X,X,X,XlX( p GXqX5 N.uX(.,X'.2XrXT.$.,.,.| @ O 7.sX(.",
",X,X,X,X,X,X,X,XqX) j AXGXGX,X8 B.qX,X,X'.].-X4.,.@.* + ) aX,X,X",
",X,X,X,X,X,X].wXN.e BXMXGXAXAXQ.e uX,X,X'.qXR.S A Z O ' lX(.,X,X",
",X,X,X,X,X,X(.uXN.z H.f GXuXz S.y qX,X,X,X].@X%.*.+.= D.rX'.,X,X",
",X,X,X,X(.(.(.qXD.p : j GXcXO 6 B rX'.'.'.].b.*.,.#.O e.aX,X,X,X",
",X,X,X,XuXsXuX,X,XuXN.e bXB.e qX2X%X2XuXaXfXv.[ { G O u.aX(.,X,X",
",X,X'.uXg.u.N.(.(.wXS.p e 6 N qX].].Q.f.q.H.Q.1 O O % z.uX(.,X,X",
",X(.lX) p b 7 wXuX,X,XsXlXlXuX,X/.xXv.& M p N.~.s.f.D.,X,X,X,X,X",
",XsX( j BXI.6 q.N.,X(.d.t.t.M.2XT.N.E y NX(.6 B.vXuXqX,X,X,X,X,X",
"lX7.p ZXVXv v p 6 qXB.@ v w t jXd.O b f P GXQ.8 B.uX(.,X,X,X,X,X",
"Q 5 BXGXGXGXGXmXe qXz.j GXjXy zXu.v GXGXGXSXGXI.+ z.wX].,X,X,X,X",
"z.p B.GXAXQ.uXN.8 qXN.8 qXs.e sXu.t rX'.qXGXGX~ m Q.,X,X,X,X,X,X",
"sXK.6 D.AXB O e B qXS.j p e L uXV.z 8 O Q GXE m sXqX'.,X,X,X,X,X",
"(.uXP.8 N.K.8 qXuX,X].cXnXnXlX,X,XvXs.p nXE m sX,X'.,X,X,X,X,X,X",
",X(.uXK.j e B (.,X'.Q.w.7.7.d.,X'.qXN.z e L sX,X,X,X,X,X,X,X,X,X",
",X,X,X].sXaXuX,X,XcXK.& N j j lX2X'.,XaXsXsX,X,X,X,X,X,X,X,X,X,X",
",X,X,X,X,X(.].,XQ.i.U k GXlX6 0.I.,X'.'.'.'.,X,X,X,X,X,X,X,X,X,X",
",X,X,X,X,X,X'.rXC.2 j f GXlX; k m qX,X,X,X,X,X,X,X,X,X,X,X,X,X,X",
",X,X,X,X,X,X'.uXc.x mXI GXvXQ uXt qX'.,X,X,X,X,X,X,X,X,X,X,X,X,X",
",X,X,X,X,X,X(.qXK.j z.GXGXGXGXE L uX'.,X,X,X,X,X,X,X,X,X,X,X,X,X",
",X,X,X,X,X,X,X(.uXJ.8 z.GXGXE m uX,X,X,X,X,X,X,X,X,X,X,X,X,X,X,X",
",X,X,X,X,X,X,X,X(.uXP.q z.Q v sX,X,X,X,X,X,X,X,X,X,X,X,X,X,X,X,X",
",X,X,X,X,X,X,X,X,X(.uXI.5 m sX,X,X,X,X,X,X'.,X,X,X,X,X,X,X,X,X,X",
",X,X,X,X,X,X,X,X,X,X(.qXqXuX,X,X,X,X,X,X,X,X,X,X,X,X,X,X,X,X,X,X"
};
