/* XPM */
static char *delete_unused_icon[] = {
/* columns rows colors chars-per-pixel */
"32 32 135 2",
"   c #050505",
".  c #070708",
"X  c #0B0B0B",
"o  c #040315",
"O  c #10100F",
"+  c #111110",
"@  c #1C1C1C",
"#  c #23230E",
"$  c #2D2D03",
"%  c #2E2E0B",
"&  c #21201F",
"*  c #373701",
"=  c #34340A",
"-  c #3C3C00",
";  c #242424",
":  c #272728",
">  c #28272E",
",  c #2B2B2B",
"<  c #2F3031",
"1  c #302F3D",
"2  c #373629",
"3  c #39382B",
"4  c #323232",
"5  c #33323D",
"6  c #38373C",
"7  c #3C3C3C",
"8  c #2E2C48",
"9  c #373646",
"0  c #363548",
"q  c #393749",
"w  c #3D3C47",
"e  c #3D3C4C",
"r  c #403F25",
"t  c #403F4F",
"y  c #414100",
"u  c #4E4E00",
"i  c #5D5D01",
"p  c #414027",
"a  c #636300",
"s  c #6C6C00",
"d  c #6F7001",
"f  c #747400",
"g  c #7F7F00",
"h  c #434343",
"j  c #44424D",
"k  c #4B4946",
"l  c #4D4C4B",
"z  c #434152",
"x  c #4F4D5D",
"c  c #514F4B",
"v  c #53524E",
"b  c #525252",
"n  c #5A5854",
"m  c #5C5C5B",
"M  c #5A5769",
"N  c #64625E",
"B  c #656463",
"V  c #67646F",
"C  c #68656F",
"Z  c #6D6B67",
"A  c #6B6B6B",
"S  c #686670",
"D  c #6B6871",
"F  c #706E71",
"G  c #72706C",
"H  c #757575",
"J  c #7C7A75",
"K  c #7C7C7B",
"L  c #807E78",
"P  c #807E88",
"I  c #818200",
"U  c #8B8B00",
"Y  c #929200",
"T  c #9A9A00",
"R  c #ACAC00",
"E  c #B1B100",
"W  c #BBBC00",
"Q  c #86837D",
"!  c #C2C200",
"~  c #D4D400",
"^  c #E7E700",
"/  c #EDED00",
"(  c #F6F600",
")  c #FEFE00",
"_  c #858585",
"`  c #8C8A84",
"'  c #8A8989",
"]  c #918E9A",
"[  c #95928B",
"{  c #949494",
"}  c #94919C",
"|  c #9A9793",
" . c #98959B",
".. c #9E9B92",
"X. c #9A989A",
"o. c #9794A0",
"O. c #9A97A1",
"+. c #A6A299",
"@. c #A8A59B",
"#. c #ACA99E",
"$. c #A6A5A5",
"%. c #A9A6A3",
"&. c #ACA9A2",
"*. c #ACABAB",
"=. c #B0ADA3",
"-. c #B1AEA8",
";. c #B9B6AD",
":. c #BEBBAF",
">. c #B4B4B4",
",. c #BEBAB3",
"<. c #BBBBBB",
"1. c #C2BEB6",
"2. c #C2BFB8",
"3. c #C7C3BB",
"4. c #C9C5BE",
"5. c #CBC7C2",
"6. c #CECAC3",
"7. c #CECECE",
"8. c #D3CFC7",
"9. c #D3CFC8",
"0. c #D5D1C6",
"q. c #D4D0C8",
"w. c #D9D5CC",
"e. c #DDD9CE",
"r. c #D2D2D2",
"t. c #DEDAD0",
"y. c #DBDBDB",
"u. c #E1DDD1",
"i. c #E4E0D7",
"p. c #E6E2D9",
"a. c #E9E4DC",
"s. c #E4E4E4",
"d. c #EBEAEA",
"f. c #F5F5F5",
"g. c #F9F9F9",
/* pixels */
"q.q.9.e.u.u.u.u.u.u.u.u.u.u.u.u.e.u.e.q.9.9.9.9.9.9.9.9.9.9.9.9.",
"q.q.8.*. .O.O.O.O.O.O.O.O.O.O.O.O.O.$.8.9.9.9.0.9.9.9.9.0.9.9.9.",
"8.e.%.% a i i i i i i a i i i i i a $ ' e.0.8.8.0.0.8.0.0.9.9.9.",
"8.e.} i ) ) ) ) ) ) ) ) ) ) ) ) ( ) f C 4.e.t.u.t.t.t.t.9.9.9.0.",
"8.t.o.i ) ( ( ( ( ( ( ( ~ E E E E ! u 8 P ] } } ] o.]  .3.w.9.9.",
"8.t.o.a ) ) ) ) ) ) ) ( y i a a a a a a a a a a a a s - B w.8.9.",
"8.e.X.* T Y Y U Y Y Y I * ) ) ) ) ) ) ) ) ) ) ) ) ) ) R w 3.4.9.",
"9.9.5.F z j j j j j j 0 = ) ) ) ) ) ) ) ) ( ( ( ( ( ) R 4 =.4.9.",
"9.9.9.8.[ V V S S S D M # R R R R R R E ^ ) ) ) ) ( ) R 5 =.4.q.",
"9.9.8.4.2 a s s s s s s s s s s s s f u - Y U U U U Y i 6 &.4.q.",
"9.8.q.5.p ( ) ) ) ) ) ) ) ) ) ) ) ( ) ! o 5 9 q q q q w G @.8.8.",
"9.8.w.5.3 ^ ) ( ( ( ( ( ( ( ( ( ( ( ) W ; Q ..@.+.+.@.+.+.;.8.9.",
"9.9.q.5.r / ) ) ) ) ) ) ) ) ) ) ) ) ) ! > ..;.2.2.3.3.3.3.6.9.9.",
"9.9.9.8.3 f I I I I I I I I I I I g U i 4 +.w.a.p.8.8.9.q.q.q.8.",
"9.8.8.q.| x t t e t e e e t e e t e q q Z *.N c n 9.9.6.8.8.q.8.",
"9.9.9.9.8.:.@.@.@.@.@.@.@.@.@.@.@.#.;.;.;.Z H K K F w.a.u.w.9.8.",
"q.q.q.q.0.4.3.3.3.3.3.3.3.3.3.3.3.&.m l k . B K H + v B B #.8.8.",
"q.8.q.q.q.q.7.q.q.q.q.q.q.q.q.q.0.b 4 b K { H b b l ;     6 4.q.",
"q.q.q.8.q.q.q.8.q.q.q.q.q.q.8.q.q.; 4 n F K H B m h < @ + X 3.q.",
"q.8.q.q.q.q.q.8.q.q.q.q.q.q.q.8.q.Q X ; m : ; X . +       A 6.q.",
"q.8.q.q.q.q.8.q.q.q.q.q.q.q.8.q.q.i.; K f.r.<.*.' ' m h O 6.e.8.",
"q.q.q.q.q.q.q.q.q.q.q.q.q.q.q.8.q.q.& ' d.r.y.$.$.F H 7 X ,.q.8.",
"8.q.8.q.q.8.8.q.8.q.q.8.q.8.q.q.q.w.; _ d.>.7.m { , B ;   3.w.8.",
"q.q.q.q.q.q.q.q.q.q.q.q.q.q.8.q.q.q.@ ' d.>.r.A X.7 Z ,   3.q.8.",
"q.q.8.q.q.8.q.q.q.q.q.q.q.q.q.8.q.w.& _ d.>.r.A { 7 A : . 2.w.8.",
"8.q.q.q.q.q.q.q.8.q.q.8.8.q.q.8.q.q.& ' d.>.r.A { 6 A , . 2.w.8.",
"q.q.8.q.q.8.8.q.q.q.q.q.q.8.q.q.q.q.& ' d.>.7.m { , B : . 2.w.6.",
"q.q.q.q.q.q.q.q.8.q.q.8.q.q.q.8.q.w.; ' d.r.y.>.*.Q H h + ,.w.8.",
"q.8.q.q.q.q.q.q.q.8.q.q.q.8.q.8.q.q.& H s.g.r.r.' _ A 7 O ,.w.8.",
"q.q.q.8.8.q.q.8.q.q.q.q.q.q.q.q.q.q.[ ; < 7 , , X . X   J 8.q.8.",
"q.8.q.q.q.q.q.q.q.8.8.q.q.8.q.q.q.8.i.[ J J L L Q _ Q ` w.q.q.8.",
"q.q.q.q.8.q.8.q.q.q.q.q.q.q.8.q.q.8.6.i.p.i.i.i.i.i.i.i.q.8.q.8."
};
