/* XPM */
static char *folder_icon2[] = {
/* columns rows colors chars-per-pixel */
"26 26 96 2",
"   c #000C000D000D",
".  c #04F004F004F0",
"X  c #07AA0784073A",
"o  c #0C880C6B0C32",
"O  c #0D500D650D8E",
"+  c #0ED50EF40F34",
"@  c #0FD80FF01021",
"#  c #0FFF10181049",
"$  c #1D7C1D321C9F",
"%  c #3A1A38F836B5",
"&  c #3F7B3E443BD4",
"*  c #41A040633DE9",
"=  c #42C841813EF2",
"-  c #43B5426E3FE0",
";  c #6F036CE868B1",
":  c #75FA75187354",
">  c #7D857DAD7DFD",
",  c #7F647F757F97",
"<  c #7F907F9F7FBD",
"1  c #84D584A18437",
"2  c #86F286AD8623",
"3  c #8ABF8AB48A9F",
"4  c #8FF08F548E1C",
"5  c #8F888F888F88",
"6  c #91188E5B88E1",
"7  c #947291A58C0B",
"8  c #93AC92178EEE",
"9  c #9360927A90AE",
"0  c #93A092B690E3",
"q  c #970197019702",
"w  c #990197D29576",
"e  c #995F982E95CD",
"r  c #99CA988195ED",
"t  c #9A8999E39896",
"y  c #9B1699D49751",
"u  c #9B2F9AFA9A91",
"i  c #9C5E9B2198A8",
"p  c #9D6F9C229988",
"a  c #9E559CF29A2A",
"s  c #A189A127A061",
"d  c #A482A2CE9F66",
"f  c #A6A6A3819D38",
"g  c #A369A36FA37B",
"h  c #A3B1A3BFA3D9",
"j  c #A830A5E8A15A",
"k  c #AA1CAA33AA61",
"l  c #AACEAACEAACE",
"z  c #AC75AC75AC75",
"x  c #ADD7AD79ACBF",
"c  c #AED7AE50AD43",
"v  c #B42BB2F8B090",
"b  c #B349B356B370",
"n  c #B3B5B3B5B3B5",
"m  c #B59DB520B425",
"M  c #B56EB56FB570",
"N  c #B9AFB6F9B190",
"B  c #BA4AB78DB215",
"V  c #BCA1B90BB1DF",
"C  c #BC68B991B3E5",
"Z  c #B970B8E5B7CD",
"A  c #BE3EBCF7BA69",
"S  c #C1A1BE90B86F",
"D  c #C2C0BF9BB951",
"F  c #C58AC242BBB3",
"G  c #C5B4C26DBBDF",
"H  c #C738C47DBF0A",
"J  c #C818C557BFD3",
"K  c #C8ECC570BE79",
"L  c #C9B3C5D0BE09",
"P  c #C917C656C0D5",
"I  c #CA74C7B3C22E",
"U  c #CAABC7E7C25F",
"Y  c #CBA3C82CC13D",
"T  c #CCF6C918C15C",
"R  c #CD6CCA53C420",
"E  c #CF03CB47C3CE",
"W  c #CFBECBD3C3FB",
"Q  c #D115CD2EC561",
"!  c #D18CCDB0C5F9",
"~  c #D21BCE39C675",
"^  c #D2B5CECBC6F7",
"/  c #D2BBCED1C6FC",
"(  c #D3C3CFCCC7DE",
")  c #D49AD09DC8A4",
"_  c #D4F5D0F3C8EE",
"`  c #D67DD264CA32",
"'  c #D6D8D2BBCA81",
"]  c #D6F1D2E2CAC6",
"[  c #D751D32ECAE9",
"{  c #D7F0D3DCCBB6",
"}  c #D842D42DCC04",
"|  c #D99CD581CD4A",
" . c #D9DBD5BFCD86",
".. c #F4B9F3D3F206",
"X. c #F637F54FF37D",
"o. c #FDC7FD92FD29",
/* pixels */
"o.X.X.X.X.X.X...X.X.X.X.X...X.X...X.X.X.X.X...X...t ",
"X.` ` ` ` / ` ` ` ` ` / ` ` / ` ` ` ` ( ` ` ` ` ( 9 ",
"..` ( ` ` ` ` / ( / ` ` / ` ` / / ` / ( ( ( ( ( ` 0 ",
"X.` ( ( / ` / ` / ` / ` ` / ` ` ( ` ` ` ( ` ` ( ( 9 ",
"X.` ) ) ) ` ` ` [ ` ` ` ` ` / ` / ` ` ` / ( / ( ( 9 ",
"X.) ( ` ) ( ` A B B B B B ( ` / ` / ( / ` ` ` ` ( 9 ",
"X.) ) ) ) ` ` y > , , , 2 T ` / ( ( ` / ` ( / ` ( 9 ",
"X.` ) ) ` A i s g g g g 3 d Q ( ( ( ( ` ` / ` / ( 9 ",
"X.` ` / J t c M Z Z Z Z c 4 w w w 9 9 B T ` ` ( ( 9 ",
"X.` / ` G i ` T I Y I I Y I H H I j + . 7 } ` / ( 9 ",
"X.` ` ` G a ` A b b b n b b b b M q .   6 } ` ` ( 9 ",
"X./ / ` G a ` A b b n n b b b b M q .   6 } ` ` ( 9 ",
"X.` ( ` G a ` A b n n n b n n n M q .   6 } ) ( ( 9 ",
"X.` ( ` G a ` A b n n n n n n n M q .   6 } ) ` ( 9 ",
"..` ( ` G a ` A b b n n n n n n M q .   6 } ( ) ` 9 ",
"X.` ( ` G a ` A b b n n n n n n M t .   6  .` ( ( 9 ",
"X.` ) ` G w J v k k k k k z k k c 4 .   6 } ` ` ( 9 ",
"X.( ( ` I : % $ + @ # # # # @ @ @ +     6 } ( ` ( 9 ",
"X.) ) ( / ( W ; & = = = = = = = = = = = d { ` ( ( 9 ",
"X.` ) ` ` / ` ` { { { ` { [ } } ` { } } ` ( ` ) ( 9 ",
"..` / ( / ` ` / ) ` ( ( ` ( ( ` / ( / ` ` ` ` ( ( 9 ",
"X.` ` ` ` / / ` ( ` ( ` ( ` ( ( ` ` ` / ( / ` / ( 9 ",
"X.` / ` / ` ` / ( ( ( ( ( ` ( ` ` ( ` ( ` ` / ` ( 9 ",
"X./ ` / ` ` / ` ` ( ` ` ) ( ( ` ` / ` / ( / ( ` ( 9 ",
"..` ( ( ( ( ( ) ( ( ( ( ` ( ( ( ( ( ( ( ( ( ( ` ( 9 ",
"t 0 9 8 9 9 9 9 9 9 9 9 9 9 9 9 8 9 9 9 9 9 9 0 8 1 "
};
