/* XPM */
static char *graphMaterials_icon[] = {
/* columns rows colors chars-per-pixel */
"13 13 140 2",
"   c #003360",
".  c #003863",
"X  c #003F6D",
"o  c #004477",
"O  c #004279",
"+  c #00477B",
"@  c #255071",
"#  c #004A82",
"$  c #004D8D",
"%  c #01538E",
"&  c #005398",
"*  c #00559B",
"=  c #035899",
"-  c #005C9E",
";  c #11629B",
":  c #0061AC",
">  c #0265AA",
",  c #0065AC",
"<  c #0265AC",
"1  c #0069B2",
"2  c #026EBA",
"3  c #006FBD",
"4  c #0F6CB1",
"5  c #1D73B0",
"6  c #295F88",
"7  c #0071C1",
"8  c #0070C6",
"9  c #0375C6",
"0  c #0073CA",
"q  c #0076C9",
"w  c #0076CF",
"e  c #0279CB",
"r  c #007AD0",
"t  c #007AD1",
"y  c #007BD2",
"u  c #007AD6",
"i  c #037ED4",
"p  c #476D88",
"a  c #4E7692",
"s  c #5F7889",
"d  c #607B8D",
"f  c #0081DC",
"g  c #0083DF",
"h  c #0085E3",
"j  c #0086E2",
"k  c #0387E3",
"l  c #0184E7",
"z  c #0088E7",
"x  c #0188E6",
"c  c #0089EA",
"v  c #008AEE",
"b  c #0089F0",
"n  c #008BF3",
"m  c #008CF0",
"M  c #008DF6",
"N  c #048FF1",
"B  c #0191F6",
"V  c #0192F7",
"C  c #0090F8",
"Z  c #0093FB",
"A  c #0090FD",
"S  c #0092FE",
"D  c #0092FF",
"F  c #0093FF",
"G  c #0097FF",
"H  c #0199FE",
"J  c #079FFE",
"K  c #0A9EFC",
"L  c #08A5FF",
"P  c #15B1FE",
"I  c #1BB3FF",
"U  c #1EB7FF",
"Y  c #2888CE",
"T  c #2792DD",
"R  c #3C9ADF",
"E  c #399BE1",
"W  c #2ECAFE",
"Q  c #34CCFF",
"!  c #5D95BC",
"~  c #6C899D",
"^  c #768996",
"/  c #50A2DB",
"(  c #75A3C4",
")  c #77AACF",
"_  c #7BA8C8",
"`  c #65FBFE",
"'  c #869DAE",
"]  c #909AA0",
"[  c #8DA1B0",
"{  c #88A5BB",
"}  c #90A1AC",
"|  c #99A1A7",
" . c #9DA3A8",
".. c #9DA5AA",
"X. c #B1B7BB",
"o. c #B8B9BA",
"O. c #BCBEBE",
"+. c #BEBDBC",
"@. c #BEBEBD",
"#. c #BEBEBE",
"$. c #BEBFBF",
"%. c #A8B8C2",
"&. c #B9BDC0",
"*. c #BEBFC0",
"=. c #BFBFC0",
"-. c #BFC0C0",
";. c #BFC0C1",
":. c #C2C0BF",
">. c #C5C1BD",
",. c #C8C2BE",
"<. c #C8C3BF",
"1. c #CCC4BE",
"2. c #CCC5BF",
"3. c #C0C0C0",
"4. c #C0C0C1",
"5. c #C1C1C0",
"6. c #C1C1C1",
"7. c #C1C1C2",
"8. c #C2C1C0",
"9. c #C2C1C1",
"0. c #C3C1C0",
"q. c #C3C3C2",
"w. c #C6C3C0",
"e. c #C6C3C2",
"r. c #C6C4C2",
"t. c #C7C4C3",
"y. c #C9C5C3",
"u. c #C9C6C3",
"i. c #CBC5C2",
"p. c #C8C5C4",
"a. c #C8C6C5",
"s. c #C9C6C4",
"d. c #C8C7C6",
"f. c #CBC7C4",
"g. c #CDC5C0",
"h. c #CAC8C6",
"j. c #CBC8C6",
"k. c #CEC9C6",
"l. c #CFC9C6",
"z. c #CECAC7",
/* pixels */
"4.4.4.4.w.2.2.2.4.4.4.4.4.",
"4.4.4.,.%._ ( { O.y.4.4.4.",
"4.4.O./ B n l w 5 [ y.$.4.",
"4.4.E F H H C c q = } k.O.",
"1.) F L Q U C c y : 6 +.7.",
">.R F P ` Q C h r 1 +  .d.",
"O.T F K I K m h q , O ] d.",
"O.Y m C n v h y 3 = o | d.",
",.! u k k f r 7 < # @ O.4.",
"w.X.4 8 e 9 2 > %   ^ f.*.",
"*.y.' ; * & $ O . s y.=.4.",
"4.4.y.o.~ a p d ..y.4.=.4.",
"4.4.*.7.k.k.f.z.d.*.4.4.4."
};
