/* XPM */
static char *hidePlane_icon[] = {
/* columns rows colors chars-per-pixel */
"32 32 256 2",
"   c #010000",
".  c #070A0D",
"X  c #150505",
"o  c #15100D",
"O  c #1E1A17",
"+  c #0A2C18",
"@  c #3A1712",
"#  c #3A3D31",
"$  c #322829",
"%  c #0D7A15",
"&  c #276B37",
"*  c #421A0D",
"=  c #5F311C",
"-  c #462519",
";  c #783921",
":  c #404438",
">  c #5A463A",
",  c #794933",
"<  c #4E674B",
"1  c #466D45",
"2  c #50694E",
"3  c #75705D",
"4  c #686654",
"5  c #6C776B",
"6  c #726E6B",
"7  c #7A6C62",
"8  c #7A746A",
"9  c #747374",
"0  c #757975",
"q  c #7D7E7E",
"w  c #7D7F80",
"e  c #198E26",
"r  c #179024",
"t  c #189125",
"y  c #479D52",
"u  c #579B61",
"i  c #788250",
"p  c #7FAE5D",
"a  c #71AD7F",
"s  c #7DB261",
"d  c #4CD666",
"f  c #45D964",
"g  c #5DDC6B",
"h  c #58C166",
"j  c #48FA78",
"k  c #5DE37B",
"l  c #5CE673",
"z  c #57FD7A",
"x  c #5FF47E",
"c  c #68CA7F",
"v  c #68C77E",
"b  c #7DCC7B",
"n  c #71D270",
"m  c #60E47E",
"M  c #61F67F",
"N  c #70E37D",
"B  c #7E8183",
"V  c #7E9283",
"C  c #74AC81",
"Z  c #77B284",
"A  c #5EFF83",
"S  c #69CC80",
"D  c #71D386",
"F  c #69D880",
"G  c #68FF8A",
"H  c #68F985",
"J  c #6AFF90",
"K  c #78E583",
"L  c #7FE987",
"P  c #75FD8B",
"I  c #7BF692",
"U  c #97541F",
"Y  c #8F542A",
"T  c #8C5C3C",
"R  c #964C26",
"E  c #995628",
"W  c #995A32",
"Q  c #9C613B",
"!  c #A65929",
"~  c #B05F2C",
"^  c #A25733",
"/  c #AA6129",
"(  c #A56429",
")  c #AD6C3C",
"_  c #A76234",
"`  c #BA793E",
"'  c #936B52",
"]  c #94745F",
"[  c #8C7667",
"{  c #847973",
"}  c #837E7C",
"|  c #867871",
" . c #917563",
".. c #947D6D",
"X. c #9E7B64",
"o. c #987B67",
"O. c #9A7C75",
"+. c #A46A42",
"@. c #A9785B",
"#. c #B6764C",
"$. c #B57C53",
"%. c #B47D5D",
"&. c #C27A42",
"*. c #867C84",
"=. c #887E86",
"-. c #8A827C",
";. c #9E806C",
":. c #9B8375",
">. c #9E8A7D",
",. c #95857B",
"<. c #8BA968",
"1. c #93A86A",
"2. c #8CB46E",
"3. c #BC8254",
"4. c #A5825A",
"5. c #A2826D",
"6. c #AC8C6B",
"7. c #A98567",
"8. c #A58571",
"9. c #A48C7D",
"0. c #AB8E74",
"q. c #AE8D79",
"w. c #A58771",
"e. c #AD906D",
"r. c #AF907A",
"t. c #B48965",
"y. c #B18E75",
"u. c #B88E79",
"i. c #B59474",
"p. c #B4937D",
"a. c #B9937D",
"s. c #BB9E7C",
"d. c #A9A675",
"f. c #A6B979",
"g. c #B2AC7E",
"h. c #C5895B",
"j. c #CA8648",
"k. c #C78D63",
"l. c #CB8C65",
"z. c #CE946C",
"x. c #C69167",
"c. c #C89373",
"v. c #D78F74",
"b. c #D0966E",
"n. c #D99C6E",
"m. c #D89566",
"M. c #DB9C73",
"N. c #D49A76",
"B. c #C9A27D",
"V. c #E2A47C",
"C. c #E3A97D",
"Z. c #E1A273",
"A. c #838484",
"S. c #838984",
"D. c #878989",
"F. c #888586",
"G. c #8D8B89",
"H. c #8C8788",
"J. c #809184",
"K. c #968F8A",
"L. c #9B8D86",
"P. c #9C928B",
"I. c #A58982",
"U. c #A49184",
"Y. c #A4958B",
"T. c #AB9384",
"R. c #AC9789",
"E. c #AE9A8C",
"W. c #A79B92",
"Q. c #B39582",
"!. c #B69884",
"~. c #B49A89",
"^. c #BB9B85",
"/. c #BC9D8A",
"(. c #B6968E",
"). c #B69F91",
"_. c #ABAC86",
"`. c #A5A683",
"'. c #AEB38B",
"]. c #A7B782",
"[. c #B3AD8B",
"{. c #BEA08B",
"}. c #B7A786",
"|. c #BAA393",
" X c #BAA695",
".X c #B2B38E",
"XX c #BAB785",
"oX c #B5B591",
"OX c #BAB594",
"+X c #BAB996",
"@X c #BCBC99",
"#X c #9DCB87",
"$X c #93D68B",
"%X c #87EA88",
"&X c #84F593",
"*X c #8BF699",
"=X c #A5C489",
"-X c #ADC492",
";X c #B2CE8B",
":X c #B9C48A",
">X c #BDDA93",
",X c #B7C694",
"<X c #BBD6A5",
"1X c #B6CDA3",
"2X c #A8E5A3",
"3X c #C39E85",
"4X c #C29F89",
"5X c #C5A38B",
"6X c #CCA68D",
"7X c #C5A687",
"8X c #C4A691",
"9X c #C5A895",
"0X c #CCA992",
"qX c #C9A994",
"wX c #C6B08E",
"eX c #C3BB9B",
"rX c #CCB599",
"tX c #DCAB83",
"yX c #D6A78A",
"uX c #D0A792",
"iX c #D3AC93",
"pX c #D3B399",
"aX c #D9B494",
"sX c #D9BA94",
"dX c #CDB9A5",
"fX c #C7BCA5",
"gX c #E4B996",
"hX c #E4B38A",
"jX c #E1BFA0",
"kX c #C1C68B",
"lX c #C3C98E",
"zX c #C1C897",
"xX c #D0D299",
"cX c #C7C7A8",
"vX c #CDCEB2",
"bX c #CAD5B5",
"nX c #DCC1A0",
"mX c #D9C9A9",
"MX c #D7CDB9",
"NX c #D2D4B5",
"BX c #DAD2B9",
"VX c #D6D5A5",
"CX c #CEE3BD",
"ZX c #E7C19E",
"AX c #E5C6A3",
"SX c #E8C3A0",
"DX c #EACAA8",
"FX c #E8C8B6",
"GX c #F4C8AA",
"HX c #F0C1A9",
"JX c #F5CBB4",
"KX c #E9D5B3",
"LX c #D9D9C6",
"PX c #F1D3C4",
"IX c #FDEEDF",
"UX c #E4E3C3",
/* pixels */
"A.A.A.A.A.A.A.A.A.V A.*.*.*.*.A.A.A.A.A.A.A.A.A.A.A.A.A.A.A.A.A.",
"A.A.A.A.A.A.A.A.*.F A k v C V A.*.*.A.A.A.A.A.A.A.A.A.A.A.A.A.A.",
"A.A.B B A.A.A.A.*.F P 2X&XH H k v Z V *.*.*.A.A.S.A.A.A.A.A.A.A.",
"F.|.~.K.S.B B A.*.m I FXMXvX1X2X%Xl M H D a S.A.*.*.A.A.A.A.A.A.",
"H.!.X.4X8XE.K.F.*.k I MXbXNXBXfX$ . + & h P x m c a J.A.*.=.A.A.",
"A.T.{ P.7...6X{.(.K &XLXNXbXNX# X - @ X   4 <X$X%XM x m c C D.F.",
"A.E.^.8X0.q ~. .>.lXlXFXBXUX8   W ~ ! R =   3 mXwX+X-X$XK A y 5 ",
"B Y.[ U.5X!.qX:.B f.1.rXZXDXw.> Q Y / ! ! ; o `.cX+XOX X[.H e < ",
"B R.~.W.X.| /.5X/.:X=XLXnXg.0.@.N.X.$.&.R R * : zXOXOXoX'.G e < ",
"B Y.w.!.8XP.E. .| :XlXKXZXeXi._ x._ %.V.7.' , O [.eXoXOX'.G e < ",
"B Y...A.p.w.6X^.K.].1.rXZXAXtXm.k./ _ Z.#.@.c.X.R.,X+XOX.XG r < ",
"B P./.|.p.6 Y.u.Q.kX;XLXmXi.wXtXC.m.#.M._ ! +.c.6.@XOXOX.XG r < ",
"B K...9.6XR.|.o.9 :XXXgXDXwXcXvXz.3.z.V.k.j.&.b.6.@X+XOX.XG r < ",
"A.K.T.K.r. .8X5XK.=X1.eXAXsXnXKXx.U W v.z.n.n.M.7.@X+XOX.XG r < ",
"B K.p.!.5X{ P.0.q.lX,XLXmXi.7XaXhXk.&.M.^ ! #.tX6.,X+XOX.XG r < ",
"B K.9.} 4Xp.9X8.9 #X:XJXJXwXLXLXl.&.b.tXh.E 4.DX6.+X+X+X.XG r < ",
"A.G.^./.!.8 R.6XY.-Xp N VXDXPXIXk.( _ N.b.l.sXZXe.+XOXOX.XG r < ",
"B K.,.| 6X~.W.8...uXd.d %Xd.,XJXgXj.` n.+./ B.ZX6.+XOXOX.XH r < ",
"A.A.R.Y.~. .^.5X*.Y.u.p.7X<.j *XmXN.m.V.#./ T aXe.+X.XOX'.G r < ",
"A.A.} >.3X>.K.!.p.iX8.8 /.7X1.n f.b XXV.Z.h.W yXe.oX.X[._.G r < ",
"A.A.A.B } 9.8Xp.6 R.iXR.).X.O.5XB.g A >Xt.b.tXGX6.[..X[._.G r < ",
"A.A.A.A.A.B -.Q.R. XX...iX4XB H.uXu.2.;X2.I CXGX^.cX[.[._.G r < ",
"A.A.A.A.A.A.A.B ,.^.4Xq P.3X^. Xa.7 9.uXd.g A xXg.LXfX_.`.G r < ",
"A.A.A.A.A.A.A.A.A.q I.~.9X8.8 !.iXT.B |.p.a.f.kX<.*XbXdX_.G r < ",
"A.A.A.A.A.A.A.A.A.A.A.} r.4XK.H.5Xp./.iXo.9 9.iXi f z *X1XG t < ",
"A.A.A.A.A.A.A.A.A.A.A.A.B -.Q. X3X7 -.qXiXP.F.iX .0 u f z J e < ",
"A.A.A.A.A.A.A.A.A.A.A.A.A.A.q ,.!.^.D.).8.a.9XiX .A.*.0 u d % 2 ",
"A.A.A.A.A.A.A.A.A.A.A.A.A.A.A.A.q >.^.aXO.9 >.iX .B A.A.F.0 1 5 ",
"A.A.A.A.A.A.A.A.A.A.A.A.A.A.A.A.A.A.} U.5XY.D.0X .B A.A.A.F.G.F.",
"A.A.A.A.A.A.A.A.A.A.A.A.A.A.A.A.A.A.A.B -.Q.8XaX .A.A.A.A.A.A.A.",
"A.A.A.A.A.A.A.A.A.A.A.A.A.A.A.A.A.A.A.A.A.q ,.!. .A.A.A.A.A.A.A.",
"A.A.A.A.A.A.A.A.A.A.A.A.A.A.A.A.A.A.A.A.A.A.A.q | A.A.A.A.A.A.A."
};
