/* XPM */
static char *liquifyPlane_icon[] = {
/* columns rows colors chars-per-pixel */
"32 32 256 2",
"   c #020309",
".  c #0B040B",
"X  c #0B0B0E",
"o  c #020004",
"O  c #190F10",
"+  c #141413",
"@  c #1A1512",
"#  c #1C1D18",
"$  c #11050C",
"%  c #15261A",
"&  c #1F331E",
"*  c #251213",
"=  c #2E1C17",
"-  c #361B17",
";  c #27010B",
":  c #24261D",
">  c #35291F",
",  c #3E251B",
"<  c #272B21",
"1  c #3A2A23",
"2  c #2B3621",
"3  c #2A4C2A",
"4  c #275732",
"5  c #3A562B",
"6  c #315F36",
"7  c #296335",
"8  c #2E7A3D",
"9  c #38683B",
"0  c #3C743B",
"q  c #58291C",
"w  c #4F2B1C",
"e  c #442B22",
"r  c #542D24",
"t  c #523323",
"y  c #65291D",
"u  c #792A18",
"i  c #652D20",
"p  c #683825",
"a  c #773622",
"s  c #4A582B",
"d  c #5B4827",
"f  c #56572B",
"g  c #534D34",
"h  c #486537",
"j  c #4D7539",
"k  c #674828",
"l  c #7C4928",
"z  c #6F4D33",
"x  c #736932",
"c  c #457A45",
"v  c #736C4B",
"b  c #7C7861",
"n  c #2E8643",
"m  c #338543",
"M  c #3A8A45",
"N  c #3B8C4B",
"B  c #398844",
"V  c #3D944D",
"C  c #389B4C",
"Z  c #3E9551",
"A  c #39AA53",
"S  c #38B155",
"D  c #3AC05F",
"F  c #3DCA65",
"G  c #468C45",
"H  c #40944F",
"J  c #48974D",
"K  c #409550",
"L  c #419954",
"P  c #588946",
"I  c #579349",
"U  c #548153",
"Y  c #46AC57",
"T  c #42B259",
"R  c #4AB65C",
"E  c #48B75B",
"W  c #57AC56",
"Q  c #53BA5E",
"!  c #5CBA5D",
"~  c #58B661",
"^  c #6A8543",
"/  c #789449",
"(  c #768949",
")  c #6E9265",
"_  c #7CAD57",
"`  c #68AF58",
"'  c #7CBD60",
"]  c #43C05D",
"[  c #45CD64",
"{  c #47C663",
"}  c #4BDD6D",
"|  c #4AD66B",
" . c #55CA66",
".. c #5DD46A",
"X. c #52D66B",
"o. c #55DF71",
"O. c #4CE372",
"+. c #54E573",
"@. c #59EB75",
"#. c #55F67B",
"$. c #56FE7D",
"%. c #5BFE7E",
"&. c #5DF47A",
"*. c #52E974",
"=. c #74C15F",
"-. c #67CB65",
";. c #63D96C",
":. c #74C965",
">. c #7BD66A",
",. c #68E777",
"<. c #64F97C",
"1. c #75E271",
"2. c #56FF83",
"3. c #5DFE82",
"4. c #61FF85",
"5. c #7CF28D",
"6. c #8B3E1D",
"7. c #853E1E",
"8. c #933C1F",
"9. c #863B20",
"0. c #8D3B32",
"q. c #953523",
"w. c #A73E37",
"e. c #8B4223",
"r. c #894729",
"t. c #8B5834",
"y. c #944C2B",
"u. c #994E2A",
"i. c #954726",
"p. c #9A4A31",
"a. c #95552C",
"s. c #9C532B",
"d. c #9D5A2C",
"f. c #915E2E",
"g. c #965431",
"h. c #955C34",
"j. c #9D5B32",
"k. c #995634",
"l. c #835531",
"z. c #846736",
"x. c #9A6536",
"c. c #8F723A",
"v. c #A34B27",
"b. c #A4522C",
"n. c #A45C2C",
"m. c #AC5A2B",
"M. c #AB5226",
"N. c #A45732",
"B. c #A45B31",
"V. c #AB5F31",
"C. c #B14B2D",
"Z. c #B45A2B",
"A. c #B85B2C",
"S. c #B55931",
"D. c #AA4733",
"F. c #AA612D",
"G. c #A7612F",
"H. c #A56334",
"J. c #AC6433",
"K. c #AC6A36",
"L. c #AC6E38",
"P. c #A56739",
"I. c #B5652E",
"U. c #B46B34",
"Y. c #B56D3A",
"T. c #B96434",
"R. c #BD6B35",
"E. c #B76836",
"W. c #B4733A",
"Q. c #BB7236",
"!. c #BA733A",
"~. c #BC7B3A",
"^. c #B5753A",
"/. c #AA7738",
"(. c #967B41",
"). c #AC7C4A",
"_. c #AC7745",
"`. c #BF6D40",
"'. c #BE7E40",
"]. c #A46F4D",
"[. c #C0483F",
"{. c #C46A34",
"}. c #C37339",
"|. c #C57838",
" X c #C77840",
".X c #BD813D",
"XX c #858A47",
"oX c #8A954B",
"OX c #978A45",
"+X c #909E52",
"@X c #9A9479",
"#X c #928669",
"$X c #87B95C",
"%X c #9AA552",
"&X c #97A653",
"*X c #97B75A",
"=X c #94B46D",
"-X c #AB8C45",
";X c #A08B48",
":X c #A7885C",
">X c #B78741",
",X c #B58453",
"<X c #A39651",
"1X c #BD9A6C",
"2X c #AE9069",
"3X c #B5A352",
"4X c #A4A252",
"5X c #B9A57D",
"6X c #88C462",
"7X c #82D26F",
"8X c #C5843E",
"9X c #C48541",
"0X c #C98945",
"qX c #C3925F",
"wX c #C29F71",
"eX c #929F82",
"rX c #A49F83",
"tX c #BBAC87",
"yX c #BCBB96",
"uX c #BEBD9C",
"iX c #BBB19D",
"pX c #ABA98D",
"aX c #9DCE8E",
"sX c #93C487",
"dX c #9CD08E",
"fX c #9ED490",
"gX c #87DE87",
"hX c #80EF8A",
"jX c #8EEC91",
"kX c #A5D594",
"lX c #AEC695",
"zX c #B7EDAD",
"xX c #C4AD97",
"cX c #C1B496",
"vX c #C3B598",
"bX c #CABA9E",
"nX c #C6BF9C",
"mX c #C1BDA3",
"MX c #C8B8A6",
"NX c #C1C19C",
"BX c #D6C299",
"VX c #C5C2A9",
"CX c #C8C5AB",
"ZX c #CCCCAB",
"AX c #CAC4A4",
"SX c #CDCFB0",
"DX c #CFD0AF",
"FX c #CFD3B3",
"GX c #D0C9AA",
"HX c #D0D1AF",
"JX c #D2D4B4",
"KX c #D7D9BA",
"LX c #D7D7B8",
"PX c #D3CFB4",
"IX c #C7E0B2",
"UX c #DBDEC0",
/* pixels */
"%.4.3.3.3.3.3.4.3.4.3.3.3.3.3.3.3.4.3.3.<.%.<.<.<.4.4.4.%.3.%.%.",
"3.T N K V K V m n 8 T o.m N M M N M M B C @.C m n n n m L N R 4.",
"3.N iXCXmXVXrX@ X o 7 [ t 7.7.6.6.6.e.8.e.+.5 u w * o . b iXsX$.",
"%.K CXKXFXKXyX> X X 3 O.x b.s.s.n.n.n.b.n.-.j 8.6.a =   # tXkX$.",
"3.Z VXJXSXKX@X+ + X + | I b.P.d.n.m.F.n.v.=.G M.u.6.a =   g kX$.",
"3.Z VXKXSXKX#X@ + + . N } z H.H.d.n.n.G.M.oXT 6.s.i.r.i + . ) 3.",
"3.V VXJXFXJXpX> # = O # } I g.P.H.G.G.m.M./.] l v.i.e.e.1   0 3.",
"3.K VXLXFXPXPXb O : < % H *.l.D.a.a.K.!.Q.I.-.x M.a.r.i.p . 9 4.",
"3.H MXLXFXFXzXjXR T R T T #...` h e r t.8X{.$XP Z.F.v.6.7.; 3 4.",
"%.+.hXhX,. .S Z c 3 % # &  .| B { { 9 * t R.%XJ Z.U.OX_ -. .X.%.",
"3.E N Z U ) eX:Xb.J.p + , 1.{ k k.v ;. .4 p 4XY oX1.<.[ C m T 4.",
"3.N iXCXHXUXbXA. X0X|.r P 4.n z.G.a k W %.o.,.4.$.S 7 & t y 6 4.",
"3.K AXKXHXJX,Xm.K.J.V.(.,.C s ^.H.l.z O h R } [ 7 2 1 1 > i h 3.",
"3.K mXHXJXwXI.B.V._.P.1.C f 9X8X8XQ.k.e r a / C p r.g.x.d q c 3.",
"3.H mXJXZX9XQ.Q.K.J.6XT f 8X9X0X9X|.Y.p.p y.*XG a.s.y.J.k.i 9 3.",
"3.H mXJXZXqXW.L.Y.-X;.s ~.8X9X0X|.Y.P.g.y.G.:.h y.p p g.B.i 6 4.",
"3.V mXDXHXNX-X/.Q.*XM f.0X9X9X X!.!.Y.^.I.<X .d r.> : a ].i 4 4.",
"3.V mXJXZX:XJ.Q.-X1.W .X|.|.Y.!.Y.Y.!.!.^.7X0 7.y.p z r.V., c 4.",
"3.H iXFX5XZ.-X7X<.$.$.<.;X{.U.T.Y.Y.P.S.6XE d N.k.J.p.j.f.- ( 3.",
"3.N vXGX<X6X%.D C E 9 Q #.OXS.N.r. X X*X*.5 H.J.U.W.H.B.p q.@X2.",
"%.X.jXhX@.F 8 d z.R p D.( +.&XS.k. X3X4.n x |.E.|.T.F.c.( *X5.3.",
"4.{ A C 9 f f.I./.Q a p.C.c. .:.;Xp.:.} d {.|.0X3X*X:.| E S [ 3.",
"3.M #Xx.h.U.E.J.H. .t.w.p.C.a.^ Q ~ ,.*.` 6X:.-.E C 0 d v @X=X2.",
"%.H 1X~.P.U.Y.K.b.~ v [.0.N.H.I.V.z.` $.G j j f k l 0.i.tXAXfX$.",
"3.K ,X^.x.U.~.~.Z._ I C.0.r.U.L.|.|..X&.I Z.J.j.x.b.i.2XuXcXaX$.",
"3.Z _.~.P.P.^.|.I.;XE a.J.g.J.W.R.U.I.$XO.l.a.B.I._.5XnXyXyXdX$.",
"3.K ).~.L.H.P.Y.R.~. .z.R.U.F.U.I.G.n.x.@.I ].1X5XnXuXyXyXvXdX$.",
"3.V _.~._.L.h.H.K.{.>.P Z.G.G.n.n.n.y.g.7X| pXGXlXbXyXyXyXcXdX$.",
"4.N x..X^.^.P.t.t.n.$XY s.J.d.k.h.h.:XtXkX} ) bXyXyXyXyXyXvXaX$.",
"3.m y.|.}.R.T.V.y.q.oX{ l N.y.y.i._.mXvXnX+.U bXvXvXyXcXyXxXaX$.",
"3.T ( %X%X+X&X+XoXXX' | ^ oXoXXXoX+XaXaXfX@.~ kXaXaXaXaXaXaXgX%.",
"%.4.3.2.3.2.2.3.2.2.3.3.3.3.2.2.2.2.$.$.$.3.%.$.$.3.$.$.$.$.%.3."
};
