/* XPM */
static char *load_object_icon[] = {
/* columns rows colors chars-per-pixel */
"32 32 256 2",
"   c #0D0B0C",
".  c #0F121D",
"X  c #161416",
"o  c #101119",
"O  c #1D1B1C",
"+  c #001B33",
"@  c #00223E",
"#  c #0D2A3F",
"$  c #201E1F",
"%  c #211F20",
"&  c #232122",
"*  c #2F3636",
"=  c #39312F",
"-  c #343234",
";  c #3B3532",
":  c #3F3936",
">  c #002542",
",  c #002946",
"<  c #002D4D",
"1  c #092F4A",
"2  c #002F50",
"3  c #013255",
"4  c #00355B",
"5  c #0F3D5D",
"6  c #153E5C",
"7  c #0C2E75",
"8  c #013962",
"9  c #003E6A",
"0  c #093D68",
"q  c #10357E",
"w  c #233E52",
"e  c #00416E",
"r  c #004474",
"t  c #00477A",
"y  c #00497D",
"u  c #084773",
"i  c #2C4150",
"p  c #234554",
"a  c #364245",
"s  c #3A4748",
"d  c #3A4545",
"f  c #264B65",
"g  c #403A37",
"h  c #403B38",
"j  c #454544",
"k  c #414A4D",
"l  c #4E4D4D",
"z  c #475E5E",
"x  c #4A5556",
"c  c #445454",
"v  c #524342",
"b  c #555151",
"n  c #434C61",
"m  c #445D70",
"M  c #5B6461",
"N  c #5B6768",
"B  c #5C6E7A",
"V  c #626263",
"C  c #636D6B",
"Z  c #6B6A6C",
"A  c #737474",
"S  c #7E7A75",
"D  c #123780",
"F  c #143C83",
"G  c #004C82",
"H  c #01518A",
"J  c #0A5386",
"K  c #025593",
"L  c #005997",
"P  c #025D9D",
"I  c #154087",
"U  c #174388",
"Y  c #184689",
"T  c #194A8D",
"R  c #1C4E90",
"E  c #1E5983",
"W  c #145583",
"Q  c #1C5192",
"!  c #005DA0",
"~  c #08619F",
"^  c #0362A4",
"/  c #0566AA",
"(  c #0568A2",
")  c #0B69AA",
"_  c #0067B1",
"`  c #0E76BD",
"'  c #1767A0",
"]  c #1074B8",
"[  c #215C99",
"{  c #356F9E",
"}  c #33719E",
"|  c #2B6EA4",
" . c #2470A6",
".. c #317FB8",
"X. c #1B54C8",
"o. c #1F5CD5",
"O. c #0475C3",
"+. c #205FD7",
"@. c #2263DA",
"#. c #266ADE",
"$. c #337FCA",
"%. c #266BE0",
"&. c #2973E5",
"*. c #2B79E7",
"=. c #2D7EEC",
"-. c #49728E",
";. c #4E7E9F",
":. c #5A7180",
">. c #507894",
",. c #7F5D87",
"<. c #7C8973",
"1. c #3380B6",
"2. c #1F85CE",
"3. c #1686D2",
"4. c #178BD6",
"5. c #0B92EB",
"6. c #0095FB",
"7. c #0996F1",
"8. c #0A9DF3",
"9. c #3183F0",
"0. c #3489F4",
"q. c #3B9BFF",
"w. c #25A2EE",
"e. c #4E83A7",
"r. c #668195",
"t. c #7D8080",
"y. c #7A838A",
"u. c #779BB5",
"i. c #981821",
"p. c #BE3739",
"a. c #875454",
"s. c #934F4F",
"d. c #945153",
"f. c #807D78",
"g. c #AD4450",
"h. c #BA5051",
"j. c #AF5A61",
"k. c #BA7F7F",
"l. c #A56969",
"z. c #CD1E2E",
"x. c #F70707",
"c. c #F60808",
"v. c #FC0202",
"b. c #FA0E0E",
"n. c #FA1414",
"m. c #FB1C1C",
"M. c #EA2D2D",
"N. c #F52929",
"B. c #FC2424",
"V. c #FC2C2B",
"C. c #F42F30",
"Z. c #F43E3F",
"A. c #FC3535",
"S. c #FF3935",
"D. c #FE3838",
"F. c #CE3031",
"G. c #D35050",
"H. c #DC5872",
"J. c #D86161",
"K. c #D3797A",
"L. c #EA4C4C",
"P. c #E35354",
"I. c #EB5353",
"U. c #FF4141",
"Y. c #F34D4D",
"T. c #FE645F",
"R. c #E16C6C",
"E. c #EA7676",
"W. c #EB7D7D",
"Q. c #F86161",
"!. c #83698D",
"~. c #808E77",
"^. c #828282",
"/. c #8A8681",
"(. c #8A8886",
"). c #828D8C",
"_. c #979798",
"`. c #909898",
"'. c #9D9796",
"]. c #9B9799",
"[. c #9D9C9C",
"{. c #86A4B9",
"}. c #91A0AB",
"|. c #9AA1A6",
" X c #99A4AC",
".X c #97A2BA",
"XX c #9FAAB2",
"oX c #AE9FA1",
"OX c #A7A5A5",
"+X c #A2A7AA",
"@X c #A2AAAF",
"#X c #AAA7A9",
"$X c #AFADA1",
"%X c #ABAAAC",
"&X c #A3AEB6",
"*X c #ABAFB1",
"=X c #A1B2BE",
"-X c #A8B3B2",
";X c #ADB7BF",
":X c #AFB9BB",
">X c #B3AFA4",
",X c #B2AFB2",
"<X c #B5B1A6",
"1X c #B1B0AF",
"2X c #B4B2B5",
"3X c #B7B6B8",
"4X c #B5B9BD",
"5X c #B8B5B4",
"6X c #B9B7B9",
"7X c #BDBAB3",
"8X c #BEBDBE",
"9X c #A2AEC6",
"0X c #A2B0C7",
"qX c #A5B5CA",
"wX c #AAB5CD",
"eX c #A6BAD0",
"rX c #B6BEC3",
"tX c #BFBEC0",
"yX c #BFC0C0",
"uX c #BDCACA",
"iX c #B3C9CB",
"pX c #CD8687",
"aX c #C48384",
"sX c #D18888",
"dX c #DC8A8A",
"fX c #D39696",
"gX c #DA9697",
"hX c #C59898",
"jX c #C597B9",
"kX c #C5ACBD",
"lX c #C5B7B7",
"zX c #C1BDB6",
"xX c #C1BFBD",
"cX c #CDBABA",
"vX c #D5BAB9",
"bX c #C0BEC1",
"nX c #C6C2BB",
"mX c #C8C3B4",
"MX c #C9C3BD",
"NX c #D3CEBD",
"BX c #C3C2C2",
"VX c #C5CECD",
"CX c #C9C5C5",
"ZX c #C9C7C9",
"AX c #CCC9C6",
"SX c #CCCACC",
"DX c #C5CFD0",
"FX c #C5D2D1",
"GX c #D2CFCE",
"HX c #D1CFD1",
"JX c #D6D1C1",
"KX c #D6D2CA",
"LX c #D5D3D4",
"PX c #D8D5D3",
"IX c #DBD9D7",
"UX c #E3DACB",
/* pixels */
"CXCXGXLXLXLXLXLXLXLXLXPXLXPXLXLXLXLXLXLXIXHXFXvXCXDXGXPXPXGXCXCX",
"BX8XV g g h h g h h h : : : : : : : h h : s aXV.N.d.a : = Z SXBX",
"ZX6Xo 7 q q q D D F F I Y Y T T Q Q Q Q [ h.m.x.v.v.i.| 0 ; LXBX",
"ZX3X. X.o.+.+.@.@.#.%.&.*.*.=.9.0.0.0.q.jXV.m.m.n.b.v.H.{ ; LXBX",
"ZX2XO .XwX9X9XwX0X0XwXqXqXwXeXqXqXqXeXkXA.B.V.m.n.b.x.v.p.x ZXCX",
"ZX,X$ mX~.$XNX<.<XJX<.<XNX<.>XUXUXUXUXT.V.A.V.B.m.n.b.x.v.sX:XCX",
"ZX2X$ 7XC A ^.M A ^.M A ^.M A (.(.).K.A.A.A.A.V.V.m.n.b.v.A.6X2X",
"ZX2X$ zX^.#X%X,X%X%X2X%X#X,X%X#X#XOXZ.A.A.A.A.C.V.B.m.b.x.v.E.-X",
"ZX2X$ 7X^.CXZXZXZXZXZXZXZXZXBXZXDXgXV.D.A.A.A.A.A.B.m.B.B.M.R.'.",
"ZX2X$ 7X^.8XbXBXBX8XBX8XBXyXyX8XuXR.V.A.A.D.D.V.D.Y.h.a.v * N A ",
"ZX2X$ 7X^.bXBXBXBXyXtXBX8XBXBXlXVXI.V.A.D.A.A.Q.l.l d M j & ].OX",
"ZX2X$ 7X^.8XbXBXyXyXBXyXBXBXuXR.pXL.B.A.V.Z.dXV d V ^.3Xf.- HXBX",
"ZX2X$ 7X^.8XBXBXyXBX8XBXyXxXuXP.n.N.B.B.D.fXc l (.#X5XPX~.- LXbX",
"ZX2X$ 7X^.8XZXbXyXyXBXBXBXxXVXG.v.n.m.m.E.x b ].6X8XbXLX/.= LXCX",
"ZX2X$ 7X^.8XCXbXBXyXBXBX8X4XiXJ.v.b.b.B.k.z `.8X8XBXxXLX/.- LXbX",
"ZX2X$ 7X^.8XbXbXyXBX:X-. .2.w.!.v.x.b.b.B.G.hXAX8XBXbXPX/.- LXCX",
"ZX2X$ 7X^.8XBXBXCX+Xf r ^ O.6.$.x.v.v.v.b.V.W.cX2XbX8XPX/.- LXbX",
"ZX2X$ 7X^.8XBXBX*Xw > r ) ] 5.7.z.v.n.F.d.V C <.#X8X8XPX/.- LXCX",
"ZX2X$ 7X^.8XBX6Xm > , 8 ^ ] 4.8.,.g.n p x V ^.[.2X8X8XPX/.- LXbX",
"ZX2X% 7X^.8XCX&X3 < < 2 y ) ] 3.4.( 9 E _.,X6XyX8XBXbXPX/.- LXCX",
"ZX2XO 7X^.8XZX X8 4 3 3 4 t H ^ P K K ' &XBXBXyXbXbXbXPX/.- LXBX",
"ZX2X% 7X^.8XCXXXu 0 9 4 3 2 3 9 r y y W }.BXyX8XbXbXbXPX/.- LXBX",
"ZX2X% 7X^.8XBX&XJ t r 9 8 3 2 < 3 4 3 6 |.BXyXBXCXbXbXPX~.- LXBX",
"ZX2X% 7X^.8XBX4X} K H t r 8 3 < , > + i xXBXBXyXbXBXbXPX/.- HXCX",
"ZX2X% 7X^.8XBXBXu.^ P H y e 8 3 , @ # y.BX8XyXBXBXBXbXPX(.- LXbX",
"ZX2X$ 7X^.8XbXBX;X.._ ! H t 9 4 2 1 B 8XBXBXyXyXbXBX8XPX~.- IXbX",
"ZX2XO 7X^.xXbXbXnX=X1./ L G r 8 5 :.-XBXyXyXyXBXBXBX8XPX/.- LXbX",
"ZX2X% zX(.BXZXZXuXBXyX{.e.;.>.r. XyXBXZXBXBXZXBXBXCXbXIX(.; LXCX",
"ZX2XX 5XzXnXnXnXnXnXMXnXxX7X8XnXnXMXnXnXMXnXnXnXnXnXcXGXf.- LXbX",
"ZX6XX O % O O O O O O $ $ $ O O O O O O O O O O $ O O %   j LXbX",
"BXCX6X2X2X2X2X2X2X2X2X2X2X2X2X2X2X2X2X2X2X2X2X2X2X2X5X,X5XbXbXAX",
"bXBXSXHXSXSXSXSXSXSXZXZXZXZXZXZXZXZXZXZXZXZXZXZXZXZXZXZXZXZXbXAX"
};
