/* XPM */
static char *mask_icon[] = {
/* columns rows colors chars-per-pixel */
"32 32 185 2",
"   c #000000",
".  c #010101",
"X  c #020202",
"o  c #030303",
"O  c #040404",
"+  c #050505",
"@  c #060606",
"#  c #070707",
"$  c #080808",
"%  c #090909",
"&  c #0A0A0A",
"*  c #0B0B0B",
"=  c #0C0C0C",
"-  c #0D0D0D",
";  c #0E0E0E",
":  c #0F0F0F",
">  c #101010",
",  c #111111",
"<  c #121212",
"1  c #131313",
"2  c #141414",
"3  c #151515",
"4  c #171717",
"5  c #181818",
"6  c #191919",
"7  c #1A1A1A",
"8  c #1B1B1B",
"9  c #1C1C1C",
"0  c #1D1D1D",
"q  c #1E1E1E",
"w  c #1F1F1F",
"e  c #202020",
"r  c #212121",
"t  c #222222",
"y  c #232323",
"u  c #242424",
"i  c #252525",
"p  c #272727",
"a  c #282828",
"s  c #292929",
"d  c #2A2A2A",
"f  c #2B2B2B",
"g  c #2C2C2C",
"h  c #2D2D2D",
"j  c #2E2E2E",
"k  c #2F2F2F",
"l  c #303030",
"z  c #313131",
"x  c #343434",
"c  c #353535",
"v  c #363636",
"b  c #393939",
"n  c #3A3A3A",
"m  c #3C3C3C",
"M  c #3D3D3D",
"N  c #3E3E3E",
"B  c #3F3F3F",
"V  c #404040",
"C  c #414141",
"Z  c #424242",
"A  c #434343",
"S  c #444444",
"D  c #454545",
"F  c #464646",
"G  c #474747",
"H  c #494949",
"J  c #4A4A4A",
"K  c #4B4B4B",
"L  c #4D4D4D",
"P  c #4E4E4E",
"I  c #4F4F4F",
"U  c #505050",
"Y  c #525252",
"T  c #535353",
"R  c #545454",
"E  c #585858",
"W  c #595959",
"Q  c #5A5A5A",
"!  c #5B5B5B",
"~  c #5D5D5D",
"^  c #5E5E5E",
"/  c #606060",
"(  c #626262",
")  c #636363",
"_  c #656565",
"`  c #676767",
"'  c #686868",
"]  c #696969",
"[  c #6C6C6C",
"{  c #6E6E6E",
"}  c #6F6F6F",
"|  c #707070",
" . c #717171",
".. c #747474",
"X. c #757575",
"o. c #767676",
"O. c #777777",
"+. c #787878",
"@. c #7A7A7A",
"#. c #7B7B7B",
"$. c #7C7C7C",
"%. c #808080",
"&. c #818181",
"*. c #838383",
"=. c #848484",
"-. c #868686",
";. c #878787",
":. c #898989",
">. c #8A8A8A",
",. c #8D8D8D",
"<. c #939393",
"1. c #949494",
"2. c #959595",
"3. c #969696",
"4. c #979797",
"5. c #9A9A9A",
"6. c #9B9B9B",
"7. c #9D9D9D",
"8. c #9E9E9E",
"9. c #A0A0A0",
"0. c #A1A1A1",
"q. c #A3A3A3",
"w. c #A4A4A4",
"e. c #A7A7A7",
"r. c #A8A8A8",
"t. c #ADADAD",
"y. c #AEAEAE",
"u. c #B1B1B1",
"i. c #B3B3B3",
"p. c #B5B5B5",
"a. c #B7B7B7",
"s. c #BABABA",
"d. c #BBBBBB",
"f. c #BCBCBC",
"g. c #BDBDBD",
"h. c #BEBEBE",
"j. c #C1C1C1",
"k. c #C3C3C3",
"l. c #C4C4C4",
"z. c #C6C6C6",
"x. c #C7C7C7",
"c. c #C8C8C8",
"v. c #C9C9C9",
"b. c #CACACA",
"n. c #CBCBCB",
"m. c #CCCCCC",
"M. c #CDCDCD",
"N. c #CFCFCF",
"B. c #D1D1D1",
"V. c #D2D2D2",
"C. c #D3D3D3",
"Z. c #D4D4D4",
"A. c #D7D7D7",
"S. c #D8D8D8",
"D. c #DADADA",
"F. c #DCDCDC",
"G. c #DDDDDD",
"H. c #DEDEDE",
"J. c #DFDFDF",
"K. c #E0E0E0",
"L. c #E1E1E1",
"P. c #E3E3E3",
"I. c #E6E6E6",
"U. c #E7E7E7",
"Y. c #E8E8E8",
"T. c #EAEAEA",
"R. c #EBEBEB",
"E. c #ECECEC",
"W. c #EDEDED",
"Q. c #EEEEEE",
"!. c #EFEFEF",
"~. c #F0F0F0",
"^. c #F1F1F1",
"/. c #F4F4F4",
"(. c #F5F5F5",
"). c #F6F6F6",
"_. c #F7F7F7",
"`. c #F8F8F8",
"'. c #F9F9F9",
"]. c #FAFAFA",
"[. c #FBFBFB",
"{. c #FCFCFC",
"}. c #FDFDFD",
"|. c #FEFEFE",
" X c gray100",
/* pixels */
"                                                                ",
"                                  +                             ",
"                        +   + + + + + +                         ",
"                  + + + & & = = = = = & & & +                   ",
"                  + & = , 7 7 r r r 0 2 2 , & + +               ",
"              + & = 2 r u z v n M n v k u 0 2 = & + +           ",
"            + & , 7 u v G I Q ^ / / Q Y G v u 7 = &             ",
"        +   & , 0 k C Y ) o.$.>.>.*.$.o.) T C k 0 , & +         ",
"          & , 0 z G ^  .>.7.e.y.u.y.e.7.>.o.^ G z 0 , +         ",
"        + = 7 a G ^ $.4.y.h.x.N.N.N.x.h.y.4.#./ G a 7 = +       ",
"      + & , u M Q #.5.p.x.D.K.I.U.U.K.D.x.p.5.#.Q M r , & +     ",
"      + = 7 z I  .<.p.M.K.U.~./././.~.U.F.M.u.4. .I z 7 & + +   ",
"      & , r M ^ *.r.x.F.Q./.{.{.{.{.'./.Q.F.z.r.$.^ M r , +     ",
"      & 2 a G [ 4.a.Z.U./.'.{.{.{.{.{.{./.I.N.a.4.[ G a , & +   ",
"    + & 2 k I o.7.j.F.Q.'.{.{.{.{.{.{.{.'.Q.F.h.7.o.I k 7 &     ",
"      = 7 z Y #.0.z.K.~.'.{.{.{.{.{.{.{.'.~.K.z.e.$.T z 2 & +   ",
"      & 7 z Y #.e.x.K.~.{.{.{.{.{.{.{.{.'.~.K.z.0.#.Y z 7 &     ",
"    + & 2 k Y #.7.z.F.~.'.{.{.{.{.{.{.{.'.~.K.z.7.#.I k 2 & +   ",
"    + & 2 k H  .5.a.D.U./.{.{.{.{.{.{.{./.U.D.a.4. .H k 2 & +   ",
"      + , r C / >.y.M.K.Q.'.'.{.{.{.{.'.~.K.M.y.>./ M u , &     ",
"      + = 0 v T #.7.h.Z.I.~././.'.'./.Q.I.N.a.5.#.T v 0 = +     ",
"      + & 2 a G / $.0.h.N.F.U.Q.Q.U.I.K.N.h.e.*./ C a 2 &       ",
"      + & = 7 z I ] >.0.a.x.N.D.D.D.N.x.a.0.>.] H z 0 , &       ",
"          & , r v I ] $.4.r.u.a.h.a.p.r.5.$.) I v r , &   +     ",
"          + = 2 r v H ^  .$.<.4.4.4.<.$. .^ H v u 2 & +         ",
"            + = 2 r k M Y ^ ) ] [ [ ) Q I M k r 2 & &           ",
"            + + = , 0 u k n C G H G C n k u 7 , & + +           ",
"                  & = , 7 0 r a a u u 0 7 , = & +               ",
"                  + + & = = , 2 , , , = & & +                   ",
"                      + + + + & & + & + + +                     ",
"                                +                               ",
"                                                                "
};
