/* XPM */
static char *material_icon[] = {
/* columns rows colors chars-per-pixel */
"13 13 98 2",
"   c black",
".  c #010101",
"X  c #020202",
"o  c #030302",
"O  c #030303",
"+  c #040404",
"@  c #050505",
"#  c #060606",
"$  c #080909",
"%  c #0B0B0A",
"&  c #0E0E0D",
"*  c #101010",
"=  c #121211",
"-  c #181818",
";  c #191919",
":  c #1D1C1B",
">  c #1F1E1D",
",  c #4A4946",
"<  c #4C4A48",
"1  c #53514E",
"2  c #585753",
"3  c #595754",
"4  c #5C5A56",
"5  c #5D5B58",
"6  c #5F5D5A",
"7  c #666666",
"8  c #6E6E6E",
"9  c #717171",
"0  c #878580",
"q  c #888580",
"w  c #898781",
"e  c #8C8984",
"r  c #8F8D87",
"t  c #8E8E8E",
"y  c #93908A",
"u  c #96948E",
"i  c #909090",
"p  c #959390",
"a  c #989590",
"s  c #989690",
"d  c #999691",
"f  c #989793",
"g  c #9A9792",
"h  c #999897",
"j  c #9E9C98",
"k  c #9E9C99",
"l  c #9F9D9A",
"z  c #C8C4BC",
"x  c #C9C5BD",
"c  c #CDC9C1",
"v  c #CDCAC2",
"b  c #CECAC2",
"n  c #D1CCC4",
"m  c #D1CDC4",
"M  c #D1CDC5",
"N  c #D2CEC6",
"B  c #D3CFC7",
"V  c #D4D0C8",
"C  c #D4D0C9",
"Z  c #D5D1C9",
"A  c #D5D1CA",
"S  c #D6D2CA",
"D  c #D7D3CA",
"F  c #D8D3CB",
"G  c #D8D4CB",
"H  c #D8D4CC",
"J  c #D9D5CD",
"K  c #DAD6CE",
"L  c #DCD8CF",
"P  c #DCD8D0",
"I  c #DDD8D0",
"U  c #E0DCD3",
"Y  c #E1DDD4",
"T  c #E1DDD5",
"R  c #E2DDD5",
"E  c #E7E6E3",
"W  c #E5E5E5",
"Q  c #ECEAE6",
"!  c #E8E8E8",
"~  c #E9E9E9",
"^  c #EBEBEC",
"/  c #EFEDEA",
"(  c #EFEEEB",
")  c #ECECEC",
"_  c #EEEEEE",
"`  c #F0F0F0",
"'  c #F2F2F1",
"]  c #F4F4F5",
"[  c #F5F5F4",
"{  c #F8F8F7",
"}  c #F8F8F8",
"|  c #F9F9F9",
" . c #FAFAFA",
".. c #FCFBFB",
"X. c #FCFCFC",
"o. c #FDFDFC",
"O. c #FEFEFE",
"+. c gray100",
/* pixels */
"B B B B B B B b b b b B B ",
"M Q +.[ [ +.h % > : = y I ",
"M ( +.+. .+.i   #     2 D ",
"M Q +.+.| +.i   $     5 D ",
"M / +.+. .+.i   O     4 D ",
"M E ] ' _ +.t   * & # 6 D ",
"U 2 $ ; ; # 9 | W ! _ f z ",
"Y ,   #     8 +.| +.+.l z ",
"Y <   # #   9 +.| +.+.j z ",
"Y ,         8 +.| +.+.j z ",
"Y 1     #   7 +.! _ ' u z ",
"B z r w 0 0 r g u s u s M ",
"B D I I I I K D D D D D D "
};
