/* XPM */
static char *photoshopLogo[] = {
/* columns rows colors chars-per-pixel */
"15 15 150 2",
"   c #18661A",
".  c #1C6F30",
"X  c #1F7427",
"o  c #003294",
"O  c #1E4992",
"+  c #1A4E9C",
"@  c #0855BB",
"#  c #1B55A2",
"$  c #0B6EA6",
"%  c #1365BA",
"&  c #0658C1",
"*  c #0D6BC4",
"=  c #0B7CCC",
"-  c #2569C9",
";  c #276AD1",
":  c #3471CA",
">  c #3977D6",
",  c #517AB7",
"<  c #278A53",
"1  c #358041",
"2  c #2E9E79",
"3  c #5BB672",
"4  c #0F88BB",
"5  c #2C9B98",
"6  c #348299",
"7  c #2F9CA8",
"8  c #3E9FB9",
"9  c #31A492",
"0  c #26A3B6",
"q  c #2B88CB",
"w  c #2483D8",
"e  c #2490C8",
"r  c #259ACE",
"t  c #3282DF",
"y  c #3389DA",
"u  c #3C96CE",
"i  c #3596D7",
"p  c #3F86E0",
"a  c #579F9E",
"s  c #4DA483",
"d  c #5BA48F",
"f  c #5EBF81",
"g  c #4FABBC",
"h  c #52B0A3",
"j  c #6F87AF",
"k  c #628BBC",
"l  c #719ABB",
"z  c #72A483",
"x  c #71B882",
"c  c #5C9ACB",
"v  c #51ADD7",
"b  c #5CB0C9",
"n  c #7DC09E",
"m  c #6BC8A4",
"M  c #7ACAB7",
"N  c #6FC6C5",
"B  c #9A9792",
"V  c #9A9892",
"C  c #9A9893",
"Z  c #9B9893",
"A  c #9F9B96",
"S  c #828CA5",
"D  c #8DA592",
"F  c #8DAA90",
"G  c #9CB6A3",
"H  c #A29D9A",
"J  c #ABB1BB",
"K  c #AAB4BE",
"L  c #B1B0B4",
"P  c #85D1A3",
"I  c #B1CEB9",
"U  c #BBC5BE",
"Y  c #A4CEC4",
"T  c #A9C3D1",
"R  c #BFDEE9",
"E  c #C2BFB7",
"W  c #C3C5C6",
"Q  c #C6CCCA",
"!  c #C9C5C0",
"~  c #C9C6C1",
"^  c #CDCAC3",
"/  c #CECBC3",
"(  c #CDCAC5",
")  c #CFD6D0",
"_  c #D0CCC4",
"`  c #D1CCC4",
"'  c #D1CDC4",
"]  c #D1CDC5",
"[  c #D2CDC5",
"{  c #D2CEC7",
"}  c #D3CFC6",
"|  c #D3CFC7",
" . c #D4CFC7",
".. c #D2CFCB",
"X. c #D3D0CB",
"o. c #D3D1CD",
"O. c #D4D0C8",
"+. c #D5D1C9",
"@. c #D6D2CA",
"#. c #D5D2CD",
"$. c #D5D2CE",
"%. c #D5D3CE",
"&. c #D7D3CC",
"*. c #D6D3CE",
"=. c #DAD3C7",
"-. c #DDD7CB",
";. c #DDD5CD",
":. c #DED8CB",
">. c #D2DCD7",
",. c #D9D7D2",
"<. c #DDD7D0",
"1. c #DCDFDE",
"2. c #DEDCDD",
"3. c #DFDCDE",
"4. c #DFDDDF",
"5. c #D2E0D3",
"6. c #DFE0DF",
"7. c #CEE5F3",
"8. c #E2D8CA",
"9. c #E0DFDF",
"0. c #E2E3E2",
"q. c #E2E7E4",
"w. c #E2EBE6",
"e. c #E3EFEF",
"r. c #E7E8E8",
"t. c #E7EEE8",
"y. c #EAE9E6",
"u. c #EAE9E7",
"i. c #EBEAE7",
"p. c #E8EEEF",
"a. c #ECEAE8",
"s. c #EDEDED",
"d. c #EBF3F4",
"f. c #F0EDE9",
"g. c #F0F0F0",
"h. c #F6F6F7",
"j. c #F7F9F8",
"k. c #FAFBFC",
"l. c #FAFCFC",
"z. c #FBFCFC",
"x. c #FBFDFC",
"c. c #FEFAFC",
"v. c #FCFCFC",
"b. c #FDFDFD",
"n. c #FCFEFD",
"m. c #FDFEFE",
"M. c #FEFEFE",
"N. c #FEFEFF",
"B. c #FEFFFF",
"V. c gray100",
/* pixels */
":.L S ( -.{ +.+.+.+.+.+.+. . .",
"W O o + J =.^ _ ` ` ` ` _ _  .",
"k @ - & # 0.f.u.a.a.i.a.i.*. .",
", ; > t * c m.m.m.m.m.m.m.,.` ",
"j : p y i $ T m.k.m.m.m.m.*._ ",
"K % w q v 8 6 d.m.m.m.m.m.*._ ",
"8.l = e b N 5 a p.m.m.m.m.*._ ",
"_ ;.u r g M m 2 Y m.m.m.m.*._ ",
"_ <.7.4 0 h P f n m.m.m.m.*._ ",
"_ o.m.R 7 9 s 3 x >.m.m.m.*._ ",
"_ *.m.m.e.d < . X I m.j.m.*._ ",
"_ o.m.m.m.w.z 1   F 0.m.h.o.[ ",
"_ *.m.m.m.m.m.t.5.) D G 3..._ ",
" .~ s.g.s.u.9.9.9.3.9.U Q !  .",
"=.E C C C C C C V V V H A E +."
};
