/* XPM */
static char *prepImagePlane_icon[] = {
/* columns rows colors chars-per-pixel */
"32 32 256 2",
"   c #000000",
".  c #050708",
"X  c #05080B",
"o  c #0B0B0B",
"O  c #0B0D12",
"+  c #0E1418",
"@  c #1C1E1E",
"#  c #131415",
"$  c #0D1C27",
"%  c #181F24",
"&  c #15232C",
"*  c #1D2124",
"=  c #1C262E",
"-  c #162732",
";  c #182731",
":  c #1A2933",
">  c #1A2C38",
",  c #1F303C",
"<  c #25282B",
"1  c #292B2D",
"2  c #21272C",
"3  c #202F3A",
"4  c #242D33",
"5  c #273036",
"6  c #23333E",
"7  c #2C343B",
"8  c #313336",
"9  c #333639",
"0  c #35383B",
"q  c #1E3240",
"w  c #343D44",
"e  c #393C40",
"r  c #263946",
"t  c #2E404C",
"y  c #34424C",
"u  c #3A444B",
"i  c #3F4E59",
"p  c #374752",
"a  c #403C2D",
"s  c #484E32",
"d  c #585838",
"f  c #6F4E2C",
"g  c #6E4F30",
"h  c #6E522E",
"j  c #685B38",
"k  c #7C4F2D",
"l  c #72583B",
"z  c #7B5539",
"x  c #464A4D",
"c  c #48494A",
"v  c #434E55",
"b  c #424F59",
"n  c #45535D",
"m  c #4F585E",
"M  c #4D555B",
"N  c #545455",
"B  c #565B5F",
"V  c #475661",
"C  c #495761",
"Z  c #4B5963",
"A  c #4E5E69",
"S  c #525C63",
"D  c #505E69",
"F  c #57704F",
"G  c #556446",
"H  c #54626D",
"J  c #5A6369",
"K  c #5A6872",
"L  c #785D42",
"P  c #6E6947",
"I  c #61764A",
"U  c #617B5A",
"Y  c #786B4C",
"T  c #7E6F56",
"R  c #757E5A",
"E  c #646768",
"W  c #656566",
"Q  c #626D74",
"!  c #6C7276",
"~  c #6F7A7F",
"^  c #66727B",
"/  c #72767A",
"(  c #787573",
")  c #7A7B7B",
"_  c #737474",
"`  c #6C7A85",
"'  c #6E7F8D",
"]  c #7B7E86",
"[  c #7E9969",
"{  c #7C9472",
"}  c #7F8085",
"|  c #768188",
" . c #7A8993",
".. c #824E2C",
"X. c #8D532D",
"o. c #8C5632",
"O. c #855939",
"+. c #97582F",
"@. c #975831",
"#. c #9A5D33",
"$. c #96623A",
"%. c #A05E33",
"&. c #A66336",
"*. c #AB6536",
"=. c #AC6A3B",
"-. c #A7683A",
";. c #B06D3F",
":. c #836C52",
">. c #896D50",
",. c #887356",
"<. c #9A6B43",
"1. c #947251",
"2. c #A56D41",
"3. c #AC7546",
"4. c #A9764A",
"5. c #A47C55",
"6. c #B47C4D",
"7. c #B07444",
"8. c #B67E50",
"9. c #849251",
"0. c #838363",
"q. c #97876A",
"w. c #998A6B",
"e. c #938E7E",
"r. c #9F8F72",
"t. c #978B71",
"y. c #969174",
"u. c #97917D",
"i. c #98A079",
"p. c #AC855B",
"a. c #B78455",
"s. c #AF8D64",
"d. c #A7906C",
"f. c #A49B79",
"g. c #AE9772",
"h. c #AB9C77",
"j. c #A89D78",
"k. c #B48D62",
"l. c #BC9267",
"z. c #BE9D6F",
"x. c #B7976E",
"c. c #B29475",
"v. c #B29C76",
"b. c #B79C74",
"n. c #B1B35B",
"m. c #ADA276",
"M. c #A4B974",
"N. c #B1A475",
"B. c #B6A27B",
"V. c #BCBF66",
"C. c #B6A663",
"Z. c #ABCA7F",
"A. c #C0A47B",
"S. c #CEB86B",
"D. c #CBB56B",
"F. c #D1BC6E",
"G. c #D5CA5E",
"H. c #C4CC71",
"J. c #C5DA77",
"K. c #CDDD77",
"L. c #CFDB79",
"P. c #C3D173",
"I. c #DBCB64",
"U. c #D8C369",
"Y. c #D7DE6E",
"T. c #DED66B",
"R. c #D0DE79",
"E. c #D3D774",
"W. c #E8D35F",
"Q. c #E3C760",
"!. c #E6CA62",
"~. c #E6CF68",
"^. c #E8CA61",
"/. c #EAD663",
"(. c #EBDA68",
"). c #F5D760",
"_. c #FCDF62",
"`. c #FCE25C",
"'. c #FFEA59",
"]. c #F7E060",
"[. c #F8E162",
"{. c #848483",
"}. c #878788",
"|. c #878A8E",
" X c #888782",
".X c #898883",
"XX c #8A8A8A",
"oX c #818D95",
"OX c #8E989E",
"+X c #86949D",
"@X c #938F80",
"#X c #91908F",
"$X c #999F80",
"%X c #979795",
"&X c #929FA8",
"*X c #88BC8B",
"=X c #98AF8A",
"-X c #9FA099",
";X c #9BBE8A",
":X c #92BA8C",
">X c #88A883",
",X c #9DA2A6",
"<X c #A89785",
"1X c #A6A181",
"2X c #ABA383",
"3X c #A5A985",
"4X c #ADAE90",
"5X c #A5BC8E",
"6X c #ADB48D",
"7X c #A8BD8F",
"8X c #A2B287",
"9X c #A9BE90",
"0X c #A9B996",
"qX c #B5A984",
"wX c #B6AD89",
"eX c #B7A680",
"rX c #B3B38D",
"tX c #B5B48B",
"yX c #B4B490",
"uX c #B4B992",
"iX c #B9B593",
"pX c #B8BB97",
"aX c #BAB99C",
"sX c #A1AEAC",
"dX c #AFB8A9",
"fX c #ACB1AB",
"gX c #B1B2AA",
"hX c #8CC58A",
"jX c #8BC693",
"kX c #9CC18B",
"lX c #97C389",
"zX c #9EC69D",
"xX c #9FC991",
"cX c #8ACFA2",
"vX c #9FC0A9",
"bX c #9CCEA1",
"nX c #9FD4A5",
"mX c #A4C492",
"MX c #AEC49C",
"NX c #A7CA9A",
"BX c #ACD289",
"VX c #B3C298",
"CX c #ABC2A3",
"ZX c #A6D2A9",
"AX c #A9D8AA",
"SX c #BACBA2",
"DX c #B4C0A4",
"FX c #B4D2A2",
"GX c #C3AB84",
"HX c #C3B18B",
"JX c #C5BC98",
"KX c #C5C49F",
"LX c #C4CBA5",
"PX c #C6D2A9",
"IX c #D9ED83",
"UX c #EBE08B",
/* pixels */
"{.{.{.{.{.{.{.{.{. X X} | ] ] {. X{.{.{.} {.{.{.{.{.{.{.{.{.{.{.",
"{.{.{.{.{.{.{.{.} U.).Q.D.N.e.{.] ] ] {.e.{.{.{.{.{.{.{.{.{.{.{.",
"{.{.{.{.{.{.{.{.} !.Y.BXR.(.(.~.F.B.u.{.] ] ] {.{.{.{.{.{.{.{.{.",
"{.{.{.{.{.{.{.{.} ^.J.cXbXzX;XM.V.G.W.~.F.B.e.{.] ] } {.{.{.{.{.",
"{.{.{.{.{.{.{.{.] ^.R.nXFXMX=X{ U F I 9.n.G./.!.S.N.u.{.] ] {.{.",
"{.{.{.{.{.{.{.{.] ^.R.ZXSXdX$XR P j d d G U [ M.H.T./.!.S.m.e.{.",
"{.{.{.{.{.{.{.{.] ^.R.ZXSX0Xy.:.l g g h l P [ [ >X:XkXZ.Z.'.m.] ",
"{.{.{.{.{.{.{. X] ^.R.ZXSX4Xt.:.z k k k k l l 0.i.8X8XlX:X].m.] ",
"{.{.{.{.{.{.{.{.} ^.K.ZXSX4Xr.,.O.o.X.X...z L ,.y.3X7X5XlX`.N.] ",
"{.{.{.{.{.{.{.{.} ^.R.ZXSXiXv.5.<.#.%.@.X...L :.t.m.4X5X;X`.m.] ",
"{.{.{.{.{.{.{.{.} ^.R.ZXLXJXeXs.6.2.%.%.@.o.z >.q.1X6X5X;X`.N.] ",
"{.{.{.{.{.{.{.{.} ^.R.ZXLXLXHXz.a.3.7.%.#.#.<.1.q.m.6X5XkX`.m.] ",
"{.{.{.{.{.{.{.{.} Q.J.AXPXLXJXA.k.6.;.*.*.&.2.5.d.2XrX9XkX`.N.] ",
"{.{.{.{.{.{.{.{.} !.IXCXDXPXJXGXl.6.;.*.*.=.4.5.g.qXrX9XkX`.N.] ",
"{.{.{.{.{.{.{.{.}.C.s b &XsXfXHXz.6.;.*.-.2.6.s.B.wXyX9X;X`.N.] ",
"{.{.{.{.{.{.{.}._ o O oX .D ' gXz.l.a.*.&.3.p.g.eXtXuX9X;X_.N.] ",
"{.{.{.{.{.{.{.XXc   w ` V C n +XGX,.( c.8.3.p.v.wXiXuX7X;X`.N.] ",
"{.{.{.{.{.{.{.XX<   7 V C C n ` aXa   9 ( <Xc.v.qXiXyX5X;X`.N.] ",
"{.{.{.{.{.{.}.XX@   w A b # p H ` 1       ; %XB.qXiXyX5X;X`.N.] ",
"{.{.{.{.{._ B Z 7 * b V ` m p t q X 8 x   O 4XqXwXiXuX5X;X`.m.] ",
"{.{.{.{.x 5 4 A ,XoXH V D K % > 3 M 8 / % < dX6XuXpXuX7X;X`.m.] ",
"{.{.XXE * 2 u ,XK D C C C y = 6 > u e 0 # 0 CX0XMXVXVX5X;X`.m.] ",
"{.{.XX< . 2 C H n V C V = q r , w v W x o c UXE.NXNXNXxXlX`.N.] ",
"{.}.( . . 7 V n n n C 4   ; - = ` Q XXXX( |.2X!._.L.kXjXhX`.m.] ",
"{.{.( o . y n A w % C o + : : = ; |  X] }.}.] {.f.Q._.J.lX`.N.] ",
"{. X] o . u V C ^ b u   & > > $ v ,X{.{.{.{.{.{.] ] j.!.[.'.m.] ",
"{.{.}.N . w C n Z A 5   & - 6 Z {.{.{.{.{.{.{.{.{.{.] {.h.I.f.] ",
"{.{.{.{.N u n V b D E % 6 v ! #X{.{.{.{.{.{.{.{.{.{.}.{.] ] {.{.",
"{.{.{.{.XX{.J J ^ ) #X) /  X X] {.{.{.{.{.{.{.{.{.{.{.{. X{.{.{.",
"{.{.{.{.{.XX{.{. X{.{.{.{.{.{.{.{.{.{.{.{.{.{.{.{.{.{.{.{.{.{.{.",
"{.{.{.{.{.{.{.{.{.{.{.{.{.{.{.{.{.{.{.{.{.{.{.{.{.{.{.{.{.{.{.{.",
"{.{.{.{.{.{.{.{.{.{.{.{.{.{.{.{.{.{.{.{.{.{.{.{.{.{.{.{.{.{.{.{."
};
