/* XPM */
static char *render_colorSwitcher[] = {
/* columns rows colors chars-per-pixel */
"32 32 242 2",
"   c #323103",
".  c #30300E",
"X  c #3A3904",
"o  c #223532",
"O  c #2E3D3D",
"+  c #396630",
"@  c #334342",
"#  c #3B454A",
"$  c #6C143A",
"%  c #730E34",
"&  c #7A112F",
"*  c #7C1330",
"=  c #58264B",
"-  c #444400",
";  c #5F5F05",
":  c #7B5C19",
">  c #616105",
",  c #696905",
"<  c #606F18",
"1  c #6F7913",
"2  c #777700",
"3  c #7C7B00",
"4  c #747513",
"5  c #747B12",
"6  c #424B4F",
"7  c #42535B",
"8  c #50555D",
"9  c #5D4965",
"0  c #52547F",
"q  c #5F5E76",
"w  c #46664F",
"e  c #466A42",
"r  c #4C6E4A",
"t  c #5B6E58",
"y  c #577C4D",
"u  c #597A53",
"i  c #5E7B5A",
"p  c #725543",
"a  c #755C4B",
"s  c #615B7E",
"d  c #637F5E",
"f  c #7D605D",
"g  c #666D6B",
"h  c #6A6967",
"j  c #6D6C6B",
"k  c #666473",
"l  c #686674",
"z  c #6E6A79",
"x  c #706F6C",
"c  c #706B7B",
"v  c #73726F",
"b  c #747372",
"n  c #7A7976",
"m  c #7E7C7B",
"M  c #0C04A6",
"N  c #0000BC",
"B  c #1304AE",
"V  c #1303B4",
"C  c #0902C4",
"Z  c #1500D4",
"A  c #0600E2",
"S  c #0300EF",
"D  c #090AFF",
"F  c #1000E4",
"G  c #1200EC",
"H  c #1400F5",
"J  c #1402FC",
"K  c #1A01F3",
"L  c #1B00FE",
"P  c #5C5D80",
"I  c #686385",
"U  c #706F89",
"Y  c #7A748E",
"T  c #7D7983",
"R  c #787295",
"E  c #7E779B",
"W  c #7C7D92",
"Q  c #7F7AA2",
"!  c #1CAA00",
"~  c #1FAB0E",
"^  c #27AD0A",
"/  c #29AE0B",
"(  c #0DC800",
")  c #10C400",
"_  c #1BC700",
"`  c #1BCB01",
"'  c #26C901",
"]  c #29CA05",
"[  c #25D000",
"{  c #5E8156",
"}  c #5A9949",
"|  c #618255",
" . c #63805E",
".. c #619D50",
"X. c #679C59",
"o. c #6E9F5E",
"O. c #6E8567",
"+. c #6E8768",
"@. c #6B8E6D",
"#. c #6D9162",
"$. c #6F9F60",
"%. c #7A8C7D",
"&. c #749C66",
"*. c #7A946E",
"=. c #7B9472",
"-. c #80122F",
";. c #9C2E27",
":. c #A3080C",
">. c #B43332",
",. c #B83839",
"<. c #8D6633",
"1. c #97752B",
"2. c #80615E",
"3. c #8A6A5E",
"4. c #836461",
"5. c #867672",
"6. c #817D7B",
"7. c #887874",
"8. c #94726F",
"9. c #9D786C",
"0. c #D40101",
"q. c #DC0000",
"w. c #E40000",
"e. c #E90000",
"r. c #F40001",
"t. c #FD0000",
"y. c #939300",
"u. c #989700",
"i. c #9B9900",
"p. c #B78200",
"a. c #BA810E",
"s. c #B58613",
"d. c #A3822F",
"f. c #A58330",
"g. c #AD8A32",
"h. c #BA8E26",
"j. c #A7A501",
"k. c #85827E",
"l. c #8A9E7B",
"z. c #A88F52",
"x. c #CE970F",
"c. c #CF9808",
"v. c #CC9510",
"b. c #CD9912",
"n. c #CA981A",
"m. c #D29C0D",
"M. c #D09A11",
"N. c #D4A10A",
"B. c #E39A00",
"V. c #E2A200",
"C. c #EDA400",
"Z. c #F2AD01",
"A. c #FDB400",
"S. c #FEBB00",
"D. c #FFC300",
"F. c #FFC800",
"G. c #F5F500",
"H. c #FDFD00",
"J. c #878280",
"K. c #858190",
"L. c #8B869E",
"P. c #8D8F98",
"I. c #8F9199",
"U. c #968581",
"Y. c #928F89",
"T. c #928F91",
"R. c #93918B",
"E. c #929F89",
"W. c #929291",
"Q. c #91939A",
"!. c #999B9A",
"~. c #918CA6",
"^. c #948DA8",
"/. c #94A38B",
"(. c #92AB92",
"). c #9EAB93",
"_. c #A09B98",
"`. c #A89792",
"'. c #AF9C96",
"]. c #B28987",
"[. c #A39CA7",
"{. c #A5A79D",
"}. c #A2AC97",
"|. c #B2AE9E",
" X c #A5A5A5",
".X c #A5A7AD",
"XX c #ABA8A2",
"oX c #ABABAB",
"OX c #A6B3A3",
"+X c #ACB0A9",
"@X c #B2AFA9",
"#X c #B6B3AD",
"$X c #B7BAAF",
"%X c #B8B6A6",
"&X c #B9B6AF",
"*X c #B4B4B4",
"=X c #B6B7B8",
"-X c #BAB7B1",
";X c #BEBCB3",
":X c #BBBBBB",
">X c #C1BDB5",
",X c #C0BCB9",
"<X c #CBBDBF",
"1X c #C1C7B3",
"2X c #C3C2BA",
"3X c #C4C9BA",
"4X c #C9C5B5",
"5X c #CAC5BC",
"6X c #CEC9BE",
"7X c #CFD1BF",
"8X c #D2CFBD",
"9X c #D5D1BC",
"0X c #C1C1C1",
"qX c #C7C7C8",
"wX c #C1CFC9",
"eX c #C8C6C2",
"rX c #CECAC3",
"tX c #CBCCCC",
"yX c #C8D5CD",
"uX c #D2CEC6",
"iX c #D4CFC8",
"pX c #DECED4",
"aX c #D2D0C5",
"sX c #D4D0C8",
"dX c #D9D6C6",
"fX c #DAD5CD",
"gX c #DED4D2",
"hX c #DFDBD1",
"jX c #DDDDDD",
"kX c #E2DECB",
"lX c #E0D0D5",
"zX c #E1DBD3",
"xX c #E6DCD9",
"cX c #E6E1D5",
"vX c #EBE4D6",
"bX c #EBE5D9",
"nX c #F0E9DF",
"mX c #E3E3E0",
"MX c #EDEDED",
"NX c #F2EAE0",
"BX c #F3F3F3",
"VX c #FEFEFE",
/* pixels */
"sXsXsXuXsXuXsXsXsXsXsXsXsXuXsXsXsXsXsXuXsXsXuXuXuXuXuXuXuXaXsXsX",
"sXsXsXsXsXsXuXsXuXsXuXsXsXsXuXsXuXsXuXfX#Xj b v v m n b b h XXfX",
"sXsXuXuXuXsXsXsXsXaXsXsXsXsXsXsXsXsXrXhXR.!.VXBXMX*XtXBXVX*Xk.hX",
"uXsXsXsXsXsXsXuXsXsXsXsXuXsXuXsXsXsXsXhXR. XVXBXb W.b 0XVX:XJ.hX",
"uXuXuXuXsXsXsXsXsXsXsXsXiXiXiXuXsXsXuXhXR. XVXmX XVX0Xb VX=XJ.hX",
"uXuXuX8XrXrXrXrXrXrXaXsXiXiXiXuXuXsXuXzXR. XVXVXVXBXj qXVX:XJ.zX",
"5X#X+X+X+X+XoX+X+XeXgXiXuXiXuXuXsXuXuXzXR. XVXBXVXm oXVXVX:Xk.zX",
",XY.2.2.2.2.2.2.4.8.'.iXuXiXuXuXsXsXtXzXR. XVXVXVXoXBXVXVX:XJ.zX",
"2X5.w.t.r.t.r.r.r.t.>.yXuXuXuXuXsXuXuXhXR. XVXVXVX*XBXVXVX:Xk.hX",
"2X7.e.t.t.t.t.t.r.t.,.wXuXrXuXuXuXuXuXhXR.W.MXjXjXjXjXjXMX Xk.zX",
"2X7.w.t.t.t.r.q.0.q.;.OX|.|.%X9XfXuXuXfX-Xv v v b b v b v v #XfX",
"2X7.e.t.t.t.w.:.$ % = P s q I R *XfXuXuXfXfXfXfXfXfXfXfXfXfXsXuX",
";X7.e.t.t.t.e.* D J J J J J L S Q kXuXuXsXaXuXuXuXuXuXuXaXuXsXsX",
"2X7.e.t.t.t.e.-.J L L L L K K G E 8X2X4X5X6XuXsXsXsXuXsXsXsXuXsX",
"eXU.w.t.t.t.e.* J L L J K Z C N P !.P.I.Q..XqXsXuXsXuXsXsXsXsXsX",
"fX`.q.t.t.e.w.* J L L L K V p <.1.g.1.f.f.g.z.eXsXuXsXsXuXsXuXsX",
"fX4X].4.a ].9.9 J L L L K B N.F.A.S.S.S.S.S.n.:XfXaXuXuXiXuXiXiX",
"uXfXmX(.@.bX3XU H L L L K B v.S.A.A.A.A.A.S.n.:XsXuXuXuXuXuXuXiX",
"aXrXgXE.+.gX4XY H L L L K V x.S.A.A.A.A.Z.C.s. X>X#X-X&X;XrXsXsX",
"sXaXhXE.+.gXfXL.A H H G F M x.S.A.A.A.A.V.p.: b 6.6.6.6.J._.5XsX",
"sXsXhXE.+.zXsX;X^.W 7 ^.L.q x.S.A.A.A.A.B.4 ~ / ^ ^ ^ ^ / ! &.lX",
"sXrXhXE.+.hXuXiXbXl.*.vXaXW.x.S.A.A.A.A.B.1 ` [ [ [ [ [ [ ` o.lX",
"iXuXhX/.O.zXuXsXrXr $XfXrX{.m.D.S.S.S.S.C.5 _ ' ' ' ' ' ' _ o.lX",
"iXiXhXE.O.gXuXgX).d fXuXfX=Xh.c.x.b.b.b.a.< _ ' ' _ ' ' ' _ o.lX",
"uXqXgXE.+.gXeXhXi /.gX6XrXhX%.w =X:X=X=X[.u _ ' ' ' ' ' ' _ o.gX",
"zXzXNX).*.NXcX1X{ cXcXcXbX1Xy 9XhXdXfXzX<X| _ ' ' ' ' ' ' _ $.gX",
"6.k z 8 6 z z @ O c l l z o # T 5XzX2X/.t + ] ' ' ' ' ' ] _ $.gX",
"X i.y.u.i.y.y.i.i.y.y.y.y.y.j.- g =.e O.{.#.) ` _ ` ` ` ` ( X.pX",
"> H.H.H.H.H.H.H.H.H.H.H.H.H.H.3 @ /.1XfXxX}.} ..} ........} /.gX",
"; H.G.H.H.H.G.H.H.H.H.G.H.G.H.2 K.nXsXuXsXiXpXpXpXpXpXpXpXpXfXsX",
"; H.H.H.H.H.H.H.H.H.H.H.H.H.H.3 T zXuXuXuXuXaXaXsXaXaXaXuXaXtXsX",
". > ; > > > > ; > > ; ; ; ; ,   W.hXuXuXsXsXsXsXsXsXuXaXsXaXsXsX"
};
