/* XPM */
static char *render_freefresnel[] = {
/* columns rows colors chars-per-pixel */
"32 32 244 2",
"   c #002903",
".  c #003102",
"X  c #04350B",
"o  c #023C0D",
"O  c #0B3409",
"+  c #162705",
"@  c #102812",
"#  c #1E2B1F",
"$  c #123407",
"%  c #1F361F",
"&  c #2E3B2F",
"*  c #03410D",
"=  c #004B07",
"-  c #004011",
";  c #005A08",
":  c #164019",
">  c #1B4220",
",  c #076E11",
"<  c #0A7915",
"1  c #3D473E",
"2  c #400079",
"3  c #4F007F",
"4  c #51006E",
"5  c #55007A",
"6  c #5D0075",
"7  c #6C005E",
"8  c #7A004E",
"9  c #7C005E",
"0  c #66006E",
"q  c #6C006A",
"w  c #610174",
"e  c #750063",
"r  c #7C0260",
"t  c #626762",
"y  c #657967",
"u  c #757675",
"i  c #1A0094",
"p  c #0300A7",
"a  c #0000AD",
"s  c #0B00A1",
"d  c #0E00AE",
"f  c #0900B2",
"g  c #1700A7",
"h  c #1500AA",
"j  c #1B00A4",
"k  c #2E0088",
"l  c #25019E",
"z  c #29009A",
"x  c #3A008E",
"c  c #330093",
"v  c #2100A0",
"b  c #440086",
"n  c #410089",
"m  c #4C0081",
"M  c #6A54BE",
"N  c #564DC6",
"B  c #5751C8",
"V  c #068C14",
"C  c #0C8D1A",
"Z  c #069414",
"A  c #089617",
"S  c #0D941D",
"D  c #10961E",
"F  c #11991E",
"G  c #0F972B",
"H  c #0F982E",
"J  c #139B21",
"K  c #199C27",
"L  c #1D9E2A",
"P  c #149A33",
"I  c #1D9E36",
"U  c #0FA01E",
"Y  c #13A122",
"T  c #11A12A",
"R  c #2D8B37",
"E  c #358920",
"W  c #35873D",
"Q  c #21A136",
"!  c #29A336",
"~  c #2BAA3F",
"^  c #39AA45",
"/  c #3CAB48",
"(  c #47AF51",
")  c #52B35C",
"_  c #57B761",
"`  c #5CB466",
"'  c #6BBB74",
"]  c #68C235",
"[  c #75C02D",
"{  c #6EC177",
"}  c #79BD80",
"|  c #7AC482",
" . c #9F0036",
".. c #A7003F",
"X. c #AD013C",
"o. c #BD002E",
"O. c #B30036",
"+. c #B20239",
"@. c #BA0031",
"#. c #B53B05",
"$. c #860057",
"%. c #82005A",
"&. c #8C0053",
"*. c #94004B",
"=. c #9E0045",
"-. c #990049",
";. c #910353",
":. c #A20043",
">. c #994E00",
",. c #807E00",
"<. c #A3584A",
"1. c #D5001E",
"2. c #DB0019",
"3. c #C2002B",
"4. c #CC0024",
"5. c #C10430",
"6. c #D10020",
"7. c #D31434",
"8. c #D11F3E",
"9. c #EB000D",
"0. c #E40014",
"q. c #F60106",
"w. c #F00009",
"e. c #FB0301",
"r. c #FE0B00",
"t. c #FE1300",
"y. c #FB1209",
"u. c #FF1B00",
"i. c #EF3908",
"p. c #FE2200",
"a. c #FE2B00",
"s. c #FE3300",
"d. c #FE3C00",
"f. c #FD3528",
"g. c #D36700",
"h. c #FE4500",
"j. c #FE4900",
"k. c #FE5400",
"l. c #FE5C00",
"z. c #FD4F34",
"x. c #FE6400",
"c. c #FF6B02",
"v. c #FE7201",
"b. c #FE7A00",
"n. c #D7604E",
"m. c #DB7247",
"M. c #E64556",
"N. c #FD4F4A",
"B. c #FC7E78",
"V. c #8764B8",
"C. c #A97BB6",
"Z. c #F37E86",
"A. c #858400",
"S. c #8C8B00",
"D. c #939002",
"F. c #B39500",
"G. c #A0A800",
"H. c #B2AF00",
"J. c #B3B200",
"K. c #86C828",
"L. c #98CE23",
"P. c #AAD61E",
"I. c #BADE1A",
"U. c #CB930D",
"Y. c #FD8500",
"T. c #FE8C00",
"R. c #FE9400",
"E. c #FE9A00",
"W. c #EDAA00",
"Q. c #FEA400",
"!. c #FEA800",
"~. c #FEB600",
"^. c #FEBA00",
"/. c #C6C400",
"(. c #C8C700",
"). c #CCCA00",
"_. c #D0CD01",
"`. c #DFDC00",
"'. c #E1DE00",
"]. c #FEC400",
"[. c #FECD00",
"{. c #FED301",
"}. c #FEDB00",
"|. c #E7E400",
" X c #EAE700",
".X c #EEEC00",
"XX c #F1EE00",
"oX c #FFE500",
"OX c #FFED00",
"+X c #F6F600",
"@X c #FBF500",
"#X c #FEFC00",
"$X c #8F9190",
"%X c #9D9C9D",
"&X c #BC9D9A",
"*X c #A6A6A6",
"=X c #A6A9A7",
"-X c #ABAAAB",
";X c #ABB2AC",
":X c #B7B7B7",
">X c #B5B9BD",
",X c #B9B9B9",
"<X c #AAA1DB",
"1X c #B6A4D5",
"2X c #AAA7E0",
"3X c #88C18D",
"4X c #96C89B",
"5X c #9AD3A0",
"6X c #A9D6AE",
"7X c #B5DFBA",
"8X c #F48D93",
"9X c #FEB2B0",
"0X c #FFB9B6",
"qX c #CB9EC0",
"wX c #C7AFD3",
"eX c #D9BFD6",
"rX c #C2C1C1",
"tX c #C9CAC9",
"yX c #CDD4D3",
"uX c #D2D2D2",
"iX c #DCDDDC",
"pX c #C4E5C8",
"aX c #DEE7E7",
"sX c #DFF1E1",
"dX c #E4C5D4",
"fX c #E0DFDF",
"gX c #F1CCCA",
"hX c #FBC1C3",
"jX c #FBDAD8",
"kX c #E0DEE0",
"lX c #EBDAE2",
"zX c #E3E3E3",
"xX c #E9E8E7",
"cX c #EAEAEA",
"vX c #E6F4E8",
"bX c #EFF0EF",
"nX c #F5EEEF",
"mX c #F4EFF4",
"MX c #F3F3F3",
"NX c #F5F9F4",
"BX c #F5FEFD",
"VX c #FBF6F6",
"CX c #FBF3FA",
"ZX c #FEFEFE",
/* pixels */
"ZXZXZXZXZXZXZXZXZXZXZXZXZXZXZXZXZXZXZXZXZXZXZXvXvXZXZXZXZXZXZXZX",
"ZXZXZXZXZXZXZXZXZXZXZXZXZXZXZXZXZXZXZXZXZXZXBX{ ) MXZXZXZXZXZXZX",
"ZXZXZXZXZXZXZXZXZXZXZXZXZXZXZXZXZXZXZXZXZXZX5X! Z ) MXVXZXZXZXZX",
"B N M V.C.qXdXmXZXZXZXZXZXZXZXZXZXZXZXZXZXpX^ J F Z ` MXVXZXZXZX",
"a s k 4 8 ..o.7.M.8XjXZXZXZXZXBX7XBXZXZXvX_ J F J J Z ' CXNXZXZX",
"h c w ;.3.0.q.e.e.e.y.N.9XVXZXNX( ' ZXZX| L S J D D J A } CXVXZX",
"v b %.@.9.r.p.h.l.c.x.j.a.z.0XvX/ Z { 6X! D F F D D F J A 3XZXBX",
"z 6 =.2.e.a.l.T.^.[.{.{.^.Y.j.m.~ F L ! J J F F F F F F J F 4XCX",
"c 0 +.9.t.k.E.{.@X#X#X#X#X+X{.U.Q S F S F F F F F F F Y J ; % tX",
"c q @.q.p.b.].@X#X#X#X#X#X#X#XI.I F F J F F F F S J J < . & %XyX",
"c q 3.q.s.T.}.#X#X#X#X#X#X#X#XP.P F F F F F F F Y D = @ t *X:XtX",
"z 0 @.q.s.E.oX#X#X#X#X#X#X#X#XL.H F F F F F F F ,   1 $X=X=X,XyX",
"l 5 X.9.a.R.oX#X#X#X#X#X#X#X#XK.H F F F F F F < # u *X*X;XrXuXzX",
"h b -.0.u.b.}.#X#X#X#X#X#X#X#X[ G F F F F F J S W =X-X:XtXfXxXMX",
"d c 9 4.r.l.].#X#X#X#X#X#X#X@X] T F F F S C C G V R ;XuXzXMXVXZX",
"f j 6 O.q.d.Q.@X#X#X#X#X#X#X#XE * * * O O O $ + % > y kXbXVXZXZX",
"f d x $.2.t.v.}.#X#X#X#X#X#X+XG.S.A.,.,.A.S.D.>.<.>XrXiXMXVXZXZX",
"f d l 6 O.q.s.!.@X#X#X#X#X#X#X+X|./.J.J.H.H.J.F.#.&XyXfXMXZXZXZX",
"f f d x %.1.r.x.[.#X#X#X#X#X#X X`._.).(.).).).).g.n.aXcXMXZXZXZX",
"f f f h 5 :.9.p.Y.oX#X#X#X#X#X+XXX X|.|. X X X.XW.i.gXBXVXZXZXZX",
"f f f f z q @.w.s.E.OX#X#X#X#X#X#X+X+X+X+X@X@X#X{.j.B.ZXZXZXZXZX",
"f f f f d c 9 4.r.h.Q.OX#X#X#X#X#X#X#X#X#X#X#X#X}.x.f.VXZXZXZXZX",
"f f f f f h b $.1.r.h.Q.oX#X#X#X#X#X#X#X#X#X#X#X}.v.r.hXZXZXZXZX",
"f f f f f f j m &.1.r.h.R.}.#X#X#X#X#X#X#X#X#X#X[.v.e.Z.ZXZXZXZX",
"f f f f f f f j m &.1.e.s.b.].OX#X#X#X#X#X#X#XoX!.k.e.M.ZXZXZXZX",
"f f f f f d f f j m $.3.q.u.k.R.[.oX@X#X#X@XoX^.b.s.e.8.VXZXZXZX",
"f f f f f f f f f g n e O.0.r.a.l.Y.Q.^.^.^.E.v.j.t.9.+.lXZXZXZX",
"f f f f f f f f f f h c 0 -.4.9.r.u.d.k.l.l.j.s.t.q.1.-.dXZXZXZX",
"f f f f f f f f f f f d l m 9 ..4.9.q.r.t.r.r.r.w.1.X.e wXZXZXZX",
"f f f f f f f f f f f f f h c 5 9 =.o.6.1.0.2.1.3.:.9 2 1XBXZXZX",
"f f f f f f f f f f f f f f d j c m 0 9 &.*.*.&.r 0 m i <XZXBXZX",
"f f f f f f f f f f f f f f f f d j z c b m 5 m b c v p 2XZXZXZX"
};
