/* XPM */
static char *select_icon[] = {
/* columns rows colors chars-per-pixel */
"13 13 98 2",
"   c #702221",
".  c #6F514F",
"X  c #774947",
"o  c #7F837E",
"O  c #963939",
"+  c #AB1010",
"@  c #AE2021",
"#  c #8A5655",
"$  c #80625F",
"%  c #887571",
"&  c #C20E0F",
"*  c #C42D2D",
"=  c #D33D3C",
"-  c #D73B3B",
";  c #E91616",
":  c #FC0000",
">  c #FE0000",
",  c #FF0202",
"<  c #FB0808",
"1  c #F91F20",
"2  c #FF2122",
"3  c #FF3131",
"4  c #F4413F",
"5  c #C24546",
"6  c #EC4B48",
"7  c #FA4647",
"8  c #FF4647",
"9  c #FF4948",
"0  c #FF4949",
"q  c #F65B5A",
"w  c #81827E",
"e  c #DA807B",
"r  c #8B8C87",
"t  c #8C938D",
"y  c #91958F",
"u  c #AF938D",
"i  c #A8ADA7",
"p  c #ADB6AF",
"a  c #ABBAB2",
"s  c #BFC5BD",
"d  c #C1B1AB",
"f  c #CDB0A9",
"g  c #DBA7A0",
"h  c #DAB2AC",
"j  c #D7BFB7",
"k  c #D9BDB6",
"l  c #EBA49E",
"z  c #E0A7A1",
"x  c #E8ACA6",
"c  c #D6C0B8",
"v  c #CBCFC7",
"b  c #CFCFC7",
"n  c #CEDDD4",
"m  c #CFDCD4",
"M  c #D1CCC4",
"N  c #D1CDC5",
"B  c #D2CCC4",
"V  c #D3CCC4",
"C  c #D3CDC5",
"Z  c #D2CEC6",
"A  c #D3CEC6",
"S  c #D3CFC7",
"D  c #D4CCC4",
"F  c #D4CDC5",
"G  c #D4CDC6",
"H  c #D4CEC6",
"J  c #D4CFC7",
"K  c #D5CFC7",
"L  c #D0D2C9",
"P  c #D3D0C8",
"I  c #D3D2CA",
"U  c #D1D6CD",
"Y  c #D2D5CD",
"T  c #D2D7CE",
"R  c #D4D0C8",
"E  c #D5D0C8",
"W  c #D4D2CA",
"Q  c #D6D0C8",
"!  c #D5D4CC",
"~  c #D5D6CE",
"^  c #D9D2CA",
"/  c #DDD7CF",
"(  c #DED5CD",
")  c #D0DBD2",
"_  c #D2D8D0",
"`  c #D1DDD4",
"'  c #D3DDD5",
"]  c #D6DBD2",
"[  c #D7DBD2",
"{  c #D6DCD4",
"}  c #D9D9D1",
"|  c #DAD9D1",
" . c #DDDAD1",
".. c #DFDAD1",
"X. c #DFDBD3",
"o. c #E1DBD3",
"O. c #E2DCD4",
"+. c #E8E5DC",
/* pixels */
"R R R R R R R R K H I o.R ",
"R R R R R R R R H ' f % I ",
"R R R R R H R H n x   y ..",
"R R H H R H H n l + o +.N ",
"R H I ~ H H T g ; . ) H R ",
"H U c g T U h 3 O a ( N R ",
"H ' 6 < c k 0 - o ' N R R ",
"` e : : 4 q 0 # c ^ H R R ",
"| u & : 1 0 5 r o.N R R R ",
"H | i * 2 7 X v R R R R R ",
"R H X.p = @ t O.N R R R R ",
"R R N | d $ L R R R R R R ",
"R R R N I L R R R R R R R "
};
