/* XPM */
static char *switch_TargetObject_icon[] = {
/* columns rows colors chars-per-pixel */
"22 22 236 2",
"   c #02050D",
".  c #090808",
"X  c #00001E",
"o  c #040B10",
"O  c #000A28",
"+  c #091226",
"@  c #041535",
"#  c #01163C",
"$  c #011A3C",
"%  c #0F212E",
"&  c #21211F",
"*  c #262423",
"=  c #282728",
"-  c #292826",
";  c #2E2D2B",
":  c #233030",
">  c #302F2D",
",  c #302138",
"<  c #32302E",
"1  c #343330",
"2  c #000B4A",
"3  c #001344",
"4  c #00124F",
"5  c #041B4D",
"6  c #0A1E46",
"7  c #00155E",
"8  c #041C52",
"9  c #021E5C",
"0  c #001860",
"q  c #0A2047",
"w  c #0D244A",
"e  c #0E284D",
"r  c #062251",
"t  c #0B2A5B",
"y  c #08335A",
"u  c #102B4F",
"i  c #122E51",
"p  c #173C56",
"a  c #1A3953",
"s  c #032162",
"d  c #07256A",
"f  c #072860",
"g  c #082365",
"h  c #092A61",
"j  c #0F346B",
"k  c #212844",
"l  c #2C2E43",
"z  c #263B4B",
"x  c #2B394F",
"c  c #263957",
"v  c #323A50",
"b  c #104262",
"n  c #304061",
"m  c #3E4D64",
"M  c #711E1D",
"N  c #7F3A75",
"B  c #4D5252",
"V  c #484F62",
"C  c #4D5363",
"Z  c #4D5A73",
"A  c #545F6E",
"S  c #595867",
"D  c #5F6B5E",
"F  c #5B6969",
"G  c #55647E",
"H  c #674949",
"J  c #6E4452",
"K  c #794A4A",
"L  c #646C64",
"P  c #756462",
"I  c #70796D",
"U  c #7D7F79",
"Y  c #124693",
"T  c #114899",
"R  c #1F4E96",
"E  c #13509F",
"W  c #1D519F",
"Q  c #0F54BA",
"!  c #1153AC",
"~  c #1D55A5",
"^  c #1E56AA",
"/  c #1356B4",
"(  c #1D5BB4",
")  c #1B5CBC",
"_  c #224F96",
"`  c #2E5288",
"'  c #225199",
"]  c #365F9E",
"[  c #2054A1",
"{  c #2057A9",
"}  c #245BAA",
"|  c #2464BF",
" . c #3967B1",
".. c #0D55C3",
"X. c #0C5BCF",
"o. c #0B5FD8",
"O. c #1459C0",
"+. c #1A5FC3",
"@. c #0069DE",
"#. c #0D61DC",
"$. c #0D6BD6",
"%. c #1361C0",
"&. c #1B60C6",
"*. c #1A62CD",
"=. c #1964D3",
"-. c #1B69D8",
";. c #2666C3",
":. c #2A68C3",
">. c #296DCB",
",. c #2E66D1",
"<. c #2F77D5",
"1. c #336DC3",
"2. c #3064D0",
"3. c #336BD6",
"4. c #366ED9",
"5. c #3374CE",
"6. c #3874CB",
"7. c #3874DD",
"8. c #3878DF",
"9. c #397BE1",
"0. c #4D448A",
"q. c #526482",
"w. c #426EB6",
"e. c #4A77B7",
"r. c #5066AF",
"t. c #5B7BAA",
"y. c #567AB0",
"u. c #5D7DB0",
"i. c #6C4587",
"p. c #3D85E7",
"a. c #3E89E9",
"s. c #3B90F1",
"d. c #5D83B9",
"f. c #7E8788",
"g. c #7F8998",
"h. c #6187BF",
"j. c #758DAF",
"k. c #7B84B4",
"l. c #5E85C1",
"z. c #408CEB",
"x. c #4CBBFF",
"c. c #53B0F9",
"v. c #6C94D4",
"b. c #7198C4",
"n. c #7998C7",
"m. c #6E9CE6",
"M. c #6BA3CE",
"N. c #A43439",
"B. c #A4383F",
"V. c #B6393D",
"C. c #8E3254",
"Z. c #94605F",
"A. c #A34343",
"S. c #CD182C",
"D. c #C21E31",
"F. c #D72D3B",
"G. c #EE171C",
"H. c #F50B0D",
"J. c #FD0201",
"K. c #FC0A04",
"L. c #FB0B0A",
"P. c #F61414",
"I. c #F61719",
"U. c #FD1312",
"Y. c #FC1E1D",
"T. c #E51F26",
"R. c #FF201F",
"E. c #E43B3C",
"W. c #F42222",
"Q. c #FC2423",
"!. c #FC2C2C",
"~. c #F1363C",
"^. c #FB3333",
"/. c #FF3B3B",
"(. c #DB3042",
"). c #D65459",
"_. c #E44646",
"`. c #ED4B56",
"'. c #EA5E5D",
"]. c #F15151",
"[. c #F35B59",
"{. c #F06667",
"}. c #866E9A",
"|. c #808388",
" X c #8D8F85",
".X c #8C8B8E",
"XX c #8A8D94",
"oX c #9F8B91",
"OX c #95938E",
"+X c #98979A",
"@X c #9C9A93",
"#X c #9C9B9C",
"$X c #818FA2",
"%X c #8897AF",
"&X c #8F9FBB",
"*X c #9599A0",
"=X c #949EAE",
"-X c #9E9EA0",
";X c #9FA5A8",
":X c #A29E9A",
">X c #A4A19D",
",X c #ABA49D",
"<X c #A8AB9E",
"1X c #A3A2A5",
"2X c #A7A6A8",
"3X c #A3AAA3",
"4X c #A9A7A3",
"5X c #A9A6A9",
"6X c #ABA8A4",
"7X c #A0A7B2",
"8X c #ACB3B2",
"9X c #ADB2BB",
"0X c #B3B9B7",
"qX c #B6BAB9",
"wX c #BDBDBE",
"eX c #BFBFC0",
"rX c #BFCECC",
"tX c #C4999C",
"yX c #D4948F",
"uX c #C0BDB9",
"iX c #CABBB3",
"pX c #D8A3A3",
"aX c #C4C1BC",
"sX c #C3C2C3",
"dX c #C7C7C9",
"fX c #C3C9CA",
"gX c #C9C6C1",
"hX c #C9C7C9",
"jX c #CDCAC6",
"kX c #CDCBCA",
"lX c #CBD3D3",
"zX c #D2CEC9",
"xX c #D1CFD1",
"cX c #D4D6CF",
"vX c #DAD5CC",
"bX c #DAD7D1",
/* pixels */
"  6 6 6 w w w w e e e i i i y v M a p p p o ",
"+ 2.3.,.3.3.7.7.8.z.p.p.z.s.m.`.L.(.v.x.c.% ",
"= qX8XdX8XaX0XwXsX8XkXcXlXlX[.K.P.J.H.tXrX= ",
"> <XL @XF OXI U  XF :X,X3XyXU.Y.Y.I.J.Y.iX= ",
"> 6X.X5X5X1X2X1X1X5X1X-X;XE.U.!.!.Y.P.J.'.: ",
"< 6X-XxXdXdXdXkXzXfXsXcXpXU.Q.^.^.Q.Y.L.!.H ",
"> 6X#XdXaXgXaX9Xb.}.k.M.).L.^.^./._.A.K P & ",
"> 6X#XkX7Xj.e.;.@.C.~.>.S.Y.^.[.Z.B F |.:X& ",
"< 4X:Xn.;.( / +.@.i.K.F.G.Q.{.m z :XqXsXzX- ",
"> 4X1Xy.( 6.5.:.*.0.L.L.L./.S X V kXeXsXjX- ",
"> 4X>Xt.T ' } 1.<.r.I.L.L.R.N., A dXeXsXjX- ",
"< 4X1Xt.! ( W R } w.T.L.J.J.Y.].oXeXeXeXjX- ",
"; 4X>Xt.Q &.( W _ E D.L.W.V.J u C aXeXeXjX- ",
"< 4X>Xd.X.*.+.^ ' ! C.B.l $ 6 2 Z kXeXsXjX= ",
"< 4X>Xl.#.=.*.) ' ^ j # 3 8 0 7 G kXeXsXjX- ",
"< 4X,Xl.#.-.*.&.^ { h @ 6 9 d 7 q.kXuXaXjX- ",
"; 4X>X&X..#.-.&.^ ^ h @ 8 s 0 4 g.kXeXsXkX= ",
"< 6X#XkX=X ...) ^ ~ t $ 3 3 n +XdXwXeXsXjX= ",
"< 4X#XhXgXaX%X] Y W w O x XXgXhXwXuXsXsXjX- ",
"; 4X+XhXwXwXgXwX$X` c |.sXhXwXwXrXwXuXsXgX= ",
"; aXwXcXjXkXjXkXvXaXjXvXzXjXjXjXjXzXjXzXzX; ",
". < < < < < < < > < 1 < < < < < < < < > > . "
};
