/* XPM */
static char * image_name[]={
"33 33 83 2",
"  	c #CFCFCF",
". 	c #D1D1D1",
"X 	c #BABABA",
"o 	c #ADADAD",
"O 	c #C9C9C9",
"+ 	c #D6D6D6",
"@ 	c #D4D4D4",
"# 	c #D9D9D9",
"$ 	c #BD52BD",
"% 	c #232375",
"& 	c #592F71",
"* 	c #735694",
"= 	c #919191",
"- 	c #B3B3B3",
"; 	c #CCCCCC",
": 	c #5E5E5E",
"> 	c #878787",
", 	c #5C5C5C",
"< 	c #2F2F64",
"1 	c #969696",
"2 	c #B8B8B8",
"3 	c #595959",
"4 	c #636363",
"5 	c #413081",
"6 	c #9E9E9E",
"7 	c #D8BFD8",
"8 	c #9C9C9C",
"9 	c #8F8F8F",
"0 	c #949494",
"q 	c #6A6A8D",
"w 	c #999999",
"e 	c #483784",
"r 	c #A1A1A1",
"t 	c #A3A3A3",
"y 	c #4A3986",
"u 	c #A6A6A6",
"i 	c #C7C7C7",
"p 	c #ABABAB",
"a 	c #8A8A8A",
"s 	c #4955A5",
"d 	c #B5B5B5",
"f 	c #666666",
"g 	c #8C8C8C",
"h 	c #575757",
"j 	c #616161",
"k 	c #858585",
"l 	c #B0B0B0",
"z 	c #BDBDBD",
"x 	c #C2C2C2",
"c 	c #483E81",
"v 	c #828282",
"b 	c #B7644D",
"n 	c #FF6347",
"m 	c #787878",
"M 	c #FF0000",
"N 	c #6E6E6E",
"B 	c #A52A2A",
"V 	c #9B7071",
"C 	c #778899",
"Z 	c #696969",
"A 	c #D11619",
"S 	c #91535D",
"D 	c #73234E",
"F 	c #708090",
"G 	c #DA322D",
"H 	c #DEB887",
"J 	c #F5280A",
"K 	c #4E125D",
"L 	c #7A7A7A",
"P 	c #F08080",
"I 	c #6B3939",
"U 	c #0D0D0D",
"Y 	c #1F1F1F",
"T 	c #303030",
"R 	c #707070",
"E 	c #8E2323",
"W 	c #4D4D4D",
"Q 	c #4A4A4A",
"! 	c #509F69",
"~ 	c #F5DEB3",
"^ 	c #6B6B6B",
"/ 	c #B3B37E",
"( 	c #A8A8A8",
"                . X o O + + @ .                                   ",
"                # $ % & * = - ; + + @                             ",
"                + $ : > , < < & * 1 2 . # + .                     ",
"                + = 3 1 = = = 4 % & % 5 * 6 7 . # + .             ",
"                + 8 , = 9 9 0 q < w > : & % % e * r 7 . + + .     ",
"                @ t : w = 9 0 q % 9 = 0 0 0 q % < % % y q u i + . ",
"                @ p % 3 q a w q < 9 9 9 9 = q % a 9 q : < % % s d ",
"                @ d & 4 < % : f < 1 = 9 9 = q % $ = = 0 0 g q % 1 ",
"                @ d h 0 9 q j % % , q a 0 0 q % q = 9 9 9 = a % w ",
"        @ @ @ . . X < a 9 = 1 $ % h % % 3 q $ % k = 9 9 9 = q % w ",
"    @ . - u l O # i & g 9 9 = $ % 9 g q , % % % q = 1 0 9 = q % w ",
"  @ z * % < & s $ 2 & q 0 = = q % > = = 0 a q % % % 3 q 9 w > % w ",
". x % < 9 = 0 3 < c % < & q = g < > 9 9 9 = a % q q & % % j q % w ",
"@ * j j k = 0 j $ $ % 4 q % < f % a 0 9 9 = k % q 1 0 a q < % % 8 ",
"2 & = q j 0 0 , q w > < q = q & % & q 0 0 = $ % q = 9 = 0 0 q % w ",
"6 j 1 0 h v 1 , q = 0 $ < v 0 = % & % < q = 9 % q 0 a 9 9 = a % w ",
"w q 0 0 q j 8 , q = = 1 % & 9 g % $ 9 q < % j % q 1 b n 9 = q % w ",
"8 q w = 0 h > j q 1 9 < & & m 0 % q 0 0 9 q & % < q b M b 9 q % w ",
"w % f > 8 q 4 4 $ = % & 8 q % N < q = 9 9 0 0 % < % B M M V C % w ",
"8 Z 4 < , > 4 & q < 3 0 = a < s % : 9 0 = 9 a % q a M A M M S % w ",
"8 q 8 g Z < < % % Z w 9 9 0 , w 2 * D j F 1 a % q G M A A M A % w ",
"u f 0 9 1 1 q % % q a 0 = 0 q q H n M & % f g & A M A A A A M B 0 ",
"H q 9 9 1 q < % & j < , q 0 V B M M J 0 u s D A M A A A A A M M V ",
"  q q w q % q f < a g 4 K G M M A M A L P n M M A A A A A A M I : ",
". r f q % q w : q : w V M M A A A A A A M M A A A A A A M M I U N ",
"  O * % q 1 = 3 k , q 9 B M A A A A A A A A A A A A M M A Y T % g ",
"  . 8 h w 9 = 3 k q 3 = R B M A A A M M M M M M M M B I < < < % w ",
"    O q f 1 = 3 q 1 h q a f B M A M E E B B B E I I W 4 k o l * r ",
"      X s q w 3 q 1 q 3 1 v < B M M Q j 4 : : 4 N ! 0 o ~ ; @ @   ",
"      ; l 3 f 3 > 0 1 , $ 4 < f A A ^ u - o o l 2 ~ O             ",
"        O l q % f k g q % % $ 6 V B / ~ .                         ",
"          O 2 9 , < % % < $ u H - g 8 i                           ",
"            O ~ l 1 > a 8 ( X ; ; ~ ~ ;                           "
};
