/* XPM */
static char *toggle_liquifyPlane[] = {
/* columns rows colors chars-per-pixel */
"24 24 135 2",
"   c #000100",
".  c #0A0A0A",
"X  c #161615",
"o  c #181817",
"O  c #1D1C1B",
"+  c #201C3D",
"@  c #282726",
"#  c #292927",
"$  c #2E2D2B",
"%  c #31312E",
"&  c #333230",
"*  c #383634",
"=  c #3A3936",
"-  c #3C3B39",
";  c #180B67",
":  c #190B6A",
">  c #1F106C",
",  c #261B6E",
"<  c #2A1C6E",
"1  c #281970",
"2  c #272441",
"3  c #2F2562",
"4  c #2B226E",
"5  c #2D2170",
"6  c #31276F",
"7  c #312571",
"8  c #332972",
"9  c #3A2F74",
"0  c #3C3275",
"q  c #403576",
"w  c #41337C",
"e  c #453D76",
"r  c #443B7A",
"t  c #483D7B",
"y  c #434343",
"u  c #4B4946",
"i  c #4C4B48",
"p  c #4F5049",
"a  c #524F52",
"s  c #52524C",
"d  c #565452",
"f  c #585653",
"g  c #595854",
"h  c #5E5C58",
"j  c #49446B",
"k  c #4B4279",
"l  c #524B7A",
"z  c #56507D",
"x  c #5B557D",
"c  c #5E587E",
"v  c #605E5B",
"b  c #615C7E",
"n  c #63615D",
"m  c #666461",
"M  c #686662",
"N  c #6B6965",
"B  c #6E6C68",
"V  c #67637E",
"C  c #706E6A",
"Z  c #73716C",
"A  c #767473",
"S  c #787572",
"D  c #78767C",
"F  c #7B7975",
"G  c #7F7D78",
"H  c #554789",
"J  c #574D87",
"K  c #55498A",
"L  c #584E89",
"P  c #5C5580",
"I  c #615C80",
"U  c #666081",
"Y  c #6B6582",
"T  c #6D6981",
"R  c #716D83",
"E  c #706598",
"W  c #776C9C",
"Q  c #7A6F9C",
"!  c #797586",
"~  c #7D7A87",
"^  c #7D739D",
"/  c #7F8078",
"(  c #8075A0",
")  c #867EA1",
"_  c #83827B",
"`  c #848384",
"'  c #878689",
"]  c #888580",
"[  c #8D8A85",
"{  c #8C8B8A",
"}  c #908E8A",
"|  c #93928C",
" . c #98978E",
".. c #999A8E",
"X. c #989790",
"o. c #9B9B91",
"O. c #8F87A6",
"+. c #9790AA",
"@. c #9994A0",
"#. c #9D94AE",
"$. c #A09C97",
"%. c #A19E98",
"&. c #A29AAF",
"*. c #A39AB1",
"=. c #A6A39D",
"-. c #A8A59F",
";. c #A9A6A0",
":. c #ADA9A3",
">. c #AFADA8",
",. c #A6A0B2",
"<. c #AFA7B5",
"1. c #B2AFA8",
"2. c #B1AAB8",
"3. c #B3B0A9",
"4. c #B9B5AE",
"5. c #B9B7B0",
"6. c #B8B2BB",
"7. c #BDB9B1",
"8. c #BFB9BE",
"9. c #C1BDB6",
"0. c #C3BFB8",
"q. c #C3BDC0",
"w. c #CAC6BE",
"e. c #C6C1C2",
"r. c #C8C2C3",
"t. c #CBC8C0",
"y. c #D2CEC6",
"u. c #D4CFC8",
"i. c #D4D0C8",
"p. c #D9D5CB",
"a. c #DDDACC",
"s. c #DED9D1",
"d. c #E0DCD3",
"f. c #E6E2D9",
"g. c #EAE5DC",
/* pixels */
"i.i.u.u.i.p.8.6.p.a.a.p.i.i.i.i.u.i.u.i.u.i.i.i.",
"i.i.u.u.i.a.^ 0 J E +.e.p.a.a.i.i.i.i.i.u.i.i.i.",
"i.u.u.u.i.a.O.R ` V l 8 L W #.e.p.a.p.p.i.i.i.i.",
"i.i.u.u.t.p.O.T ....{ 0 ` x e k H ^ *.r.p.a.a.i.",
"i.i.u.u.u.a.+.c | X.{ 0 { X. .} 7 k k 0 K ( 2.y.",
"i.i.u.p.i.p.#.9 k l T k | | | | 0 ~  .' V l > *.",
"i.i.i.t.i.p.,.U { Y k , z R { ..0 V | } ....< #.",
"i.p.p.p.p.a.2.P ..X.X.k P k 0 P 9 R .. .| | 1 &.",
"i.9.4.4.5.7.@.j / D F 3 A / D P < 7 z R | ..4 #.",
"9.- h h h h g d g g f d d h * _ k c I 0 9 x , #.",
"3.M f.s.s.s.s.d.s.s.s.s.a.g.g g q Y .. .~ z : &.",
"3.n s.y.:.{ F Z Z ] %.w.i.d.d p k U  .{ | X.7 #.",
"3.N w.F B F _ ] _ / C Z 3.s.f + 4 U o. .| | < #.",
"3.B =.n S f $ @ $ p n Z n 5.g y 0 5 l R | X.< #.",
"1.N w.h X . & X   . = - A >.g s k c R 0 9 T 5 #.",
"3.B -.F * X  .$     Z y i i.f s k b o. .! k ; &.",
"3.M t.3.F O       $ X.m i d.d 2 7 P ..| | ..4 #.",
"1.M d.=.-._ = % i o.G - %.d.g M Q t c {  .| 7 #.",
"3.M f.[ h F [ [ X.F d ;.p.d.f Z s.r.^ w x | 8 #.",
"3.n s.p.7.F h v m o.u.p.u.s.f C i.p.a.r.^ k ; #.",
"3.m d.i.p.y.w.w.t.p.i.i.i.d.f Z y.i.i.i.a.e.Q <.",
"1.v a.y.y.y.i.i.u.u.u.y.u.s.s C y.i.i.i.i.p.a.i.",
"0.= % % % % % % % % % % % % O G y.i.i.i.i.i.i.i.",
"i.%.N m M M m M M M m M M m B %.i.i.i.y.i.i.i.i."
};
