/* XPM */
static char *toggle_TargetObjectVisibility[] = {
/* columns rows colors chars-per-pixel */
"24 24 157 2",
"   c #030303",
".  c #0C0C0C",
"X  c #020D16",
"o  c #00111E",
"O  c #121211",
"+  c #001524",
"@  c #001728",
"#  c #001C31",
"$  c #242424",
"%  c #323233",
"&  c #3B3A39",
"*  c #04345B",
"=  c #153B5B",
"-  c #003765",
";  c #003D6D",
":  c #003E72",
">  c #103F62",
",  c #004374",
"<  c #004379",
"1  c #15466E",
"2  c #1A476B",
"3  c #1D4B6F",
"4  c #174D77",
"5  c #1F4D71",
"6  c #24506F",
"7  c #2F5673",
"8  c #2F5878",
"9  c #444341",
"0  c #484744",
"q  c #4E4E4E",
"w  c #595754",
"e  c #5B5A56",
"r  c #5F5D59",
"t  c #605F5B",
"y  c #6C655E",
"u  c #666561",
"i  c #696763",
"p  c #6D6A66",
"a  c #6C6C6C",
"s  c #74736E",
"d  c #777470",
"f  c #787672",
"g  c #7C7A75",
"h  c #7E7C78",
"j  c #004784",
"k  c #004C85",
"l  c #004F8B",
"z  c #00528D",
"x  c #005593",
"c  c #00559D",
"v  c #015A97",
"b  c #015C9C",
"n  c #005EA1",
"m  c #0060A4",
"M  c #0065AC",
"N  c #0064B0",
"B  c #0062B9",
"V  c #0169B2",
"C  c #006EBB",
"Z  c #0E6DB4",
"A  c #266595",
"S  c #36688E",
"D  c #35719C",
"F  c #016EC6",
"G  c #0073C3",
"H  c #0074CA",
"J  c #0078CE",
"K  c #007CD3",
"L  c #007FD9",
"P  c #5E7788",
"I  c #657D8D",
"U  c #0080DC",
"Y  c #0085E3",
"T  c #0085EA",
"R  c #0088E7",
"E  c #018AEC",
"W  c #008DF4",
"Q  c #0B8FF1",
"!  c #0090F6",
"~  c #0094FD",
"^  c #029CFE",
"/  c #0E91F2",
"(  c #03A0FE",
")  c #0BA2FE",
"_  c #0DABFE",
"`  c #12B0FE",
"'  c #1BB5FE",
"]  c #2995E3",
"[  c #3397E0",
"{  c #26C3FE",
"}  c #36CEFF",
"|  c #35D1FE",
" . c #5686A9",
".. c #738592",
"X. c #788D9D",
"o. c #6B98B8",
"O. c #5799C8",
"+. c #5E99C3",
"@. c #51A1D8",
"#. c #64A1CB",
"$. c #71A7CE",
"%. c #43DCFE",
"&. c #64F8FE",
"*. c #6BFFFE",
"=. c #807E79",
"-. c #85837E",
";. c #848584",
":. c #888681",
">. c #8D8B86",
",. c #8B8A8A",
"<. c #96938D",
"1. c #99968F",
"2. c #959696",
"3. c #9A9791",
"4. c #9C9994",
"5. c #9C9C9D",
"6. c #9BA3A9",
"7. c #A29F99",
"8. c #A6A39C",
"9. c #AAA59E",
"0. c #A2A7AA",
"q. c #A6A9AB",
"w. c #A9A7A0",
"e. c #ACA9A2",
"r. c #A9A9A9",
"t. c #A6AEB3",
"y. c #A9AFB2",
"u. c #AEB1B3",
"i. c #A9B3BA",
"p. c #B0ABA2",
"a. c #B5B1AA",
"s. c #BBB6AE",
"d. c #B3B8BB",
"f. c #BEBEBE",
"g. c #88ADC8",
"h. c #91B0C7",
"j. c #93B2C8",
"k. c #9BB3C4",
"l. c #BEBFC0",
"z. c #BFC0C1",
"x. c #C0BCB5",
"c. c #C5C2BE",
"v. c #CAC4BE",
"b. c #C1C1C1",
"n. c #C9C6C3",
"m. c #CCC9C3",
"M. c #CCCCCC",
"N. c #D2CEC6",
"B. c #D3CCC8",
"V. c #D4D0C8",
"C. c #DAD6CE",
"Z. c #DDD9D1",
"A. c #E1DDD4",
"S. c #E5E0D7",
"D. c #EAE5DD",
"F. c #ECE8DF",
"G. c #F3EEE5",
/* pixels */
"b.b.b.b.b.b.b.b.f.b.b.b.b.n.n.n.n.n.n.z.l.z.b.l.",
"b.b.b.b.f.b.b.b.b.b.b.c.x.k.#.O.+.o.u.v.n.l.b.z.",
"b.b.b.b.b.b.b.b.b.b.n.j.[ Q E T Y H Z  .d.n.l.z.",
"b.b.b.f.b.b.b.b.z.b.$./ ~ ~ ~ ! E Y K N A t.n.z.",
"b.f.b.b.b.f.b.f.v.h.Q ^ ^ ^ ~ ~ ! R L G n S x.b.",
"b.b.b.b.b.b.f.c.l.] ~ ^ _ { ' ^ ~ E U H N j X.m.",
"b.b.b.b.b.b.z.n.g.W ^ ^ | *.%.) W E U H V z 8 f.",
"b.b.f.f.f.f.f.n.#.W ^ ^ | &.} ^ E R U H N x 5 u.",
"b.f.M.M.M.M.M.N.@.~ ^ ( ` ' ) W E Y L G M l 5 q.",
"b.f.5.2.2.2.2.4.D B F F H ! W E Y L H C m k 1 q.",
"M.,.w :.h -.-.:.-.=.=.;.y < Y Y L J G M v ; 7 x.",
"M.;.8.G.A.N.v.c.m.C.A.F.x.# m L J G V n l - I m.",
"M.;.3.n.>.g f s f h 8.C.p.+ x G C N n z ; > u.b.",
"M.,.4.>.u u 9 0 w i u 4.p.o l V M b z , * ..M.z.",
"M.;.3.4.% . &     & 0 >.9.o , z k < - * ..b.b.b.",
"M.;.1.w.y . r     f 9 >.s.X = 4 1 6 I 6.m.b.z.b.",
"M.;.3.N.e.r   . w 1.9 a.a.$ ,.i.u.f.n.M.f.f.b.b.",
"M.;.3.N.i -.g -.>.w 3.A.w.$ ,.n.b.b.f.b.b.b.b.b.",
"M.;.1.Z.f.-.p p >.n.N.C.w.$ ,.f.b.b.b.b.b.b.b.f.",
"M.,.8.D.Z.A.Z.Z.A.A.Z.D.s.$ ,.b.b.b.b.b.b.b.b.b.",
"M.,.p 8.3.7.4.4.4.4.4.w.=.$ >.b.b.b.b.b.b.b.b.b.",
"f.f.a & % % % % % % % % % q 2.b.b.f.b.b.f.b.b.b.",
"f.b.b.u.r.r.e.r.q.r.r.q.r.r.d.b.b.f.b.b.b.b.b.f.",
"b.b.b.n.b.b.b.b.n.b.b.n.b.b.b.b.b.b.b.f.b.b.b.b."
};
