/* XPM */
static char *toggle_ImagePlaneVisibilityb[] = {
/* columns rows colors chars-per-pixel */
"24 24 183 2",
"   c #074407440744",
".  c #0B870B870BB2",
"X  c #166E159E14A4",
"o  c #188318B21322",
"O  c #1B2F1B2F1B30",
"+  c #236F236F235B",
"@  c #2F52263A2659",
"#  c #2A9B2A892A4B",
"$  c #343A294527EA",
"%  c #3E062DF22AC4",
"&  c #3E3434E429F3",
"*  c #320832083208",
"=  c #3D1E3D1E3D64",
"-  c #62B63EAD2931",
";  c #52F054F13150",
":  c #5B3E55CC3078",
">  c #5E9157993BE4",
",  c #6C6554D82DE8",
"<  c #67685541380E",
"1  c #738548592FCB",
"2  c #7B434C2B302D",
"3  c #74094837304A",
"4  c #7409488C30A2",
"5  c #45E245E245FF",
"6  c #4B554B4A4ADB",
"7  c #57635B474903",
"8  c #59C75A3A4B12",
"9  c #52BC524651BE",
"0  c #5CC5537153C3",
"q  c #5E625E885376",
"w  c #5BB65BC85C08",
"e  c #5E2B611A52A6",
"r  c #5CD47C096435",
"t  c #67FB69E7516B",
"y  c #800574D55827",
"u  c #7D3E7C6050B3",
"i  c #642B642B642C",
"p  c #68AC68AF6412",
"a  c #6D3E6D406D41",
"s  c #718F6F6F6AF7",
"d  c #74B071866866",
"f  c #7B6078D5635A",
"g  c #74747481746D",
"h  c #7E037C3A7539",
"j  c #7C637C637BC5",
"k  c #5DAA835D66CD",
"l  c #81B9536A2CF9",
"z  c #8665531732B1",
"x  c #963D52582D19",
"c  c #994F536D2F68",
"v  c #979B521833DA",
"b  c #956953843BEF",
"n  c #9E69560D33C9",
"m  c #953B70203FD2",
"M  c #A2A857A43938",
"N  c #A32A5C8C3AF7",
"B  c #8E6E61CA5D7D",
"V  c #8F9471116744",
"C  c #89D4713868AC",
"Z  c #9C6967976083",
"A  c #AF0264B8476B",
"S  c #B7A17A915449",
"D  c #B2B07ECC5E1A",
"F  c #A1917D6A6CBF",
"G  c #9BD487D35399",
"H  c #846584A379C3",
"J  c #89C484DC7824",
"K  c #8C2C88117DE2",
"L  c #8FCF8A457411",
"P  c #973B96A176B8",
"I  c #9848954C7B52",
"U  c #9AC096237D76",
"Y  c #9A1FA3545B4E",
"T  c #86CAA5D77C6C",
"R  c #8C0BB34977E1",
"E  c #9547B036750F",
"W  c #B84B86A24871",
"Q  c #BC2E90055CDB",
"!  c #AA9B9224658F",
"~  c #A3879D077753",
"^  c #A1AF9C0C7A22",
"/  c #B749926D615B",
"(  c #B9E69DA36690",
")  c #AC09B0A44E5D",
"_  c #AD22A34875A5",
"`  c #AEA2A6AC7EC4",
"'  c #B83BA2486C96",
"]  c #B68CAF266F9C",
"[  c #B4F3A0BE7128",
"{  c #B63AACE3714A",
"}  c #B51AADEF7E42",
"|  c #B998A26173B7",
" . c #BE69ABF57AB5",
".. c #BB43B31E6C21",
"X. c #B83EB18B74D4",
"o. c #B38AC4175ED5",
"O. c #ACC2C4167F09",
"+. c #ABDACBE67D87",
"@. c #B3C2C8C77074",
"#. c #B46BCF1E778F",
"$. c #C3C5BE9C5F28",
"%. c #C517B974670E",
"&. c #C56ABE8C6989",
"*. c #CDE9BF2E6233",
"=. c #C56BB51A79C6",
"-. c #D2A2CAD45D67",
";. c #DA0DCAF05DFD",
":. c #DED8D7D35931",
">. c #CD80C6676295",
",. c #CEDCCBC765DA",
"<. c #CD50CFAD6B6E",
"1. c #C1DBD3776F60",
"2. c #CF59D8686D0F",
"3. c #CDF9DA4C6E9D",
"4. c #CDE5DF3F71BE",
"5. c #D9BACC9D644F",
"6. c #D332D8C86137",
"7. c #D3E8D9516145",
"8. c #8585858785A4",
"9. c #887B8C29877D",
"0. c #8893880A83A8",
"q. c #8BCC8AFA84C3",
"w. c #8C888C6E8BF8",
"e. c #91A38E2A8180",
"r. c #94349379842B",
"t. c #969196919638",
"y. c #9B96982E9789",
"u. c #9B4D9B629B7C",
"i. c #8DF2BB869114",
"p. c #9974AF29958E",
"a. c #9629B6B6996E",
"s. c #9624BB789CCE",
"d. c #9BD1BDCA9840",
"f. c #A38A9C408EA0",
"g. c #AF7E9FF49B8D",
"h. c #B715A01B8BBD",
"j. c #B96F9E9A8911",
"k. c #B5539B25968C",
"l. c #B2CD9A909B50",
"z. c #A81DA7258E12",
"x. c #ACAEA8B582B7",
"c. c #A730A497935A",
"v. c #A5BDA4229B11",
"b. c #A7D2AAB9978F",
"n. c #AD6EA52E93A8",
"m. c #A370B5AE8810",
"M. c #B6DEABB18227",
"N. c #BC41ADF8941D",
"B. c #B42DBCB88450",
"V. c #A67BA6ACA6C7",
"C. c #A7F6A85AA8B7",
"Z. c #AD3AA450A4BD",
"A. c #A9C2A9D2A9BD",
"S. c #AF32B70EA7AC",
"D. c #AD8BB4CEA8D9",
"F. c #BB7BBB6FBBF2",
"G. c #8FE5C4519934",
"H. c #8F1DCAE89B3B",
"J. c #9409D20F9FE4",
"K. c #9C39D6B1991F",
"L. c #AC4ED09A811F",
"P. c #A86ED2A989D8",
"I. c #AD67D6BF8585",
"U. c #AD22D98A8808",
"Y. c #AC33D9668A98",
"T. c #A319D8E595E2",
"R. c #A963D6639A07",
"E. c #AD2CDD8192F6",
"W. c #BDC3C67A8BFF",
"Q. c #B2B4CE929B63",
"!. c #B4E5D76A970B",
"~. c #B36FD15C9A61",
"^. c #C192BF93BBD7",
"/. c #C0FDDBE998D3",
"(. c #DFE2C55E92CA",
"). c #C98CC2B2B5E1",
"_. c #D355CC25B8C8",
"`. c #DBB3E7B5A071",
"'. c #C416C36EC29B",
"]. c #CD75CCEACCD2",
"[. c #D506D0A7CB29",
"{. c #D510D2B8CE54",
"}. c #D4D0D4CAD4BA",
/* pixels */
"8.8.8.8.8.8.9.~ U I 8.8.8.8.8.8.8.8.8.8.8.8.8.8.",
"8.8.8.8.8.8.P :.3.<.&.{ ^ e.8.8.8.8.8.8.8.8.8.8.",
"8.8.8.8.8.8.I 7.K.K.P.@.o.%.%.{ U I 8.8.8.8.8.8.",
"8.8.8.8.8.8.I 7.T.E.d.T r t u Y o.>.&.{ U K 0.8.",
"8.8.8.8.8.8.I 7.E.!.b.L 7 ; ; 7 k E O.#.1.,...8.",
"8.8.8.8.8.8.I 7.E.Q.c.Z < , , : e P m.i.H.I.-.0.",
"8.8.8.8.8.8.I 7.E.Q.n.L b x x l > C x.p.H.I.-.0.",
"8.8.8.8.8.8.I -.Y./.N.' A c x x z B ` v.s.I.-.0.",
"8.8.9.8.8.8.U 7.E.`.(.=.Q M x x v Z ` v.s.U.-.0.",
"8.8.a a a a f ) R W. .! G N x x M D } k.s.U.-.0.",
"8.i p 9.8.8.8.q.9.9.9.q.s - x c A ( M.v.s.U.-.0.",
"8.i u.}.{.'.F.F.F.'.{.}.C.% 2 n S  .h.Z.s.U.-.0.",
"9.i u.^.f.8.g g H q.c.].V.@ 4 n / M.k.A.s.I.-.0.",
"8.i t.w.a w 6 5 q p a t.u.@ 4 N ( j.l.A.a.+.-.0.",
"8.i t.t.= O * . . = 8 r.p.# 4 N | k.Z.A.a.+.-.0.",
"8.i t.u.i + 6 .   i 6 9.V.& A W | Z.D.S.s.+.-.8.",
"8.i t.'.u.w X X 0 8.0 Z.V.@ y *.5.W.R.R.J.I.5.0.",
"8.i u.'.C 8.g J r.s y.].V.# w H _ ,.3.Y.J.Y.-.0.",
"8.i u.}.).w.g h f._.].}.V.# w 8.8.8._ >.3.4.-.8.",
"w.i u.}.}.].].].].}.}.}.V.# w j 8.8.8.q._ ;.>.0.",
"8.i g u.u.t.u.u.u.y.u.u.j + w 8.8.8.8.8.8.q.I 8.",
"8.j 0 = * * * * * * * * # = i 8.8.8.8.8.8.8.8.8.",
"8.8.k j a a a a a a a a a g j 8.8.8.8.8.8.8.8.8.",
"8.8.8.8.8.8.8.8.8.8.8.8.8.8.8.8.8.8.8.8.8.8.8.8."
};
