/* XPM */
static char * image_name[]={
"33 33 119 2",
"  	c #787878",
". 	c #757575",
"X 	c #7A7A7A",
"o 	c #696969",
"O 	c #509F69",
"+ 	c #592F71",
"@ 	c #347766",
"# 	c #62D4A2",
"$ 	c #5DF370",
"% 	c #00562D",
"& 	c #616161",
"* 	c #7D7D7D",
"= 	c #6E6E6E",
"- 	c #3B3B3B",
"; 	c #4A4A4A",
": 	c #9BEEB4",
"> 	c #F5DEB3",
", 	c #EEE8AA",
"< 	c #5C5C5C",
"1 	c #0D0D0D",
"2 	c #303030",
"3 	c #A3A3A3",
"4 	c #ADADAD",
"5 	c #ABABAB",
"6 	c #A6A6A6",
"7 	c #545454",
"8 	c #2B2B2B",
"9 	c #636363",
"0 	c #363636",
"q 	c #A8A8A8",
"w 	c #0F0F0F",
"e 	c #000001",
"r 	c #000000",
"t 	c #55562F",
"y 	c #B0B0B0",
"u 	c #BC8F8F",
"i 	c #73DE78",
"p 	c #575757",
"a 	c #737373",
"s 	c #919191",
"d 	c #030303",
"f 	c #171717",
"g 	c #1A1A1A",
"h 	c #050505",
"j 	c #B3B37E",
"k 	c #2F4F4F",
"l 	c #666666",
"z 	c #2F2F64",
"x 	c #474747",
"c 	c #6A6A8D",
"v 	c #707070",
"b 	c #D1D1D1",
"n 	c #CCCCCC",
"m 	c #C9C9C9",
"M 	c #D4D4D4",
"N 	c #8C8C8C",
"B 	c #6B3939",
"V 	c #8E2323",
"C 	c #212121",
"Z 	c #333333",
"A 	c #B8B8B8",
"S 	c #6B6B6B",
"D 	c #B8860B",
"F 	c #CDCD1D",
"G 	c #CD853F",
"H 	c #ADFF2F",
"J 	c #CED85A",
"K 	c #F3E64B",
"L 	c #DAAA00",
"P 	c #D7EB31",
"I 	c #F2DE0D",
"U 	c #4D4D4D",
"Y 	c #8A8A8A",
"T 	c #878787",
"R 	c #262626",
"E 	c #595959",
"W 	c #91D2A0",
"Q 	c #96522D",
"! 	c #A1A1A1",
"~ 	c #9E9E9E",
"^ 	c #5E5E5E",
"/ 	c #D6D6D6",
"( 	c #E9967A",
") 	c #DEB887",
"_ 	c #F4A460",
"` 	c #9C9C9C",
"' 	c #EEDD82",
"] 	c #D2691E",
"[ 	c #B3B3B3",
"{ 	c #BDB76B",
"} 	c #9B7071",
"| 	c #B7644D",
" .	c #B6E191",
"..	c #CFCFCF",
"X.	c #D9D9D9",
"o.	c #B5B5B5",
"O.	c #78D54B",
"+.	c #9BEE70",
"@.	c #EFDF84",
"#.	c #D1C166",
"$.	c #6B8E23",
"%.	c #454545",
"&.	c #242424",
"*.	c #292929",
"=.	c #525252",
"-.	c #999999",
";.	c #91535D",
":.	c #41AC41",
">.	c #424242",
",.	c #3D3D3D",
"<.	c #C7C7C7",
"1.	c #4F4F4F",
"2.	c #383838",
"3.	c #F0F0F0",
"4.	c #E8E8E8",
"5.	c #E5E5E5",
"6.	c #E3E3E3",
"7.	c #F5F5DC",
"8.	c #4E125D",
"                  . . . . . . . . . . . . . . . .   X             ",
"                o O O O O O O O O O O O O O O O O O o X           ",
"          X   + @ # # # # # # # # $ # # # # # # # $ % & *         ",
"        * = - ; O : > , , , , , < 1 2 3 , 4 5 6 3 # 7 8 9 *       ",
"      * < 0 & X O : > > > , > q w e r t , y 5 q u i 7 p 0 9 *     ",
"      ; - = * a O : > > > , > s d f g h j , 5 q 6 # k l = 0 & *   ",
"  = z x c c a v O : b n n m M N h B V C Z A 4 q 6 # k < c S Z < X ",
". t D F F F F G H J K K K K K F D L L L D K K P P P D D F F D t S ",
". I D D D D D D D H L D D D D D D D D D D D D D D H D D D D D I D ",
"v I ; x U U U ; @ O N Y Y Y Y T R 1 B B B Z   a v O 2 z U U z F D ",
"v I E o v = = S O W > , , , , , j 1 t Q Q B ! ! ~ i k < v v l F D ",
"v I ^ v       . O : / > > > , > ( B t t Q t 6 y 5 # k 9     = F D ",
"v I ^ v       a O : M > > , , , Q Q Q t Q B ~ y 5 # k &     = F D ",
"v I ^ v       a O : M > > , , ) Q Q Q t t 2 ~ y 5 # k &     = F D ",
"v I ^ v       a O : M > > , , j Q G _ t Q B ` y 5 # k &     = F D ",
"v I ^ v       a O : M > , , ' Q Q G ] Q Q t 6 y 5 # k &     = F D ",
"v I ^ v       a O : M > , , j Q Q Q Q Q B & [ 4 5 # k &     = F D ",
"v I ^ v       a O : M > , , { Q Q Q Q Q B } ' 5 5 # k &     = F D ",
"v I ^ v       a O : M > , , | Q Q Q Q Q Q j [ 5 q # k &     = F D ",
"v I ^ v       a O : M > , , | Q Q Q ] Q | y 4 q 6 # k &     = F D ",
"v I ^ v       a O : M > , , Q Q Q Q Q Q {  .5 q u i k &     = F D ",
"v I ^ v       a O : b , , ) Q Q Q Q Q | 4 y 5 6 u i k &     = F D ",
"v I ^ v       a O : b > , ) Q Q Q } y , y 4 q 6 u i k &     = F D ",
"v I ^ v       a O : > , , > | Q Q { , y 4 5 q 3 u i k &     = F D ",
"v I < =   . . a O : ..> , X.( Q Q Q 6 o.4 5 6 3 ~ # k ^     S F D ",
"v I D j j j j j O.+.@.' ' , ' G G D D { #.#.( { { +.$.} j j j I D ",
"= D F I I I I I I I I I I I I I I I I I I I I I I I F F I I I D t ",
"v %.&.*.%.=.U ; @ O j j j j -.;.t t t B } j = 9 9 :.% B =.>.&.8 7 ",
". = l U 2 ,.& l O i 5 <.) ) m <.| Q Q Q A [ 3 j j i k 7 >.2 p o = ",
"      X . 1.2.7 O W ..3.4.5.4.3.6.( { > 7...> , 5 i k 2 x . X     ",
"          * = 8.@ # # # # # # # # # # # # # # # # $ *.U *         ",
"              X l < % % % % % % % % % % % % % % % % % o           ",
"                = 1.B - B B B B B B B B B B B B B B 7 =           "
};
