/* XPM */
static char *xray_icon[] = {
/* columns rows colors chars-per-pixel */
"13 13 155 2",
"   c #5D796C",
".  c #5D7B6D",
"X  c #5E7B6D",
"o  c #704F5F",
"O  c #735161",
"+  c #735965",
"@  c #715D66",
"#  c #755F6A",
"$  c #6E6D6E",
"%  c #607369",
"&  c #637A6F",
"*  c #607F70",
"=  c #6E7571",
"-  c #6E7672",
";  c #6E7772",
":  c #687A71",
">  c #697A71",
",  c #687B72",
"<  c #70646A",
"1  c #73656C",
"2  c #77656E",
"3  c #706A6D",
"4  c #72696D",
"5  c #73686D",
"6  c #746B6F",
"7  c #78646E",
"8  c #78656E",
"9  c #726F71",
"0  c #766A70",
"q  c #746C70",
"w  c #756F72",
"e  c #766C71",
"r  c #717070",
"t  c #707271",
"y  c #707372",
"u  c #727473",
"i  c #717774",
"p  c #747072",
"a  c #717B76",
"s  c #56806C",
"d  c #58866F",
"f  c #5F8773",
"g  c #5B8E75",
"h  c #5D8974",
"j  c #5D8C75",
"k  c #599377",
"l  c #5A9076",
"z  c #5B9478",
"x  c #5B9579",
"c  c #5F9078",
"v  c #5F957B",
"b  c #5F967B",
"n  c #5B9D7D",
"m  c #5B9E7D",
"M  c #59A07D",
"N  c #618573",
"B  c #618674",
"V  c #658073",
"C  c #668375",
"Z  c #648675",
"A  c #648775",
"S  c #628976",
"D  c #658A78",
"F  c #668878",
"G  c #668978",
"H  c #678B79",
"J  c #698477",
"K  c #698678",
"L  c #68967F",
"P  c #4EB382",
"I  c #49BF85",
"U  c #4DBF87",
"Y  c #4FBF88",
"T  c #52AD81",
"R  c #5DA481",
"E  c #5EA683",
"W  c #59AA83",
"Q  c #59AE86",
"!  c #5EA985",
"~  c #5FAB86",
"^  c #54B083",
"/  c #57B084",
"(  c #57B286",
")  c #57BB8A",
"_  c #56BE8B",
"`  c #58B085",
"'  c #58B688",
"]  c #5CB58A",
"[  c #5ABA8B",
"{  c #5CBB8C",
"}  c #5EBB8D",
"|  c #669880",
" . c #689780",
".. c #62AA88",
"X. c #75BF9C",
"o. c #79BA9A",
"O. c #7ABA9B",
"+. c #7FB89C",
"@. c #7CBD9D",
"#. c #7CBE9E",
"$. c #4CC88C",
"%. c #4DCA8D",
"&. c #47D590",
"*. c #55C48E",
"=. c #5BD89B",
"-. c #60C292",
";. c #63C796",
":. c #67C396",
">. c #60CA96",
",. c #60CC98",
"<. c #69C196",
"1. c #6BC398",
"2. c #68C799",
"3. c #6BC498",
"4. c #68C999",
"5. c #68C99A",
"6. c #69CD9C",
"7. c #64D09B",
"8. c #66D19D",
"9. c #71C39C",
"0. c #71C59C",
"q. c #70C69C",
"w. c #70C79C",
"e. c #72C49C",
"r. c #74C29C",
"t. c #979898",
"y. c #979998",
"u. c #969D99",
"i. c #9D9297",
"p. c #999798",
"a. c #9B9598",
"s. c #9A9698",
"d. c #9F9198",
"f. c #9F9298",
"g. c #9D9498",
"h. c #9D979A",
"j. c #9E9499",
"k. c #9E9599",
"l. c #989999",
"z. c #999898",
"x. c #999999",
"c. c #989A99",
"v. c #9B9A9A",
"b. c #999E9B",
"n. c #81AF98",
"m. c #8FAA9D",
"M. c #80B39A",
"N. c #83B59D",
"B. c #81BA9E",
"V. c #82B89E",
"C. c #89B09D",
"Z. c #92A19A",
"A. c #93A39B",
"S. c #90A99D",
"D. c #A09299",
/* pixels */
"s.f.k.b.m.V.r.,.V.i.t.t.t.",
"Z.O.1.-.] R D l P o.v.a.z.",
"8.&.> $ 4 5 2 S   h 1.v.a.",
"<.x ~ 9 9 - 6 B . O . >.A.",
"3.V C [ 9 1 y m T Q [ $.6.",
"e.j @ * *.[ { *.Q H = : 5.",
"3.A < + Q ..a m B # 4 V 5.",
"r.x & d U ( c D x S 2 * 2.",
"m.I .   T  .7 q p L B , 5.",
"k.+.k o W | q a u q D k :.",
"y.k.o.g m  .7 0 q ; J Y 7.",
"z.y.f.M.$...K ~ { 2.3.N.u.",
"z.z.y.f.#.=.3.B.m.v.D.f.s."
};
